<?xml version="1.0" encoding="UTF-8"?>
<svg version="1.1" xmlns="http://www.w3.org/2000/svg" width="34" height="35">
<path d="M0 0 C4.92784505 0.417313 6.9777145 2.54985927 10.3125 6.0625 C11.19550781 6.98160156 12.07851562 7.90070312 12.98828125 8.84765625 C13.65214844 9.55792969 14.31601563 10.26820312 15 11 C19.67422038 9.08155581 22.37855026 5.49668206 25.68359375 1.80078125 C28 0 28 0 30.78515625 0.23046875 C31.51605469 0.48441406 32.24695312 0.73835937 33 1 C32.58685438 5.44926052 29.49538473 7.84100104 26.4375 10.75 C25.91736328 11.25660156 25.39722656 11.76320313 24.86132812 12.28515625 C23.58089916 13.53034405 22.29132446 14.76611502 21 16 C21.36351563 16.42410156 21.72703125 16.84820313 22.1015625 17.28515625 C23.1582759 18.51798855 24.211419 19.7538866 25.26171875 20.9921875 C26.40464844 22.31233551 27.57368007 23.61040573 28.76953125 24.8828125 C29.59517578 25.77613281 29.59517578 25.77613281 30.4375 26.6875 C30.95183594 27.22761719 31.46617188 27.76773437 31.99609375 28.32421875 C33 30 33 30 32.66015625 32.20703125 C32.44230469 32.79871094 32.22445312 33.39039063 32 34 C26.95193086 33.64008282 24.47760134 30.95601959 21.1875 27.4375 C20.68541016 26.91736328 20.18332031 26.39722656 19.66601562 25.86132812 C18.43470873 24.5831143 17.2160593 23.29272853 16 22 C12.42487809 24.98279402 8.98784414 27.9641444 5.8125 31.375 C3 34 3 34 -1 34 C-0.62310484 28.53101059 1.11179819 26.32565739 5.0625 22.625 C6.44115234 21.31402344 6.44115234 21.31402344 7.84765625 19.9765625 C8.55792969 19.32429688 9.26820312 18.67203125 10 18 C8.08155581 13.32577962 4.49668206 10.62144974 0.80078125 7.31640625 C-1 5 -1 5 -0.76953125 2.21484375 C-0.51558594 1.48394531 -0.26164062 0.75304687 0 0 Z " fill="#000000" transform="translate(1,1)"/>
</svg>
