<?xml version="1.0" encoding="UTF-8"?>
<svg version="1.1" xmlns="http://www.w3.org/2000/svg" width="1024" height="1024">
<path d="M0 0 C0.88916679 0.07777896 1.77833358 0.15555792 2.69444482 0.23569382 C4.8589338 0.44912071 6.98064814 0.76246831 9.125 1.125 C9.91575928 1.25624268 10.70651855 1.38748535 11.52124023 1.52270508 C45.31620747 7.54126007 75.94438952 24.77373067 100.47412109 48.52539062 C101.53057522 49.54634789 102.59389417 50.56023145 103.66259766 51.56835938 C131.69632676 78.02929116 152.71760146 114.13460373 157.68031944 152.74377912 C157.9674552 154.7703074 158.34963684 156.78282729 158.74353302 158.7913366 C159.57136569 165.92666055 159.15045498 170.90511334 154.88387895 176.86484993 C150.68290456 182.07960392 146.07396122 186.90408895 141.41341182 191.70694216 C138.94151306 194.27248036 136.51882145 196.88388177 134.08891952 199.48911339 C129.26457895 204.64529578 124.39434678 209.75588721 119.50778494 214.85306142 C115.44230517 219.09626505 111.39714542 223.35804005 107.36407089 227.63204765 C106.48900722 228.55929895 106.48900722 228.55929895 105.5962655 229.5052826 C104.40604837 230.76652403 103.21583361 232.0277677 102.02562116 233.28901356 C58.79535742 279.07379851 14.86408768 324.21055724 -29.16986754 369.22119613 C-35.85367989 376.05364714 -42.53456123 382.88896266 -49.21435547 389.7253418 C-49.95225553 390.48040031 -50.69015558 391.23545882 -51.45041625 392.01339789 C-73.6231643 414.7056511 -95.53796654 437.62197175 -117.2673449 460.73878761 C-151.50635117 497.15692676 -186.13098423 533.16418689 -221.4921875 568.49609375 C-222.19011704 569.19419078 -222.88804658 569.89228781 -223.60712551 570.6115393 C-286.7214127 633.72748757 -347.09892169 693.42134313 -546.11787321 726.23388673 C-552.08044655 726.22881435 -558.03885332 726.12538345 -564 726 C-565.32 726 -566.64 726 -568 726 C-563.78194182 702.63582825 -559.15739454 679.35475272 -554.5234375 656.0703125 C-554.11952315 654.03998697 -553.71560902 652.0096614 -553.3116951 649.97933578 C-551.63350646 641.54539439 -549.95425801 633.1116652 -548.27217674 624.67849922 C-545.87698481 612.66987693 -543.48842351 600.65997746 -541.10869348 588.64828122 C-539.42355808 580.14532391 -537.73109519 571.64384527 -536.03313315 563.14344013 C-535.0228584 558.08476909 -534.01579846 553.02550808 -533.01661301 547.96463394 C-532.08101955 543.2266845 -531.1363817 538.49062935 -530.18470955 533.75588417 C-529.83750353 532.0202964 -529.49358969 530.28404628 -529.15321541 528.54710579 C-528.68827773 526.1771595 -528.21154055 523.809885 -527.73178101 521.44290161 C-527.59996504 520.75605762 -527.46814908 520.06921362 -527.33233869 519.36155617 C-526.1005451 513.40023452 -523.63914571 509.39366084 -519.37979096 505.11528462 C-518.64702688 504.3744388 -517.9142628 503.63359298 -517.15929374 502.87029728 C-516.35456482 502.06682052 -515.54983589 501.26334376 -514.72072124 500.43551922 C-513.43274716 499.13779208 -513.43274716 499.13779208 -512.1187534 497.81384823 C-509.72807802 495.40714169 -507.33300353 493.00497083 -504.93596405 490.6046126 C-502.33156902 487.99447447 -499.73288067 485.37866486 -497.13343126 482.76360303 C-491.97402721 477.57508048 -486.80918056 472.39200694 -481.64261864 467.21061303 C-477.34582875 462.90117296 -473.05138417 458.58940735 -468.75844955 454.27612686 C-468.13914996 453.65389327 -467.51985037 453.03165968 -466.88178412 452.39057053 C-465.61875262 451.12153782 -464.35572476 449.85250148 -463.09270049 448.58346158 C-446.73283866 432.14654341 -430.35943712 415.72313354 -413.98366341 399.30207029 C-411.86245802 397.17497742 -409.74129902 395.04783831 -407.62015417 392.92068508 C-380.64036575 365.86460472 -353.65593866 338.81315161 -326.65958579 311.77359839 C-319.79771642 304.90074073 -312.93605265 298.02767782 -306.07446289 291.15454102 C-305.31626725 290.39508052 -304.5580716 289.63562002 -303.77690033 288.85314556 C-279.18576178 264.22063093 -254.62004695 239.56295612 -230.06835552 214.89112828 C-204.83152918 189.53103831 -179.57209687 164.19369549 -154.28285874 138.88586486 C-150.7123975 135.31277008 -147.1421816 131.73943026 -143.57210732 128.16594887 C-142.86946714 127.46265777 -142.16682697 126.75936668 -141.44289467 126.03476374 C-130.12864598 114.70875502 -118.8382827 103.359221 -107.55647692 92.00090603 C-96.22010105 80.58874781 -84.85829698 69.20241657 -73.47005596 57.84201028 C-66.70284241 51.08980977 -59.95585 44.31876861 -53.23615837 37.51926636 C-48.74629091 32.97994222 -44.23148831 28.46648511 -39.69552173 23.97322801 C-37.11096101 21.41155993 -34.53876758 18.84015386 -31.9963341 16.23661198 C-29.25604014 13.43098084 -26.46340498 10.68151929 -23.6635313 7.93527508 C-22.49506716 6.71250119 -22.49506716 6.71250119 -21.30299768 5.4650248 C-14.66415928 -0.89461705 -8.90195581 -0.8988705 0 0 Z M3.96278381 60.52842712 C3.45517014 61.04885086 2.94755646 61.5692746 2.42456055 62.10546875 C1.87926697 62.64857193 1.33397339 63.19167511 0.77215576 63.75123596 C-1.03277233 65.55384828 -2.82298369 67.37036542 -4.61328125 69.1875 C-5.86794547 70.44708994 -7.12342554 71.70586771 -8.37968445 72.96386719 C-11.01596624 75.60779932 -13.64564844 78.25806101 -16.27026367 80.91357422 C-19.61729639 84.2999588 -22.97480565 87.67569034 -26.33669758 91.0473175 C-29.55740077 94.27805981 -32.7731836 97.51368063 -35.98828125 100.75 C-36.59472284 101.35983734 -37.20116444 101.96967468 -37.82598305 102.59799194 C-39.56543681 104.34917908 -41.30143185 106.10372214 -43.03637695 107.859375 C-43.53791794 108.36360489 -44.03945892 108.86783478 -44.55619812 109.38734436 C-47.24060053 112.11147737 -49.80138571 114.90233557 -52.2964325 117.8013916 C-56.39349942 122.52187358 -60.78887217 126.91399994 -65.22070312 131.31835938 C-66.59738082 132.69279557 -67.97405838 134.06723189 -69.3507309 135.44167328 C-70.81599357 136.90358715 -72.28249767 138.36424494 -73.74937439 139.82453918 C-76.82110493 142.88262865 -79.88891148 145.94463495 -82.95617676 149.00720215 C-90.02029742 156.05933369 -97.08944549 163.10641857 -104.15865326 170.15345001 C-110.64318682 176.61774599 -117.12662484 183.08313102 -123.60600805 189.55258989 C-126.64841039 192.59004316 -129.6932256 195.62504949 -132.7399826 198.65813446 C-134.18145315 200.09390824 -135.62174755 201.53084977 -137.0615387 202.9683075 C-138.80740844 204.71133462 -140.55505237 206.45258746 -142.30491638 208.19160461 C-145.80948419 211.6958565 -149.2388933 215.2132392 -152.47131348 218.97131348 C-156.63764649 223.80989458 -161.15343918 228.27766194 -165.6796875 232.77734375 C-166.63509156 233.73082398 -167.59026476 234.68453558 -168.54522705 235.63845825 C-170.58716584 237.67725839 -172.63064189 239.71450007 -174.675354 241.7505188 C-177.91510454 244.97663777 -181.1509398 248.20666522 -184.38623047 251.43725586 C-191.8373795 258.8764114 -199.29355414 266.3105231 -206.74978638 273.74458313 C-213.58888487 280.56344902 -220.42689117 287.38340096 -227.26084328 294.20742512 C-230.47050439 297.41213433 -233.68258006 300.61439675 -236.89659119 303.81474304 C-238.90230811 305.81294829 -240.90590398 307.81327031 -242.90895844 309.81414413 C-244.26679591 311.16924742 -245.62715211 312.52182546 -246.98760986 313.8742981 C-250.59005629 317.47643635 -254.12909043 321.08220674 -257.44836426 324.94836426 C-261.87146851 330.08993154 -266.69979488 334.82361109 -271.50585938 339.60351562 C-272.54993199 340.64566498 -273.59377414 341.68804526 -274.6374054 342.7306366 C-276.87087347 344.96096323 -279.10588054 347.18973155 -281.34211731 349.4172821 C-284.88430497 352.94585302 -288.42259093 356.47831942 -291.96032715 360.01135254 C-300.10812681 368.14715185 -308.26094923 376.27791176 -316.41382599 384.40862274 C-323.89114195 391.86571386 -331.36737093 399.32388635 -338.83954668 406.78612852 C-342.35027334 410.29189889 -345.86341721 413.79522266 -349.37848663 417.29663849 C-351.57103034 419.48167805 -353.76145997 421.66882777 -355.95134544 423.85653114 C-356.96020535 424.86353265 -357.96992236 425.86967638 -358.98060036 426.87485313 C-363.9075888 431.77588467 -368.68778644 436.71713947 -373.21434975 441.98948288 C-376.86014643 446.09439459 -380.80340975 449.91495896 -384.69897461 453.78076172 C-385.65589311 454.73411564 -386.61257162 455.6877105 -387.56903076 456.64152527 C-389.61266588 458.67865955 -391.65780172 460.71427037 -393.70411491 462.74871445 C-396.93816867 465.96435446 -400.16776693 469.18444474 -403.3966217 472.40530396 C-412.57290534 481.55752022 -421.75521248 490.70367962 -430.94165039 499.84570312 C-436.02759246 504.9071339 -441.10996277 509.97212388 -446.1884957 515.04098904 C-449.39994319 518.24588602 -452.61584877 521.44622068 -455.83510101 524.64327693 C-457.82893575 526.6254213 -459.81861475 528.61169573 -461.80711365 530.59919167 C-463.17537958 531.96427108 -464.5486406 533.32433791 -465.92201233 534.6842804 C-466.72806915 535.49164139 -467.53412598 536.29900238 -468.36460876 537.13082886 C-469.07082839 537.83390608 -469.77704802 538.5369833 -470.50466824 539.26136589 C-472.21735532 540.87051714 -472.21735532 540.87051714 -472 543 C-470.60065355 544.23714964 -470.60065355 544.23714964 -468.73828125 545.43359375 C-467.6872522 546.15156128 -467.6872522 546.15156128 -466.61499023 546.8840332 C-465.47525757 547.65299927 -465.47525757 547.65299927 -464.3125 548.4375 C-455.53716291 554.48676812 -447.51404248 561.08684676 -439.5625 568.171875 C-438.510625 569.10773438 -438.510625 569.10773438 -437.4375 570.0625 C-436.56931641 570.85333984 -436.56931641 570.85333984 -435.68359375 571.66015625 C-433.88417218 573.09217852 -432.06459519 574.00162019 -430 575 C-425.99482718 571.01974213 -421.99310045 567.03606133 -417.99438477 563.04931641 C-416.63657873 561.69650645 -415.27787249 560.34459934 -413.91821289 558.99365234 C-411.95215212 557.03986592 -409.98946555 555.08274126 -408.02734375 553.125 C-407.42913315 552.53195068 -406.83092255 551.93890137 -406.21458435 551.32788086 C-403.28269391 548.39637218 -400.46796768 545.41978532 -397.77172852 542.26953125 C-393.4928853 537.3233571 -388.85437944 532.74182655 -384.21405029 528.1388855 C-382.58766731 526.52546486 -380.96460304 524.90876729 -379.34228516 523.29125977 C-375.31536577 519.27758899 -371.28297337 515.26943165 -367.25073242 511.2611084 C-363.8317138 507.86194276 -360.41483601 504.46065133 -357.00067139 501.05661011 C-355.41478994 499.47712934 -353.82588904 497.90073203 -352.23681641 496.32446289 C-348.20754961 492.31540543 -344.19898342 488.31988814 -340.5 484 C-336.32920789 479.12910621 -331.7635306 474.65170969 -327.21405029 470.1388855 C-325.58766731 468.52546486 -323.96460304 466.90876729 -322.34228516 465.29125977 C-318.31536577 461.27758899 -314.28297337 457.26943165 -310.25073242 453.2611084 C-306.8317138 449.86194276 -303.41483601 446.46065133 -300.00067139 443.05661011 C-298.41478994 441.47712934 -296.82588904 439.90073203 -295.23681641 438.32446289 C-290.59815949 433.70907096 -286.10369723 429.04310956 -281.84741211 424.07226562 C-278.20707838 419.98885704 -274.28215096 416.17502553 -270.39924622 412.32408142 C-268.80646509 410.74426867 -267.21700843 409.16117414 -265.6282959 407.57727051 C-261.68485384 403.64707341 -257.73593714 399.72239228 -253.78717041 395.79754639 C-250.43860973 392.46884286 -247.09219307 389.13801069 -243.74848938 385.8044281 C-242.19584762 384.25818445 -240.64018597 382.7150262 -239.08435059 381.17199707 C-235.11013086 377.21813271 -231.16184863 373.27431626 -227.51367188 369.01367188 C-223.33742176 364.13895269 -218.768129 359.65627105 -214.21405029 355.1388855 C-212.58766731 353.52546486 -210.96460304 351.90876729 -209.34228516 350.29125977 C-205.31536577 346.27758899 -201.28297337 342.26943165 -197.25073242 338.2611084 C-193.8317138 334.86194276 -190.41483601 331.46065133 -187.00067139 328.05661011 C-185.41478994 326.47712934 -183.82588904 324.90073203 -182.23681641 323.32446289 C-178.20754961 319.31540543 -174.19898342 315.31988814 -170.5 311 C-166.32920789 306.12910621 -161.7635306 301.65170969 -157.21405029 297.1388855 C-155.58766731 295.52546486 -153.96460304 293.90876729 -152.34228516 292.29125977 C-148.31536577 288.27758899 -144.28297337 284.26943165 -140.25073242 280.2611084 C-136.8317138 276.86194276 -133.41483601 273.46065133 -130.00067139 270.05661011 C-128.41478994 268.47712934 -126.82588904 266.90073203 -125.23681641 265.32446289 C-121.20754961 261.31540543 -117.19898342 257.31988814 -113.5 253 C-109.32920789 248.12910621 -104.7635306 243.65170969 -100.21405029 239.1388855 C-98.58766731 237.52546486 -96.96460304 235.90876729 -95.34228516 234.29125977 C-91.31536577 230.27758899 -87.28297337 226.26943165 -83.25073242 222.2611084 C-79.8317138 218.86194276 -76.41483601 215.46065133 -73.00067139 212.05661011 C-71.41478994 210.47712934 -69.82588904 208.90073203 -68.23681641 207.32446289 C-64.21211809 203.31995172 -60.20735412 199.32963977 -56.51367188 195.01367188 C-52.28162404 190.07134587 -47.64449939 185.53291486 -43.02885437 180.95368958 C-41.36886941 179.30666117 -39.71219765 177.65636048 -38.05627441 176.00524902 C-33.94587777 171.90810448 -29.83000966 167.81647096 -25.71429443 163.72467041 C-22.22481779 160.25504276 -18.73747892 156.78329203 -15.25285339 153.30879211 C-13.63373229 151.69607417 -12.01159216 150.08643782 -10.38928223 148.47692871 C-5.68511024 143.79576353 -1.1207937 139.06500319 3.19616699 134.01977539 C6.65096937 130.15138803 10.3968887 126.5665665 14.10449219 122.94260406 C16.11071085 120.97908096 18.10707825 119.0056596 20.10421753 117.03290939 C23.80610193 113.37652256 27.51209112 109.72450622 31.23388672 106.08837891 C33.83977075 103.54173299 36.43340487 100.98316886 39.01925659 98.4161911 C40.00360197 97.44359697 40.99246904 96.47555727 41.98587036 95.51221466 C43.36650176 94.17239789 44.73057823 92.81558461 46.09375 91.45800781 C46.87427734 90.69159973 47.65480469 89.92519165 48.45898438 89.13555908 C50.23271486 87.15242595 50.23271486 87.15242595 49.87207031 84.89007568 C44.33161694 72.8820116 29.54460976 63.59074221 17.9375 58.9375 C12.03250475 56.76965873 8.71298397 55.84766963 3.96278381 60.52842712 Z " fill="#000000" transform="translate(738,85)"/>
</svg>
