<?xml version="1.0" encoding="UTF-8"?>
<svg version="1.1" xmlns="http://www.w3.org/2000/svg" width="64" height="64">
<path d="M0 0 C6.56137894 3.34553569 12.82484872 7.14110292 17.25317383 13.17578125 C17.6630957 13.71074219 18.07301758 14.24570312 18.49536133 14.796875 C19.78631479 17.63583018 19.74927845 19.65225333 19.37817383 22.73828125 C13.65497261 31.88127184 3.71518599 38.88393209 -6.62182617 41.73828125 C-16.9681828 42.95383681 -24.98981204 40.62954422 -33.30932617 34.48828125 C-43.7172428 25.83970996 -43.7172428 25.83970996 -45.49682617 19.73828125 C-43.09750649 11.51204233 -34.63856119 5.55232795 -27.44213867 1.515625 C-18.46863774 -3.06973537 -9.39108824 -4.40833795 0 0 Z M-31.62182617 14.73828125 C-34.10918531 17.40083102 -34.10918531 17.40083102 -35.62182617 19.73828125 C-29.16290298 26.3817451 -21.43126079 33.53808871 -11.62182617 33.73828125 C-3.12811171 32.05891565 4.66171627 27.2003637 10.37817383 20.73828125 C7.83272418 14.57775153 1.75098644 11.13405338 -3.80932617 7.86328125 C-14.20651056 3.7044075 -23.31813649 7.97356461 -31.62182617 14.73828125 Z " fill="#000000" transform="translate(44.621826171875,12.26171875)"/>
<path d="M0 0 C3.0717718 1.71077974 5.40485654 3.80971307 7 7 C7.58118751 11.76383201 7.45088085 15.14488114 5.1875 19.4375 C2.90277746 22.11388926 1.2738156 23.7917169 -2.26953125 24.37109375 C-6.75791286 24.48830187 -9.98845813 24.56577717 -13.5625 21.625 C-16.78373175 18.1559812 -17.15395113 16.61632402 -17.1875 12 C-17.20167969 11.113125 -17.21585938 10.22625 -17.23046875 9.3125 C-17 7 -17 7 -15 5 C-13.68 6.32 -12.36 7.64 -11 9 C-10.34 8.67 -9.68 8.34 -9 8 C-8.34444881 5.47266765 -8.34444881 5.47266765 -8 3 C-9.32 2.67 -10.64 2.34 -12 2 C-7.97818385 -0.68121076 -4.72763609 -0.81344335 0 0 Z " fill="#000000" transform="translate(37,20)"/>
</svg>
