<?xml version="1.0" encoding="UTF-8"?>
<svg version="1.1" xmlns="http://www.w3.org/2000/svg" width="980" height="980">
<path d="M0 0 C0.5475293 0.43038574 1.09505859 0.86077148 1.65917969 1.30419922 C17.92028637 14.12171723 32.79973268 29.28267869 45 46 C45.72445313 46.9178125 46.44890625 47.835625 47.1953125 48.78125 C80.90597296 91.79556944 100.93240594 148.76885659 101.203125 203.44140625 C101.21018463 204.39887253 101.21724426 205.35633881 101.22451782 206.34281921 C101.45647796 247.05511944 101.45647796 247.05511944 98 266 C97.80664062 267.06911621 97.61328125 268.13823242 97.4140625 269.23974609 C92.94609742 293.00339059 85.71335723 316.29266529 75 338 C74.56316895 338.89138672 74.12633789 339.78277344 73.67626953 340.70117188 C64.34202857 359.58114019 53.40230181 376.76595965 40 393 C39.54189941 393.56106445 39.08379883 394.12212891 38.61181641 394.70019531 C27.36952948 408.41601982 15.01571898 421.11120566 1 432 C-0.06734375 432.90298828 -0.06734375 432.90298828 -1.15625 433.82421875 C-43.44313034 469.33626439 -101.93364703 491.76407419 -157.23828125 492.23828125 C-158.66423111 492.25304001 -158.66423111 492.25304001 -160.11898804 492.26809692 C-236.80145777 492.89782505 -306.9789177 468.07435085 -362.22265625 414.01367188 C-368.94173413 407.33855058 -375.19722368 400.49569639 -381 393 C-381.86361102 391.93565052 -382.72962678 390.8732491 -383.59765625 389.8125 C-416.15614464 349.72807398 -434.62294058 300.93427444 -441 250 C-441.1045752 249.19264404 -441.20915039 248.38528809 -441.31689453 247.5534668 C-442.42160163 237.56663795 -442.24394961 227.47201746 -442.25 217.4375 C-442.25067474 216.43345123 -442.25134949 215.42940247 -442.25204468 214.39492798 C-442.23534609 198.73804873 -441.71412307 183.45790209 -439 168 C-438.82307617 166.9879248 -438.64615234 165.97584961 -438.46386719 164.93310547 C-433.68002966 138.49806547 -425.60645477 112.63485196 -412.98242188 88.86328125 C-412.01249396 87.0236963 -411.07379829 85.17095504 -410.140625 83.3125 C-402.44388236 68.1757065 -392.70172757 54.16062086 -382 41 C-381.57348145 40.47051758 -381.14696289 39.94103516 -380.70751953 39.39550781 C-368.73009829 24.63171846 -355.20301322 10.45579165 -340 -1 C-338.80396443 -1.93527398 -337.60871028 -2.87154775 -336.4140625 -3.80859375 C-305.89201291 -27.5034432 -270.45094255 -43.83952111 -233 -53 C-232.15195801 -53.20850586 -231.30391602 -53.41701172 -230.43017578 -53.63183594 C-150.12011994 -72.8002252 -63.91666089 -51.22269949 0 0 Z " fill="#F2E382" transform="translate(659,258)"/>
<path d="M0 0 C0.99 0 1.98 0 3 0 C5.65385241 30.42452229 4.83551402 62.12450785 -6 91 C-5.29617187 90.43152344 -4.59234375 89.86304688 -3.8671875 89.27734375 C13.03092602 76.0632837 32.30806463 69.13891041 53.75 68.25 C55.22750732 68.18752075 55.22750732 68.18752075 56.73486328 68.1237793 C70.31354085 67.69721833 83.78552498 68.83653477 97 72 C95.66667905 75.99996286 93.5042173 76.83782337 90 79 C92.31 79.66 94.62 80.32 97 81 C95.80475854 84.58572439 94.97575099 84.92904544 91.8359375 86.85546875 C90.9687207 87.39155762 90.10150391 87.92764648 89.20800781 88.47998047 C88.27311523 89.04346191 87.33822266 89.60694336 86.375 90.1875 C85.41948242 90.76902832 84.46396484 91.35055664 83.47949219 91.94970703 C73.66718524 97.87694649 63.9828094 103.52570554 53.26245117 107.63305664 C45.83066912 110.48082378 40.37782247 112.9478592 36 120 C37.98 120 39.96 120 42 120 C37.95042281 128.83687747 29.51188156 135.67073973 22.75 142.4375 C21.87214844 143.32759766 20.99429688 144.21769531 20.08984375 145.13476562 C14.04174308 151.1961491 7.7063393 156.68220081 1 162 C-0.19282819 162.97612955 -1.38446257 163.95372222 -2.57421875 164.93359375 C-21.03816732 179.78351977 -42.38770584 194.10204302 -67 193 C-66.01 190.03 -65.02 187.06 -64 184 C-67.30664847 185.65332423 -68.21945116 189.27627021 -69.75 192.5 C-76.45950196 206.24017907 -76.45950196 206.24017907 -80 210 C-80.99 210 -81.98 210 -83 210 C-94.4543655 191.00921101 -99.43545714 173.70585841 -99.3125 151.375 C-99.31034485 150.6696814 -99.3081897 149.96436279 -99.30596924 149.2376709 C-99.25219971 138.25563425 -98.73785447 127.67591053 -96 117 C-95.80132324 116.21302734 -95.60264648 115.42605469 -95.39794922 114.61523438 C-91.39752583 99.23682775 -85.13604666 85.14523026 -78 71 C-77.01 71 -76.02 71 -75 71 C-70.46618985 80.42434141 -66.49253731 89.80197358 -63.625 99.875 C-63.38700684 100.70475342 -63.14901367 101.53450684 -62.90380859 102.3894043 C-59.67235959 114.21203443 -58.69736063 125.48774122 -58.79418945 137.68188477 C-58.81249708 140.06212091 -58.81469794 142.44196613 -58.81445312 144.82226562 C-58.83376088 152.93057493 -59.03664699 160.93732284 -60 169 C-59.54044922 168.30970703 -59.08089844 167.61941406 -58.60742188 166.90820312 C-43.54356578 144.62074353 -20.21600323 128.85967681 5 120 C3.35451172 119.81824219 3.35451172 119.81824219 1.67578125 119.6328125 C0.22131177 119.46390637 -1.23311304 119.29461519 -2.6875 119.125 C-3.40873047 119.04636719 -4.12996094 118.96773438 -4.87304688 118.88671875 C-8.88515932 118.4103949 -12.29975512 117.73699858 -16 116 C-15.47731534 113.23723823 -14.89130413 110.6739124 -14 108 C-17.36081523 109.12027174 -17.97429735 109.93402422 -20.125 112.625 C-25.30350209 118.72315151 -31.52209439 123.97322868 -39 127 C-39.99 127 -40.98 127 -42 127 C-42.81871381 124.31425618 -43.63008988 121.6266428 -44.4375 118.9375 C-44.66759766 118.18533203 -44.89769531 117.43316406 -45.13476562 116.65820312 C-52.33909657 92.53935604 -47.38242634 66.67721119 -35.83007812 44.78271484 C-28.63628204 31.99275966 -19.40511168 20.57989669 -9.5625 9.75 C-9.06637207 9.20061768 -8.57024414 8.65123535 -8.05908203 8.08520508 C-5.58464481 5.42364329 -3.41890024 3.32553106 0 2 C0 1.34 0 0.68 0 0 Z M-8 92 C-7 94 -7 94 -7 94 Z M-62 170 C-61 172 -61 172 -61 172 Z " fill="#BFA036" transform="translate(229,127)"/>
<path d="M0 0 C4.31402447 0.45893877 6.68446344 3.22950499 9.5625 6.1875 C10.34596802 6.98293213 10.34596802 6.98293213 11.14526367 7.79443359 C16.94104198 13.79717279 22.03123898 20.30796926 27 27 C27.64710938 27.86367187 28.29421875 28.72734375 28.9609375 29.6171875 C45.60881314 52.59276248 54.49235878 78.94116729 50.42578125 107.4765625 C49.30844636 114.24303156 47.75261184 120.7083158 45 127 C35.46168552 125.52605087 28.18431541 119.05554691 22 112 C21.47277344 111.26007813 20.94554687 110.52015625 20.40234375 109.7578125 C19.93957031 109.17773438 19.47679687 108.59765625 19 108 C18.34 108 17.68 108 17 108 C17.495 109.1446875 17.495 109.1446875 18 110.3125 C19 113 19 113 19 116 C14.61753424 118.05725217 10.43905642 118.60695721 5.6875 119.125 C4.94693359 119.21136719 4.20636719 119.29773438 3.44335938 119.38671875 C1.62961565 119.59734705 -0.18510543 119.79952986 -2 120 C-0.99582031 120.42410156 0.00835938 120.84820312 1.04296875 121.28515625 C24.12497437 131.13404647 43.35815195 143.12244842 59 163 C60.01564739 164.23345522 61.03535334 165.46360412 62.0625 166.6875 C63.0215625 167.8321875 63.0215625 167.8321875 64 169 C63.85925049 168.40461426 63.71850098 167.80922852 63.57348633 167.19580078 C61.88179631 159.17798041 61.66066365 151.30431886 61.68432617 143.15039062 C61.68746619 140.89923678 61.66401643 138.64942812 61.63867188 136.3984375 C61.53646627 113.03672335 68.11668381 91.96832592 78 71 C78.99 71 79.98 71 81 71 C93.9887273 96.66698275 102.22556747 121.54993628 102.25 150.5 C102.25067474 151.21620514 102.25134949 151.93241028 102.25204468 152.6703186 C102.22025694 173.87808534 97.95730736 192.06403896 86 210 C85.01 210 84.02 210 83 210 C81.69726562 208.45874023 81.69726562 208.45874023 80.40625 206.30859375 C79.93316406 205.52806641 79.46007812 204.74753906 78.97265625 203.94335938 C78.48667969 203.11642578 78.00070312 202.28949219 77.5 201.4375 C77.01402344 200.63763672 76.52804687 199.83777344 76.02734375 199.01367188 C73.86773184 195.40941495 71.86614073 191.86818227 70.28125 187.97265625 C69.33503583 184.89903109 69.33503583 184.89903109 67 184 C67.99 186.97 68.98 189.94 70 193 C41.32570071 194.26504262 15.96035707 174.44333069 -4.46142578 156.359375 C-5.77619565 155.19773764 -7.10364384 154.05047656 -8.43359375 152.90625 C-14.49651777 147.61038569 -20.17329921 141.9292342 -25.875 136.25 C-26.70862061 135.42105225 -27.54224121 134.59210449 -28.40112305 133.73803711 C-29.19429932 132.94276611 -29.98747559 132.14749512 -30.8046875 131.328125 C-31.87178955 130.25933105 -31.87178955 130.25933105 -32.96044922 129.16894531 C-39 122.74622935 -39 122.74622935 -39 120 C-37.02 120 -35.04 120 -33 120 C-38.12952443 112.85073228 -43.47831959 109.95299603 -51.5625 106.8125 C-64.10275252 101.63720181 -75.54797215 95.24038537 -87 88 C-87.94286865 87.42548096 -87.94286865 87.42548096 -88.90478516 86.83935547 C-92.88422035 84.34733895 -92.88422035 84.34733895 -94 81 C-90.535 80.01 -90.535 80.01 -87 79 C-87.969375 78.401875 -88.93875 77.80375 -89.9375 77.1875 C-93 75 -93 75 -94 72 C-63.49024008 65.48852104 -30.39017555 65.43899038 -3 82 C1.1747587 84.7791747 5.11871061 87.82439959 9 91 C8.60167969 89.77667969 8.20335937 88.55335938 7.79296875 87.29296875 C-1.27900411 58.73326597 -2.35456672 29.72640488 0 0 Z M10 92 C11 94 11 94 11 94 Z " fill="#D0B650" transform="translate(745,127)"/>
<path d="M0 0 C0.66 0 1.32 0 2 0 C5.25154443 9.7546333 4.1862857 21.32193542 4.18530273 31.52416992 C4.18747521 34.0338678 4.20565863 36.54311455 4.22460938 39.05273438 C4.27596385 53.66630367 3.40760074 68.37809546 0.25 82.6875 C0.08153564 83.4616626 -0.08692871 84.2358252 -0.26049805 85.03344727 C-3.18863746 97.79335278 -8.04749833 108.92962543 -15 120 C-15.33 120.66 -15.66 121.32 -16 122 C-15.25621094 121.63648438 -14.51242187 121.27296875 -13.74609375 120.8984375 C18.4695188 106.06480244 59.0259961 102.41602862 94 107 C94.66 107.33 95.32 107.66 96 108 C94.60667426 111.36720387 93.0210714 112.9859524 90 115 C92.97 115.495 92.97 115.495 96 116 C95.14413924 120.8711224 91.96485168 122.9413108 88.25 125.875 C87.54190186 126.43944824 86.83380371 127.00389648 86.10424805 127.58544922 C52.34046075 154.03587278 12.46267181 174.17724981 -31.47241211 169.11914062 C-38.98145608 168.06852692 -45.94202933 165.72741639 -53 163 C-52.30621489 159.73988358 -51.54106009 158.20961747 -49 156 C-50.32 155.34 -51.64 154.68 -53 154 C-52.29014386 149.75008209 -50.20150883 148.05100674 -47.08203125 145.26953125 C-45.58598355 142.13161171 -46.57810846 140.04406334 -47.42944336 136.79907227 C-48.61701748 130.97299727 -48.39256179 124.98765337 -48.375 119.0625 C-48.37445618 118.37402985 -48.37391235 117.68555969 -48.37335205 116.97622681 C-48.33298773 105.85553387 -47.32074678 95.64341916 -44 85 C-43.59490859 83.58728072 -43.18996373 82.17451941 -42.78515625 80.76171875 C-34.87626804 54.34840182 -20.80125866 29.45844753 -5 7 C-4.49855469 6.25363281 -3.99710938 5.50726562 -3.48046875 4.73828125 C-2.37657784 3.11902917 -1.19827369 1.55070713 0 0 Z " fill="#CBB048" transform="translate(742,646)"/>
<path d="M0 0 C4.09901065 1.36633688 5.38910553 4.14334354 7.625 7.625 C8.28749756 8.64098267 8.28749756 8.64098267 8.96337891 9.67749023 C13.49629233 16.67796279 17.83531124 23.77500724 22 31 C22.46164551 31.79229004 22.92329102 32.58458008 23.39892578 33.40087891 C38.1385694 58.85849499 50.18877532 86.39770593 50.18530273 116.20288086 C50.1874831 118.29627002 50.20565773 120.38912607 50.22460938 122.48242188 C50.265798 133.73060048 50.265798 133.73060048 48.77734375 139.20703125 C47.60252997 142.89587667 47.60252997 142.89587667 49.3359375 145.5234375 C50.00882813 146.13445312 50.68171875 146.74546875 51.375 147.375 C52.62121312 148.54422698 53.83786947 149.7471666 55 151 C55 151.99 55 152.98 55 154 C53.68 154.33 52.36 154.66 51 155 C51.99 156.1446875 51.99 156.1446875 53 157.3125 C55 160 55 160 55 163 C25.34118633 174.46107549 -5.53042353 170.4724632 -34.32080078 158.19335938 C-54.08649055 149.38939623 -71.27537259 137.59140607 -88 124 C-88.57073242 123.56268555 -89.14146484 123.12537109 -89.72949219 122.67480469 C-91.20777516 121.51657128 -92.61097051 120.2638917 -94 119 C-94 118.01 -94 117.02 -94 116 C-91.03 115.505 -91.03 115.505 -88 115 C-88.99 114.21625 -89.98 113.4325 -91 112.625 C-91.99 111.75875 -92.98 110.8925 -94 110 C-94 109.34 -94 108.68 -94 108 C-70.98140875 96.49070437 -22.57692567 107.63383088 0.62109375 114.93359375 C6.57738746 116.92728042 12.32651614 119.31256027 18 122 C17.48050781 121.14019531 16.96101563 120.28039062 16.42578125 119.39453125 C0.82008969 93.15387765 -2.15222313 64.50535842 -2.1875 34.5625 C-2.18867828 33.79041199 -2.18985657 33.01832397 -2.19107056 32.22283936 C-2.18683849 7.73478007 -2.18683849 7.73478007 0 0 Z " fill="#C1A339" transform="translate(233,646)"/>
<path d="M0 0 C1.09804247 35.95072386 -7.63939004 72.81489974 -32.640625 99.6953125 C-34.97972454 101.9801945 -37.43484675 103.97630811 -40 106 C-39.0205542 105.98428955 -38.0411084 105.9685791 -37.03198242 105.95239258 C2.45231166 105.377498 39.17176376 110.12005804 77 122 C77 122.99 77 123.98 77 125 C74.03 125.99 71.06 126.98 68 128 C70.97 128.99 73.94 129.98 77 131 C77 131.99 77 132.98 77 134 C31.05288842 149.34305333 -25.5224577 164.86866317 -71.75 142.0625 C-77.10302108 139.30306269 -81.73262074 136.26737926 -86 132 C-84.25 128.125 -84.25 128.125 -82 127 C-83.32 126.01 -84.64 125.02 -86 124 C-85.75390625 122.140625 -85.75390625 122.140625 -85 120 C-83.15234375 118.734375 -83.15234375 118.734375 -80.9375 117.75 C-79.83728516 117.24726562 -79.83728516 117.24726562 -78.71484375 116.734375 C-78.14894531 116.49203125 -77.58304688 116.2496875 -77 116 C-77.02094727 115.37134033 -77.04189453 114.74268066 -77.06347656 114.0949707 C-77.74715388 90.44103361 -77.74715388 90.44103361 -73 80 C-72.47535156 78.83984375 -71.95070313 77.6796875 -71.41015625 76.484375 C-64.06283147 61.24063711 -52.74757224 48.02966962 -41 36 C-40.25766113 35.23719727 -39.51532227 34.47439453 -38.75048828 33.68847656 C-21.04862002 15.56769063 -21.04862002 15.56769063 -12.26953125 8.765625 C-9.22726943 6.39883956 -6.39849061 3.81857455 -3.55859375 1.21484375 C-2 0 -2 0 0 0 Z " fill="#DFCA67" transform="translate(683,719)"/>
<path d="M0 0 C3.86748362 1.64553991 6.84930361 4.22154432 10 6.9375 C10.57613037 7.4312915 11.15226074 7.92508301 11.74584961 8.43383789 C29.09247051 23.37946014 46.83771297 39.14516268 60 58 C60.40250977 58.57411621 60.80501953 59.14823242 61.21972656 59.73974609 C70.91458758 73.75673838 77.39204218 87.13111256 77.125 104.4375 C77.11597656 105.55060547 77.10695313 106.66371094 77.09765625 107.81054688 C77.0742224 110.54059023 77.041414 113.2701801 77 116 C77.56589844 116.24234375 78.13179687 116.4846875 78.71484375 116.734375 C79.44832031 117.06953125 80.18179688 117.4046875 80.9375 117.75 C81.66839844 118.07484375 82.39929688 118.3996875 83.15234375 118.734375 C85 120 85 120 85.875 122 C86 124 86 124 84.0625 126.25 C83.381875 126.8275 82.70125 127.405 82 128 C83.32 128.66 84.64 129.32 86 130 C86 130.99 86 131.98 86 133 C66.774457 150.92358749 35.73410372 153.68143006 10.8125 152.875 C-19.56002155 151.46958166 -48.3128965 143.57944349 -77 134 C-77 133.01 -77 132.02 -77 131 C-74.03 130.01 -71.06 129.02 -68 128 C-70.97 126.68 -73.94 125.36 -77 124 C-76 122 -76 122 -74.23535156 121.22558594 C-36.37124427 109.25604931 0.52877052 105.36687589 40 106 C39.26031982 105.34338379 38.52063965 104.68676758 37.75854492 104.01025391 C36.77990479 103.13288574 35.80126465 102.25551758 34.79296875 101.3515625 C33.82641357 100.48869629 32.8598584 99.62583008 31.86401367 98.73681641 C10.91673147 78.71984995 0.81558006 43.89724784 -0.07714844 15.55029297 C-0.1584388 10.36456251 -0.1080196 5.18494097 0 0 Z " fill="#D3BA55" transform="translate(294,719)"/>
<path d="M0 0 C0.99 0.33 1.98 0.66 3 1 C4.16333008 3.47070313 4.16333008 3.47070313 5.26953125 6.78125 C5.88622681 8.61429688 5.88622681 8.61429688 6.51538086 10.484375 C6.94909204 11.82248369 7.38143292 13.16103719 7.8125 14.5 C8.14340134 15.51223633 8.14340134 15.51223633 8.48098755 16.54492188 C11.44086116 25.61698611 14.16520774 34.72826945 16.4375 44 C16.65962158 44.89009766 16.88174316 45.78019531 17.1105957 46.69726562 C21.09550721 63.87999585 22.50320847 81.15251968 22.39111328 98.75146484 C22.37492933 101.76315022 22.39113532 104.77350912 22.41015625 107.78515625 C22.42583956 122.29132993 21.18080806 136.05792386 17 150 C10.61479646 149.84036991 7.33991635 146.21875117 3 142 C3.48210937 142.99 3.96421875 143.98 4.4609375 145 C5.09934623 146.33314765 5.73734513 147.66649161 6.375 149 C6.69210938 149.64839844 7.00921875 150.29679688 7.3359375 150.96484375 C9.52787631 155.57704833 10.89773948 160.01199281 12 165 C11.34 165.33 10.68 165.66 10 166 C10.66 168.64 11.32 171.28 12 174 C-20.79268782 175.92583485 -51.98140579 159.63528023 -76.01171875 138.51171875 C-83.38608504 131.87642542 -90.03539484 124.94925017 -96 117 C-96.44327637 116.4210498 -96.88655273 115.84209961 -97.34326172 115.24560547 C-103.27013064 107.49849965 -108.67248168 99.78285364 -113 91 C-111.02 90.505 -111.02 90.505 -109 90 C-110.32 87.36 -111.64 84.72 -113 82 C-109.87523643 80.95841214 -108.77715145 81.01829542 -105.6328125 81.56640625 C-104.75802246 81.71883789 -103.88323242 81.87126953 -102.98193359 82.02832031 C-102.03914551 82.20459961 -101.09635742 82.38087891 -100.125 82.5625 C-98.65474365 82.83658691 -98.65474365 82.83658691 -97.15478516 83.11621094 C-63.23408726 89.69694598 -31.98488581 102.55328142 -8 128 C-8.50660156 126.49373047 -8.50660156 126.49373047 -9.0234375 124.95703125 C-9.47448665 123.57569323 -9.92497673 122.19417258 -10.375 120.8125 C-10.59671875 120.15830078 -10.8184375 119.50410156 -11.046875 118.83007812 C-14.75495739 107.32411658 -15.37989292 95.63769872 -15.3125 83.625 C-15.30926727 82.58036087 -15.30926727 82.58036087 -15.30596924 81.51461792 C-15.16690032 53.3057341 -8.95820911 26.65226044 0 0 Z " fill="#BD9E32" transform="translate(195,564)"/>
<path d="M0 0 C0.66 0 1.32 0 2 0 C7.38714877 16.49676269 11.9981189 32.89730413 15 50 C15.19698486 51.07677002 15.19698486 51.07677002 15.39794922 52.17529297 C19.73133105 76.78379651 18.87827654 104.61002272 10 128 C10.71542969 127.23816406 11.43085937 126.47632813 12.16796875 125.69140625 C19.15092922 118.39632501 26.37547673 112.33371355 35 107 C35.59232422 106.6277832 36.18464844 106.25556641 36.79492188 105.87207031 C56.63728478 93.55720699 79.13213888 86.8994952 101.9375 82.625 C102.89197021 82.44485352 103.84644043 82.26470703 104.82983398 82.07910156 C105.72001221 81.92151367 106.61019043 81.76392578 107.52734375 81.6015625 C108.31874756 81.46057129 109.11015137 81.31958008 109.92553711 81.17431641 C112 81 112 81 115 82 C113.68 84.64 112.36 87.28 111 90 C112.32 90.33 113.64 90.66 115 91 C97.32878472 126.19876215 65.3718502 155.63113065 27.9375 168.3125 C15.31135811 172.38510121 3.30862378 174.55367156 -10 174 C-9.01 171.03 -8.02 168.06 -7 165 C-7.99 164.67 -8.98 164.34 -10 164 C-9.06666423 161.45673553 -8.12848392 158.91543412 -7.1875 156.375 C-6.92646484 155.66214844 -6.66542969 154.94929687 -6.39648438 154.21484375 C-4.83035219 149.99982134 -3.09518176 145.98902474 -1 142 C-1.50789062 142.49371094 -2.01578125 142.98742187 -2.5390625 143.49609375 C-3.22742188 144.13675781 -3.91578125 144.77742187 -4.625 145.4375 C-5.29789063 146.07558594 -5.97078125 146.71367188 -6.6640625 147.37109375 C-9.44828823 149.31260232 -11.65617653 149.65986896 -15 150 C-15.65058529 147.16768453 -16.29556713 144.33427799 -16.9375 141.5 C-17.11990234 140.70851563 -17.30230469 139.91703125 -17.49023438 139.1015625 C-17.66748047 138.31523438 -17.84472656 137.52890625 -18.02734375 136.71875 C-18.18968506 136.00654297 -18.35202637 135.29433594 -18.51928711 134.56054688 C-19.7893756 127.79534218 -20.17759261 121.19005953 -20.23828125 114.32421875 C-20.2480751 113.40958862 -20.25786896 112.4949585 -20.26795959 111.5526123 C-20.439502 91.36376866 -20.29167193 71.82061819 -16 52 C-15.79101074 51.0095166 -15.58202148 50.0190332 -15.36669922 48.99853516 C-6.07094332 6.07094332 -6.07094332 6.07094332 0 0 Z " fill="#BFA035" transform="translate(780,564)"/>
<path d="M0 0 C26.75850873 3.4184879 52.58180505 16.82512843 73 34 C73.61101562 34.47695313 74.22203125 34.95390625 74.8515625 35.4453125 C84.135584 42.86405114 91.66960366 53.41182853 97 64 C97 65.32 97 66.64 97 68 C96.01 68.495 96.01 68.495 95 69 C95.33 69.598125 95.66 70.19625 96 70.8125 C97 73 97 73 97 76 C98.6396875 76.2165625 98.6396875 76.2165625 100.3125 76.4375 C104 77 104 77 107 78 C106.690625 78.763125 106.38125 79.52625 106.0625 80.3125 C105.32106407 82.18789677 104.63771783 84.08684652 104 86 C104.99 86.33 105.98 86.66 107 87 C101.75019612 102.26231642 83.73355899 112.14434981 70 119 C47.41332154 129.52390293 21.6688132 134.18476854 -3.15234375 134.1328125 C-4.17429337 134.13376923 -5.19624298 134.13472595 -6.24916077 134.13571167 C-8.38949648 134.13638731 -10.52983432 134.13457639 -12.67016602 134.13037109 C-15.95268285 134.12497504 -19.23506527 134.13035682 -22.51757812 134.13671875 C-24.60416697 134.13605862 -26.69075573 134.1347788 -28.77734375 134.1328125 C-30.24916359 134.13584885 -30.24916359 134.13584885 -31.75071716 134.13894653 C-33.11342491 134.13421829 -33.11342491 134.13421829 -34.50366211 134.12939453 C-35.30178818 134.12859894 -36.09991425 134.12780334 -36.92222595 134.12698364 C-39 134 -39 134 -42 133 C-40.54744301 129.17053157 -38.57104439 127.87949705 -35 126 C-38.96 125.505 -38.96 125.505 -43 125 C-41.50613417 120.35719397 -37.60419405 118.44174208 -33.6875 116 C-32.93404297 115.52361084 -32.18058594 115.04722168 -31.40429688 114.55639648 C-5.2121221 98.15956054 21.61869103 85.43596301 51 76 C50.20988525 75.62488281 49.41977051 75.24976563 48.60571289 74.86328125 C23.8776749 62.86293766 10.01697482 40.66808254 0.69702148 15.43432617 C0 13 0 13 0 9 C0.66 9 1.32 9 2 9 C1.505 7.88625 1.505 7.88625 1 6.75 C0 4 0 4 0 0 Z " fill="#E5D372" transform="translate(371,774)"/>
<path d="M0 0 C-0.875 6.75 -0.875 6.75 -2 9 C-1.34 9 -0.68 9 0 9 C-1.96391387 29.25790607 -16.07279824 50.66108892 -31 64 C-37.16319515 69.04147937 -43.61602198 73.0167617 -51 76 C-50.28384521 76.22437744 -49.56769043 76.44875488 -48.82983398 76.67993164 C-21.18893779 85.46610837 4.54531548 97.31665538 29 113 C30.26922286 113.79346226 31.53873676 114.58645924 32.80859375 115.37890625 C41.38576629 120.86465971 41.38576629 120.86465971 43 125 C40.36 125.33 37.72 125.66 35 126 C35.5053125 126.33773437 36.010625 126.67546875 36.53125 127.0234375 C37.50578125 127.69246094 37.50578125 127.69246094 38.5 128.375 C39.47453125 129.03628906 39.47453125 129.03628906 40.46875 129.7109375 C41.22671875 130.34902344 41.22671875 130.34902344 42 131 C42 131.66 42 132.32 42 133 C39.24059629 133.91980124 37.53267734 134.14029566 34.68164062 134.17700195 C33.80709732 134.18965591 32.93255402 134.20230988 32.0315094 134.21534729 C31.0826738 134.2229155 30.1338382 134.2304837 29.15625 134.23828125 C28.16741318 134.24798447 27.17857635 134.25768768 26.15977478 134.26768494 C22.93980908 134.29274763 19.72005371 134.30523253 16.5 134.3125 C14.86431564 134.31642761 14.86431564 134.31642761 13.19558716 134.32043457 C-3.56701088 134.32476371 -19.57848136 133.61612923 -36 130 C-37.10577393 129.76772705 -37.10577393 129.76772705 -38.23388672 129.53076172 C-42.57983142 128.59303458 -46.77837978 127.3888718 -51 126 C-52.10432373 125.63865967 -52.10432373 125.63865967 -53.23095703 125.27001953 C-73.13507272 118.65152616 -93.38588461 108.45156741 -106 91 C-106.734375 88.7109375 -106.734375 88.7109375 -107 87 C-105.515 86.505 -105.515 86.505 -104 86 C-104.309375 85.4225 -104.61875 84.845 -104.9375 84.25 C-105.92583364 82.15705816 -106.5168613 80.25464725 -107 78 C-103.38026598 76.68373308 -100.90432869 76 -97 76 C-96.34 73.69 -95.68 71.38 -95 69 C-95.66 68.67 -96.32 68.34 -97 68 C-95.56901107 56.028556 -86.02571511 47.30487042 -78 39 C-77.29617188 38.24460937 -76.59234375 37.48921875 -75.8671875 36.7109375 C-71.05871749 31.66885761 -65.86620814 27.74210401 -60 24 C-59.42169434 23.62617187 -58.84338867 23.25234375 -58.24755859 22.8671875 C-42.2554177 12.63221733 -19.5204732 0 0 0 Z " fill="#EEDE7E" transform="translate(606,774)"/>
<path d="M0 0 C4.39364841 1.53653111 8.10332537 3.84963161 11.9375 6.4375 C12.59427734 6.8806958 13.25105469 7.3238916 13.92773438 7.78051758 C38.43586238 24.51970999 62.20704524 46.56123784 69.52734375 76.47265625 C70.73359319 82.92260159 71.1556644 89.08326036 71.125 95.625 C71.12886719 96.45773438 71.13273438 97.29046875 71.13671875 98.1484375 C71.13022094 102.22905986 71.02346367 106.01986352 70 110 C60.03640367 109.80072807 50.45081357 104.35634378 43 98 C42.01 98.495 42.01 98.495 41 99 C42.32 100.32 43.64 101.64 45 103 C39.16588416 110.56274275 29.24866279 112.86516016 20.1875 114.3125 C-9.40146566 117.45576091 -39.04718224 112.87694092 -68 107 C-69.66658937 106.6662804 -71.33323216 106.33282706 -73 106 C-73 105.01 -73 104.02 -73 103 C-70.69 101.68 -68.38 100.36 -66 99 C-68.31 98.34 -70.62 97.68 -73 97 C-73 96.01 -73 95.02 -73 94 C-63.27796996 88.47788694 -53.63742136 83.52263822 -43 80 C-42.16573486 79.72212646 -41.33146973 79.44425293 -40.47192383 79.15795898 C-30.13537823 75.88395387 -20.14196528 74.6105178 -9.3125 74.625 C-8.17780273 74.62516113 -7.04310547 74.62532227 -5.87402344 74.62548828 C3.2986564 74.74944341 11.31243613 76.06848214 20 79 C21.69382812 79.56074219 21.69382812 79.56074219 23.421875 80.1328125 C24.27265625 80.41898437 25.1234375 80.70515625 26 81 C25.443125 80.12601562 24.88625 79.25203125 24.3125 78.3515625 C9.88193383 55.29451219 -0.95102437 27.57970668 0 0 Z " fill="#E2CF6C" transform="translate(654,81)"/>
<path d="M0 0 C-0.12568359 0.92232422 -0.12568359 0.92232422 -0.25390625 1.86328125 C-0.35574219 2.67152344 -0.45757812 3.47976562 -0.5625 4.3125 C-0.66691406 5.11300781 -0.77132812 5.91351563 -0.87890625 6.73828125 C-1.14755178 9.16817116 -1.14755178 9.16817116 0 12 C-3.29973182 36.40831037 -11.96662104 60.69545482 -26 81 C-24.37191406 80.47599609 -24.37191406 80.47599609 -22.7109375 79.94140625 C-21.26569339 79.48155585 -19.82037703 79.02193245 -18.375 78.5625 C-17.66214844 78.33240234 -16.94929688 78.10230469 -16.21484375 77.86523438 C-15.16103516 77.53168945 -15.16103516 77.53168945 -14.0859375 77.19140625 C-13.1276001 76.88505249 -13.1276001 76.88505249 -12.14990234 76.57250977 C4.35169469 72.17820531 23.84508779 73.93095445 40 79 C40.67144043 79.20898926 41.34288086 79.41797852 42.03466797 79.63330078 C52.99120032 83.16212362 62.96943165 88.41366862 73 94 C73 94.99 73 95.98 73 97 C69.535 97.99 69.535 97.99 66 99 C68.31 100.32 70.62 101.64 73 103 C73 103.99 73 104.98 73 106 C57.06111154 109.21795196 41.15672823 112.12457158 25 114 C23.87464844 114.13277344 22.74929688 114.26554687 21.58984375 114.40234375 C0.86363903 116.39577319 -23.89209073 117.61149627 -42.36328125 106.58984375 C-42.90339844 106.06519531 -43.44351562 105.54054688 -44 105 C-44 101 -44 101 -42.5 99.25 C-42.005 98.8375 -41.51 98.425 -41 98 C-41.51046875 98.29132813 -42.0209375 98.58265625 -42.546875 98.8828125 C-45.01975137 100.27709386 -47.50669123 101.64257097 -50 103 C-50.98613281 103.53882813 -51.97226562 104.07765625 -52.98828125 104.6328125 C-58.77464252 107.67671792 -63.43624821 109.74754801 -70 110 C-74.74978338 90.88687167 -69.30742443 69.46997964 -59.61474609 52.83691406 C-54.36578801 44.2657521 -48.05004411 37.11925913 -41 30 C-40.35933594 29.29875 -39.71867187 28.5975 -39.05859375 27.875 C-30.20535161 18.3681628 -18.92753605 10.71722707 -8.0625 3.6875 C-7.18537354 3.11914429 -7.18537354 3.11914429 -6.29052734 2.53930664 C-2.26166307 0 -2.26166307 0 0 0 Z " fill="#CFB54E" transform="translate(323,81)"/>
<path d="M0 0 C4.31402447 0.45893877 6.68446344 3.22950499 9.5625 6.1875 C10.34596802 6.98293213 10.34596802 6.98293213 11.14526367 7.79443359 C16.94104198 13.79717279 22.03123898 20.30796926 27 27 C27.64710938 27.86367187 28.29421875 28.72734375 28.9609375 29.6171875 C45.60881314 52.59276248 54.49235878 78.94116729 50.42578125 107.4765625 C49.30844636 114.24303156 47.75261184 120.7083158 45 127 C35.46168552 125.52605087 28.18431541 119.05554691 22 112 C21.53207031 111.25492187 21.06414062 110.50984375 20.58203125 109.7421875 C19.14602626 107.76105427 19.14602626 107.76105427 16.8203125 107.828125 C15.48613281 108.03695312 15.48613281 108.03695312 14.125 108.25 C-1.15547112 110.00743917 -15.32904155 109.67336713 -30 105 C-31.47511809 104.55941903 -32.95038351 104.11933107 -34.42578125 103.6796875 C-44.86860615 100.47167317 -54.38823892 96.15140137 -64 91 C-65.31470878 90.30654154 -66.62981274 89.61383178 -67.9453125 88.921875 C-70.4729215 87.58778879 -72.99341834 86.24163525 -75.5078125 84.8828125 C-77.74530581 83.67646823 -79.98957551 82.48255931 -82.2421875 81.3046875 C-83.21414063 80.79164063 -84.18609375 80.27859375 -85.1875 79.75 C-86.44626953 79.09257812 -86.44626953 79.09257812 -87.73046875 78.421875 C-90.19293916 76.87912246 -92.02694124 75.12273908 -94 73 C-78.84003756 62.89335837 -47.0427757 67.40172698 -29.984375 70.74609375 C-15.18291545 74.22970086 -2.67354468 81.44891799 9 91 C8.60167969 89.77667969 8.20335937 88.55335938 7.79296875 87.29296875 C-1.27900411 58.73326597 -2.35456672 29.72640488 0 0 Z M10 92 C11 94 11 94 11 94 Z " fill="#D0B751" transform="translate(745,127)"/>
<path d="M0 0 C0.99 0 1.98 0 3 0 C5.65385241 30.42452229 4.83551402 62.12450785 -6 91 C-5.29617187 90.43152344 -4.59234375 89.86304688 -3.8671875 89.27734375 C13.03092602 76.0632837 32.30806463 69.13891041 53.75 68.25 C55.22750732 68.18752075 55.22750732 68.18752075 56.73486328 68.1237793 C70.31354085 67.69721833 83.78552498 68.83653477 97 72 C95.27658456 77.17024631 90.13477082 78.89967059 85.46875 81.3046875 C83.50400758 82.28153977 81.53480221 83.24944017 79.5625 84.2109375 C76.94350496 85.52617843 74.37728706 86.87564685 71.8125 88.2890625 C46.59661521 102.11949446 17.58775308 114.07393303 -11.6875 107.875 C-13.89592446 107.46233491 -13.89592446 107.46233491 -16 108 C-18.64404396 110.23244998 -20.68898826 112.6430778 -22.83984375 115.3515625 C-27.13419128 120.61660342 -32.74492696 124.38159733 -39 127 C-39.99 127 -40.98 127 -42 127 C-42.81871381 124.31425618 -43.63008988 121.6266428 -44.4375 118.9375 C-44.66759766 118.18533203 -44.89769531 117.43316406 -45.13476562 116.65820312 C-52.33909657 92.53935604 -47.38242634 66.67721119 -35.83007812 44.78271484 C-28.63628204 31.99275966 -19.40511168 20.57989669 -9.5625 9.75 C-9.06637207 9.20061768 -8.57024414 8.65123535 -8.05908203 8.08520508 C-5.58464481 5.42364329 -3.41890024 3.32553106 0 2 C0 1.34 0 0.68 0 0 Z M-8 92 C-7 94 -7 94 -7 94 Z " fill="#BE9F33" transform="translate(229,127)"/>
<path d="M0 0 C0.33 0 0.66 0 1 0 C1.10022461 0.82910889 1.20044922 1.65821777 1.30371094 2.51245117 C4.19389043 26.205697 7.42626634 49.27447363 15 72 C15.4328833 73.30855957 15.4328833 73.30855957 15.87451172 74.64355469 C27.85704404 110.37729358 46.86620864 141.99831428 72 170 C72.49209961 170.55381348 72.98419922 171.10762695 73.49121094 171.67822266 C101.95322281 203.63085863 139.94735597 228.69828144 180.58666992 242.16821289 C182.4277088 242.80275204 184.25663536 243.47254591 186.0793457 244.15795898 C194.21251806 247.19114505 202.31169233 249.45979597 210.79418945 251.25805664 C212.80403118 251.68569806 214.8091231 252.1318106 216.81445312 252.58007812 C233.80049367 256.30783449 250.28862977 257.32822359 267.65600586 257.26074219 C270.92906258 257.25002762 274.20156926 257.26069526 277.47460938 257.2734375 C294.57099455 257.28691797 310.79815645 256.1578623 327.4375 252.0625 C328.50419922 251.81048828 329.57089844 251.55847656 330.66992188 251.29882812 C375.77647824 240.53820364 418.41278547 220.04360115 452.52734375 188.28515625 C454.59860099 186.37096117 456.70914701 184.55412389 458.875 182.75 C469.52912803 173.44670211 478.5781576 162.31221397 487 151 C487.47791992 150.36255859 487.95583984 149.72511719 488.44824219 149.06835938 C520.83382705 105.5602368 537.52890202 53.71200597 542 0 C542.33 0 542.66 0 543 0 C544.58430963 38.84492499 534.12394646 79.30357109 517 114 C516.56316895 114.89138672 516.12633789 115.78277344 515.67626953 116.70117188 C506.34202857 135.58114019 495.40230181 152.76595965 482 169 C481.54189941 169.56106445 481.08379883 170.12212891 480.61181641 170.70019531 C469.36952948 184.41601982 457.01571898 197.11120566 443 208 C441.93265625 208.90298828 441.93265625 208.90298828 440.84375 209.82421875 C398.55686966 245.33626439 340.06635297 267.76407419 284.76171875 268.23828125 C283.33576889 268.25304001 283.33576889 268.25304001 281.88101196 268.26809692 C205.19854223 268.89782505 135.0210823 244.07435085 79.77734375 190.01367188 C73.05826587 183.33855058 66.80277632 176.49569639 61 169 C60.13638898 167.93565052 59.27037322 166.8732491 58.40234375 165.8125 C22.9913242 122.21617648 -0.5811144 63.34146987 -0.0625 6.8125 C-0.05347656 5.51957031 -0.04445312 4.22664063 -0.03515625 2.89453125 C-0.02355469 1.93933594 -0.01195312 0.98414063 0 0 Z " fill="#623C16" transform="translate(217,482)"/>
<path d="M0 0 C5.10778793 0.60151594 9.21404279 2.93464285 13.6875 5.3125 C14.52039551 5.75400391 15.35329102 6.19550781 16.21142578 6.65039062 C34.83225677 16.72101919 51.69518844 29.42398899 67 44 C67.71800781 44.66515625 68.43601562 45.3303125 69.17578125 46.015625 C85.53141948 61.61739614 99.34538175 84.33068841 100.0769043 107.42822266 C100.09797316 110.09876332 100.08749383 112.76700592 100.0625 115.4375 C100.05798828 116.35982422 100.05347656 117.28214844 100.04882812 118.23242188 C100.03713938 120.48835048 100.02075455 122.74413967 100 125 C93.12584989 124.55540323 87.97100912 123.09603414 81.8125 120.0625 C80.98951416 119.66353516 80.16652832 119.26457031 79.31860352 118.85351562 C67.52464569 112.96169091 57.5000293 105.11696361 48 96 C46.67742187 94.77216797 46.67742187 94.77216797 45.328125 93.51953125 C22.99882358 72.16792523 5.24697831 39.52787381 0 9 C0.66 8.67 1.32 8.34 2 8 C1.34 5.36 0.68 2.72 0 0 Z " fill="#BD9E32" transform="translate(49,517)"/>
<path d="M0 0 C-0.66 2.31 -1.32 4.62 -2 7 C-1.01 7.99 -1.01 7.99 0 9 C-9.21185962 43.18873103 -24.85479479 72.09580314 -50 97 C-50.69738281 97.69480469 -51.39476562 98.38960937 -52.11328125 99.10546875 C-64.61153441 110.93774039 -82.52482834 122.82705319 -100 124 C-100.93540037 92.12709844 -91.05724313 68.35550291 -69.2578125 45.0390625 C-62.09958185 37.56415992 -54.28202842 31.18092837 -46 25 C-45.45682129 24.58540527 -44.91364258 24.17081055 -44.35400391 23.74365234 C-33.88065924 15.75808311 -22.56271987 9.27474672 -11 3 C-10.23913086 2.57944336 -9.47826172 2.15888672 -8.69433594 1.72558594 C-3.35498836 -1.11832945 -3.35498836 -1.11832945 0 0 Z " fill="#BD9E32" transform="translate(928,518)"/>
<path d="M0 0 C17.82894771 3.83199222 36.23753066 28.64466626 45.59399414 42.8203125 C56.14150583 59.35471139 63.3756104 77.50017496 66 97 C66.11085938 97.77214844 66.22171875 98.54429687 66.3359375 99.33984375 C67.11449417 105.99965959 67.10212115 112.67857974 67.125 119.375 C67.12967285 120.33897705 67.1343457 121.3029541 67.13916016 122.29614258 C67.13706543 123.2167749 67.1349707 124.13740723 67.1328125 125.0859375 C67.13168457 125.9114209 67.13055664 126.7369043 67.12939453 127.58740234 C66.99258971 130.13816697 66.55826729 132.51024983 66 135 C45.38863293 129.66947403 29.49227192 112.51571488 18.83618164 94.93603516 C1.75500593 65.75993678 -0.68515901 33.05980076 0 0 Z " fill="#BD9E32" transform="translate(59,406)"/>
<path d="M0 0 C0.83587218 42.22226116 -4.50343858 84.23938745 -35 116 C-43.60283387 124.82117991 -54.05588262 131.76091732 -66 135 C-71.43270027 101.79533597 -62.13163594 65.86982456 -42.65625 38.66015625 C-14.04853491 0 -14.04853491 0 0 0 Z " fill="#BD9E32" transform="translate(918,406)"/>
<path d="M0 0 C0.66 0 1.32 0 2 0 C2.48640156 3.54071054 2.96269282 7.08271756 3.4375 10.625 C3.57220703 11.6046875 3.70691406 12.584375 3.84570312 13.59375 C5.62275024 26.94327465 6.20778524 40.23481824 6.1875 53.6875 C6.18659363 54.80510208 6.18659363 54.80510208 6.18566895 55.94528198 C6.12717067 82.58375395 4.23875562 113.50067068 -15 134 C-21.19633757 139.3293603 -27.48069067 144.48681768 -36 144 C-41.64322045 132.45704908 -41.40526881 120.13292417 -41.375 107.5625 C-41.37445618 106.71651245 -41.37391235 105.8705249 -41.37335205 104.99890137 C-41.33567254 92.26684407 -40.69647784 80.26251667 -37 68 C-36.67854004 66.87489014 -36.67854004 66.87489014 -36.35058594 65.72705078 C-29.82075584 43.17680054 -18.46496909 23.37670198 -4 5 C-2.94425781 3.59814453 -2.94425781 3.59814453 -1.8671875 2.16796875 C-1.25101563 1.45253906 -0.63484375 0.73710937 0 0 Z " fill="#BD9E32" transform="translate(885,288)"/>
<path d="M0 0 C4.05963239 0.69919477 5.43971891 2.44696258 7.85595703 5.75927734 C8.31599121 6.41621582 8.77602539 7.0731543 9.25 7.75 C9.73452637 8.42885254 10.21905273 9.10770508 10.71826172 9.80712891 C15.11345756 16.03014503 19.19499494 22.39808882 23 29 C23.35803711 29.60440918 23.71607422 30.20881836 24.08496094 30.83154297 C29.22335488 39.56859529 33.12978344 48.45650735 36.375 58.0625 C36.69662109 59.00649658 37.01824219 59.95049316 37.34960938 60.9230957 C41.85438862 74.8791018 43.5217992 88.30173478 43.44604492 102.88085938 C43.43752834 105.36672856 43.46644969 107.85029246 43.49804688 110.3359375 C43.54466566 121.69496114 41.90366003 132.03025113 39 143 C30.5809305 143.16344899 23.81784232 139.45741493 17.65234375 133.78515625 C6.31010129 121.53124419 1.06967993 106.16632208 -1.6875 90 C-1.86659912 88.95199219 -1.86659912 88.95199219 -2.04931641 87.8828125 C-3.83889994 76.57036549 -4.19502755 65.18509629 -4.1875 53.75 C-4.18669434 52.45457275 -4.18588867 51.15914551 -4.18505859 49.82446289 C-4.08113723 33.16342334 -3.0653524 16.40289637 0 0 Z " fill="#BD9E32" transform="translate(90,289)"/>
<path d="M0 0 C15.39198112 2.59454807 33.34590778 27.19869092 42.05078125 39.14404297 C55.78843385 58.73491684 63.17939127 79.04848265 64 103 C64.04125 103.83273437 64.0825 104.66546875 64.125 105.5234375 C64.43296491 115.87875774 62.36997945 126.24952613 59 136 C55 136 55 136 51.9375 133.4375 C22.59704875 102.15355732 -0.16366176 48.74644557 -0.25 5.75 C-0.18814581 3.83251998 -0.11414377 1.91507879 0 0 Z " fill="#C0A137" transform="translate(783,386)"/>
<path d="M0 0 C3.38623958 42.74186854 -20.85964124 95.94689276 -47.6171875 128.203125 C-53.67689888 135.15689216 -53.67689888 135.15689216 -58 137 C-62.72711427 126.90116496 -63.5015869 117.08665246 -64 106 C-64.04253906 105.195625 -64.08507812 104.39125 -64.12890625 103.5625 C-64.9590364 74.3419186 -50.38158585 47.13078585 -31 26.1875 C-29.0223406 24.10259086 -27.01426584 22.0494666 -25 20 C-23.97627386 18.9377781 -22.95283755 17.87527681 -21.9296875 16.8125 C-5.59063249 0 -5.59063249 0 0 0 Z " fill="#BD9E32" transform="translate(194,386)"/>
<path d="M0 0 C0.99 0.33 1.98 0.66 3 1 C4.16333008 3.47070312 4.16333008 3.47070312 5.26953125 6.78125 C5.68066162 8.00328125 6.09179199 9.2253125 6.51538086 10.484375 C6.94909204 11.82248369 7.38143292 13.16103719 7.8125 14.5 C8.03310089 15.17482422 8.25370178 15.84964844 8.48098755 16.54492188 C11.44086116 25.61698611 14.16520774 34.72826945 16.4375 44 C16.77068237 45.33514648 16.77068237 45.33514648 17.1105957 46.69726562 C21.09550721 63.87999585 22.50320847 81.15251968 22.39111328 98.75146484 C22.37492933 101.76315022 22.39113532 104.77350912 22.41015625 107.78515625 C22.42583956 122.29132993 21.18080806 136.05792386 17 150 C8.92037095 149.26015025 4.38656344 143.80529255 -0.80078125 137.9765625 C-18.04466432 116.14322218 -17.08460773 84.17173764 -14.23022461 57.80761719 C-11.67548749 38.06503011 -6.33023442 18.83356977 0 0 Z " fill="#BD9E32" transform="translate(195,564)"/>
<path d="M0 0 C0.99 0 1.98 0 3 0 C7.53381015 9.42434141 11.50746269 18.80197358 14.375 28.875 C14.61299316 29.70475342 14.85098633 30.53450684 15.09619141 31.3894043 C18.29291936 43.08500344 19.34971759 54.33808248 19.31567383 66.40722656 C19.31252316 68.73290377 19.33602937 71.05729219 19.36132812 73.3828125 C19.41930755 86.71949286 17.96581709 99.69658777 12.8125 112.125 C12.51569336 112.86508301 12.21888672 113.60516602 11.91308594 114.36767578 C8.42587733 122.79600189 4.12445517 132.18407409 -2 139 C-2.99 139 -3.98 139 -5 139 C-16.4543655 120.00921101 -21.43545714 102.70585841 -21.3125 80.375 C-21.31034485 79.6696814 -21.3081897 78.96436279 -21.30596924 78.2376709 C-21.25219971 67.25563425 -20.73785447 56.67591053 -18 46 C-17.80132324 45.21302734 -17.60264648 44.42605469 -17.39794922 43.61523438 C-13.39752583 28.23682775 -7.13604666 14.14523026 0 0 Z " fill="#BD9E32" transform="translate(151,198)"/>
<path d="M0 0 C0.99 0 1.98 0 3 0 C15.9887273 25.66698275 24.22556747 50.54993628 24.25 79.5 C24.25067474 80.21620514 24.25134949 80.93241028 24.25204468 81.6703186 C24.22025694 102.87808534 19.95730736 121.06403896 8 139 C7.01 139 6.02 139 5 139 C3.74487305 137.6015625 3.74487305 137.6015625 2.51171875 135.625 C1.82734741 134.53058594 1.82734741 134.53058594 1.12915039 133.4140625 C0.65340576 132.61742187 0.17766113 131.82078125 -0.3125 131 C-1.04835327 129.77410156 -1.04835327 129.77410156 -1.79907227 128.5234375 C-6.22780516 120.94347671 -9.45413421 113.3821235 -12 105 C-12.61681641 103.13408203 -12.61681641 103.13408203 -13.24609375 101.23046875 C-16.32355154 90.81317119 -16.39452268 80.21271214 -16.4375 69.4375 C-16.44376404 68.70340912 -16.45002808 67.96931824 -16.45648193 67.21298218 C-16.5859179 43.18383204 -10.18035981 21.59853011 0 0 Z " fill="#BFA035" transform="translate(823,198)"/>
<path d="M0 0 C0.99 0 1.98 0 3 0 C4.99934127 2.28843932 6.7847256 4.54696443 8.5625 7 C9.09262695 7.721875 9.62275391 8.44375 10.16894531 9.1875 C20.83956931 23.90031728 30.08660766 39.43736061 36.3125 56.5625 C36.54291992 57.18568115 36.77333984 57.8088623 37.01074219 58.45092773 C41.12026008 70.36460716 42.52115786 82.26353696 42.44604492 94.77905273 C42.43751485 96.93374893 42.4664827 99.0857957 42.49804688 101.24023438 C42.5676946 115.2676252 40.43486925 132.98861018 31 144 C28.75 144.625 28.75 144.625 26 144 C14.79025279 136.94201102 10.99212946 122.60610409 8.125 110.3671875 C6.82861272 104.40157084 5.77637684 98.40252186 4.8125 92.375 C4.6575708 91.41883789 4.5026416 90.46267578 4.34301758 89.47753906 C1.18896382 68.26279312 0.65336089 46.8466421 0.375 25.4375 C0.33667112 22.94985838 0.29761179 20.4622279 0.2578125 17.97460938 C0.16350172 11.98317443 0.07802524 5.99166807 0 0 Z " fill="#BFA036" transform="translate(790,476)"/>
<path d="M0 0 C0.99 0.33 1.98 0.66 3 1 C1.8361824 117.75138495 1.8361824 117.75138495 -17.76171875 140 C-21.97182542 143.94526265 -21.97182542 143.94526265 -25.71484375 144.14453125 C-26.46894531 144.09683594 -27.22304687 144.04914063 -28 144 C-40.97321181 119.65301345 -43.29386342 89.56724638 -35.39794922 62.97216797 C-28.2006846 39.42875629 -14.94473019 19.31002938 0 0 Z " fill="#BD9E32" transform="translate(184,476)"/>
<path d="M0 0 C31.86551445 9.79306415 62.91461525 32.28701014 79.82421875 61.109375 C86.30710548 73.45462025 89.19881219 85.89791161 89.125 99.75 C89.12886719 100.49121094 89.13273438 101.23242188 89.13671875 101.99609375 C89.13042371 105.50243033 88.94165121 108.62800965 88 112 C83.51933988 111.43991748 80.22088448 109.6096983 76.5 107.1875 C75.89341553 106.7951416 75.28683105 106.4027832 74.66186523 105.99853516 C67.76788261 101.38825684 61.90442044 95.79040405 56 90 C55.32324219 89.36191406 54.64648438 88.72382813 53.94921875 88.06640625 C48.80398227 83.1340761 44.42603866 77.57298556 40 72 C39.28585937 71.12601562 38.57171875 70.25203125 37.8359375 69.3515625 C25.636558 54.04993529 15.00831982 37.22542573 4.875 20.5 C4.37242676 19.6762085 3.86985352 18.85241699 3.35205078 18.00366211 C2.9032959 17.24964111 2.45454102 16.49562012 1.9921875 15.71875 C1.60401855 15.06841797 1.21584961 14.41808594 0.81591797 13.74804688 C0 12 0 12 0 9 C1.32 9.33 2.64 9.66 4 10 C3.34 8.906875 2.68 7.81375 2 6.6875 C0.41535071 4.06292462 0 3.1743622 0 0 Z " fill="#C5A83F" transform="translate(750,305)"/>
<path d="M0 0 C-0.56545837 3.95820859 -1.80902348 6.6659053 -4 10 C-2.68 9.67 -1.36 9.34 0 9 C-0.56140457 12.47307686 -1.39070612 15.07481301 -3.1953125 18.08984375 C-3.65639404 18.86328125 -4.11747559 19.63671875 -4.5925293 20.43359375 C-5.09824463 21.25988281 -5.60395996 22.08617187 -6.125 22.9375 C-6.65198486 23.80632812 -7.17896973 24.67515625 -7.72192383 25.5703125 C-21.5298071 48.07056221 -36.98500714 69.66758419 -55 89 C-55.75796875 89.82371094 -56.5159375 90.64742188 -57.296875 91.49609375 C-65.1451981 99.71631452 -74.52031092 107.39663375 -85 112 C-85.99 112 -86.98 112 -88 112 C-88.3834521 108.33666293 -88.71161876 104.67205451 -89 101 C-89.05671875 100.28328125 -89.1134375 99.5665625 -89.171875 98.828125 C-90.02805428 76.73869948 -79.00062072 56.39705208 -64.46484375 40.55517578 C-51.15970967 26.42955844 -20.47408857 0 0 0 Z " fill="#BD9E32" transform="translate(227,305)"/>
<path d="M0 0 C0.66 0 1.32 0 2 0 C10.16564909 24.49694726 3.39543664 58.67274292 -3 83 C-3.27328125 84.05832031 -3.5465625 85.11664062 -3.828125 86.20703125 C-8.92047264 103.49786619 -19.75886872 119.78772447 -35.5625 128.8125 C-41.45773196 132 -41.45773196 132 -45 132 C-50.19719199 115.94438903 -48.46792038 100.9241265 -44 85 C-43.80164551 84.2879541 -43.60329102 83.5759082 -43.39892578 82.84228516 C-35.57859372 55.63599073 -21.21845841 30.05141667 -5 7 C-4.49855469 6.25363281 -3.99710938 5.50726562 -3.48046875 4.73828125 C-2.37657784 3.11902917 -1.19827369 1.55070713 0 0 Z " fill="#D6BF5A" transform="translate(742,646)"/>
<path d="M0 0 C4.09901065 1.36633688 5.38910553 4.14334354 7.625 7.625 C8.28749756 8.64098267 8.28749756 8.64098267 8.96337891 9.67749023 C13.49629233 16.67796279 17.83531124 23.77500724 22 31 C22.46164551 31.79229004 22.92329102 32.58458008 23.39892578 33.40087891 C38.81931863 60.03425289 56.48288 95.39456565 48.5 127.0625 C48.02101048 128.71457034 47.52973562 130.36349533 47 132 C34.89883182 130.25229929 25.54960247 120.90916394 18.5 111.5625 C9.51090071 98.058328 5.04979583 83.80545207 2 68 C1.80390137 67.02498535 1.60780273 66.0499707 1.40576172 65.04541016 C-2.58919736 44.80275977 -5.61016392 20.2720209 0 0 Z " fill="#C8AD44" transform="translate(233,646)"/>
<path d="M0 0 C3.86748362 1.64553991 6.84930361 4.22154432 10 6.9375 C10.57613037 7.4312915 11.15226074 7.92508301 11.74584961 8.43383789 C29.09247051 23.37946014 46.83771297 39.14516268 60 58 C60.40250977 58.57411621 60.80501953 59.14823242 61.21972656 59.73974609 C70.43410968 73.06205539 78.60200327 87.29676002 77 104 C75.984375 106.36328125 75.984375 106.36328125 75 108 C58.46112555 107.62871915 44.67365769 100.57054798 32.8125 89.3125 C12.89072242 68.46338446 4.65345639 40.48744846 1.359375 12.421875 C1.25394953 10.05539649 1.25394953 10.05539649 0 9 C-0.07179964 7.48071962 -0.08392007 5.95832518 -0.0625 4.4375 C-0.05347656 3.61121094 -0.04445313 2.78492188 -0.03515625 1.93359375 C-0.02355469 1.29550781 -0.01195312 0.65742187 0 0 Z " fill="#D9C35F" transform="translate(294,719)"/>
<path d="M0 0 C0 3.3 0 6.6 0 10 C-0.66 10 -1.32 10 -2 10 C-2.00257813 10.88816406 -2.00515625 11.77632812 -2.0078125 12.69140625 C-2.58848793 31.87305116 -8.34673115 49.97610677 -17 67 C-17.55429687 68.10730469 -18.10859375 69.21460938 -18.6796875 70.35546875 C-22.99702285 78.33944059 -28.63877655 84.61975944 -35 91 C-35.58394531 91.60714844 -36.16789063 92.21429687 -36.76953125 92.83984375 C-46.7353223 102.35149748 -61.59571628 106.91900938 -75 108 C-78.28593275 102.30876447 -77.63997476 96.19582332 -76.3828125 89.91796875 C-70.49484634 68.78902825 -56.05832574 51.41992506 -41 36 C-40.25766113 35.23719727 -39.51532227 34.47439453 -38.75048828 33.68847656 C-21.04862002 15.56769063 -21.04862002 15.56769063 -12.26953125 8.765625 C-9.22726943 6.39883956 -6.39849061 3.81857455 -3.55859375 1.21484375 C-2 0 -2 0 0 0 Z " fill="#E5D371" transform="translate(683,719)"/>
<path d="M0 0 C-1.05875074 3.40312738 -2.00902154 6.01353231 -4 9 C-2.68 9 -1.36 9 0 9 C-1.32709515 13.84425989 -3.45846702 17.37525375 -6.5625 21.25 C-7.00432617 21.81283691 -7.44615234 22.37567383 -7.90136719 22.95556641 C-11.4249873 27.39593137 -15.14434371 31.63787011 -18.9921875 35.80078125 C-20.70147402 37.67301532 -22.29143449 39.58530535 -23.875 41.5625 C-36.7671377 56.59747257 -57.3531838 68.98545169 -77 72 C-80.36143676 72.20910346 -83.69643471 72.19289581 -87.0625 72.125 C-87.92810547 72.11597656 -88.79371094 72.10695313 -89.68554688 72.09765625 C-91.79048779 72.07439723 -93.89528342 72.03854008 -96 72 C-95.34 69.03 -94.68 66.06 -94 63 C-94.66 63 -95.32 63 -96 63 C-93.63831991 46.43299042 -83.95746542 34.17428294 -71 24 C-51.68941066 10.36300937 -23.89185525 -0.657574 0 0 Z " fill="#DFCB68" transform="translate(418,77)"/>
<path d="M0 0 C27.32186167 0.62223702 57.73833782 11.62001789 78 30 C78.64324219 30.55042969 79.28648437 31.10085937 79.94921875 31.66796875 C87.54188617 38.57814921 93.99891953 48.84868553 96 59 C96 60.32 96 61.64 96 63 C95.34 63 94.68 63 94 63 C94.495 64.11375 94.495 64.11375 95 65.25 C96 68 96 68 96 72 C69.07902658 73.04322394 49.03109961 64.34804059 29.14453125 46.02734375 C26.71387076 43.72950623 24.33350921 41.39657703 22 39 C21.505 38.53851563 21.01 38.07703125 20.5 37.6015625 C12.46121845 29.97216334 5.45368039 20.63483535 0 11 C0 10.34 0 9.68 0 9 C1.32 8.67 2.64 8.34 4 8 C3.01 6.576875 3.01 6.576875 2 5.125 C0 2 0 2 0 0 Z " fill="#EEDE7E" transform="translate(559,77)"/>
<path d="M0 0 C0.67144043 0.20898926 1.34288086 0.41797852 2.03466797 0.63330078 C12.99120032 4.16212362 22.96943165 9.41366862 33 15 C33 15.99 33 16.98 33 18 C30.69 18.66 28.38 19.32 26 20 C28.31 21.32 30.62 22.64 33 24 C33 24.99 33 25.98 33 27 C17.06111154 30.21795196 1.15672823 33.12457158 -15 35 C-16.68802734 35.19916016 -16.68802734 35.19916016 -18.41015625 35.40234375 C-39.13636097 37.39577319 -63.89209073 38.61149627 -82.36328125 27.58984375 C-82.90339844 27.06519531 -83.44351562 26.54054687 -84 26 C-84 22 -84 22 -82.5 20.25 C-82.005 19.8375 -81.51 19.425 -81 19 C-81.66 17.35 -82.32 15.7 -83 14 C-58.39230282 -4.73682526 -29.78357203 -9.34541031 0 0 Z " fill="#D8C25E" transform="translate(363,160)"/>
<path d="M0 0 C1.13687256 0.00161133 2.27374512 0.00322266 3.44506836 0.00488281 C12.63021347 0.13795359 20.636312 1.32775348 29.3125 4.375 C30.16328125 4.66375 31.0140625 4.9525 31.890625 5.25 C38.4147416 7.80489881 43.76919509 12.17662808 49.3125 16.375 C50.3025 17.035 51.2925 17.695 52.3125 18.375 C51.6525 20.355 50.9925 22.335 50.3125 24.375 C51.6325 25.695 52.9525 27.015 54.3125 28.375 C48.47838416 35.93774275 38.56116279 38.24016016 29.5 39.6875 C-0.08896566 42.83076091 -29.73468224 38.25194092 -58.6875 32.375 C-60.35408937 32.0412804 -62.02073216 31.70782706 -63.6875 31.375 C-63.6875 30.385 -63.6875 29.395 -63.6875 28.375 C-61.3775 27.055 -59.0675 25.735 -56.6875 24.375 C-58.9975 23.715 -61.3075 23.055 -63.6875 22.375 C-63.6875 21.385 -63.6875 20.395 -63.6875 19.375 C-53.96546996 13.85288694 -44.32492136 8.89763822 -33.6875 5.375 C-32.85323486 5.09712646 -32.01896973 4.81925293 -31.15942383 4.53295898 C-20.82345213 1.25913565 -10.82907758 -0.01608717 0 0 Z " fill="#E9D877" transform="translate(644.6875,155.625)"/>
<path d="M0 0 C0.66 0 1.32 0 2 0 C14.38081595 37.91307634 26.24665949 81.83783549 7.58984375 119.875 C2.88848845 128.09923754 -2.89813177 135.01423494 -11 140 C-11.99 140 -12.98 140 -14 140 C-30.53283165 96.58269887 -16.88248379 42.58648618 -1 1 C-0.67 0.67 -0.34 0.34 0 0 Z " fill="#C8AC44" transform="translate(780,564)"/>
<path d="M0 0 C26.75850873 3.4184879 52.58180505 16.82512843 73 34 C73.61101562 34.47695313 74.22203125 34.95390625 74.8515625 35.4453125 C84.135584 42.86405114 91.66960366 53.41182853 97 64 C97 65.32 97 66.64 97 68 C77.23713802 71.61083286 58.41782994 71.96771922 40.80859375 60.9765625 C36.14477843 57.69437815 32.03177079 54.02511771 28 50 C27.23945313 49.25105469 26.47890625 48.50210938 25.6953125 47.73046875 C15.49388581 37.08780388 0 15.10137073 0 0 Z " fill="#E7D674" transform="translate(371,774)"/>
<path d="M0 0 C-0.45822468 3.46941546 -0.89131683 6.67395049 -2 10 C-2.66 10 -3.32 10 -4 10 C-4.33 11.175625 -4.66 12.35125 -5 13.5625 C-12.2953631 35.17713393 -27.7214706 53.7733632 -47.7578125 64.47265625 C-62.63986942 71.74408862 -81.0634344 72.01100078 -97 68 C-95.56901107 56.028556 -86.02571511 47.30487042 -78 39 C-77.29617188 38.24460937 -76.59234375 37.48921875 -75.8671875 36.7109375 C-71.05871749 31.66885761 -65.86620814 27.74210401 -60 24 C-59.42169434 23.62617187 -58.84338867 23.25234375 -58.24755859 22.8671875 C-42.2554177 12.63221733 -19.5204732 0 0 0 Z " fill="#F0E181" transform="translate(606,774)"/>
<path d="M0 0 C0.84820313 0.63679688 1.69640625 1.27359375 2.5703125 1.9296875 C5.09803615 4.08353563 6.81344074 6.20432144 8.6875 8.9375 C9.26886719 9.77152344 9.85023438 10.60554688 10.44921875 11.46484375 C11.95097059 13.91984865 13.01950714 16.30002213 14 19 C0.69169002 25.65415499 -21.47253338 21.309113 -35 17 C-36.47511809 16.55941903 -37.95038351 16.11933107 -39.42578125 15.6796875 C-49.86860615 12.47167317 -59.38823892 8.15140137 -69 3 C-70.31470878 2.30654154 -71.62981274 1.61383178 -72.9453125 0.921875 C-75.4729215 -0.41221121 -77.99341834 -1.75836475 -80.5078125 -3.1171875 C-82.74530581 -4.32353177 -84.98957551 -5.51744069 -87.2421875 -6.6953125 C-88.21414063 -7.20835937 -89.18609375 -7.72140625 -90.1875 -8.25 C-91.02667969 -8.68828125 -91.86585938 -9.1265625 -92.73046875 -9.578125 C-95.19293916 -11.12087754 -97.02694124 -12.87726092 -99 -15 C-93.94601933 -18.36932045 -87.94564479 -18.31257251 -82 -19 C-80.93523438 -19.12632812 -79.87046875 -19.25265625 -78.7734375 -19.3828125 C-50.73946278 -22.04297069 -22.32925947 -18.14018567 0 0 Z " fill="#DDC865" transform="translate(750,215)"/>
<path d="M0 0 C-1.72341544 5.17024631 -6.86522918 6.89967059 -11.53125 9.3046875 C-13.49599242 10.28153977 -15.46519779 11.24944017 -17.4375 12.2109375 C-20.05649504 13.52617843 -22.62271294 14.87564685 -25.1875 16.2890625 C-51.64099521 30.79830018 -82.48412159 43.13756758 -113 35 C-105.4804721 18.80409376 -93.35447714 9.97016562 -77 3 C-52.1415048 -6.07037453 -25.62046288 -5.46799141 0 0 Z " fill="#CAAE46" transform="translate(326,199)"/>
<path d="M0 0 C6.86771733 3.19919862 13.72616375 5.25982977 21.0625 7.125 C21.66634521 7.29443115 22.27019043 7.4638623 22.89233398 7.63842773 C56.15590298 15.09644247 94.91702434 7.44879571 126.56640625 -2.60546875 C129.98582238 -3.64783412 132.71959137 -4.20688305 136.3125 -3.6875 C137.12976563 -3.57148437 137.94703125 -3.45546875 138.7890625 -3.3359375 C141.64899643 -2.75608835 144.34885052 -1.94617743 147.0625 -0.875 C147.0625 0.115 147.0625 1.105 147.0625 2.125 C101.11538842 17.46805333 44.5400423 32.99366317 -1.6875 10.1875 C-7.04052108 7.42806269 -11.67012074 4.39237926 -15.9375 0.125 C-15.125 -1.8125 -15.125 -1.8125 -13.9375 -3.875 C-8.81559069 -5.5823031 -4.65184576 -2.26432845 0 0 Z " fill="#623B14" transform="translate(612.9375,850.875)"/>
<path d="M0 0 C2 2 2 2 2 5 C-17.225543 22.92358749 -48.26589628 25.68143006 -73.1875 24.875 C-103.56002155 23.46958166 -132.3128965 15.57944349 -161 6 C-161 5.01 -161 4.02 -161 3 C-159.4618423 2.48930733 -157.91924711 1.99197253 -156.375 1.5 C-155.51648438 1.2215625 -154.65796875 0.943125 -153.7734375 0.65625 C-147.96966271 -0.71703756 -143.67669962 0.24148309 -138.140625 2.26953125 C-130.13259135 5.08519214 -122.05581559 6.98082721 -113.75 8.6875 C-113.02911194 8.83752472 -112.30822388 8.98754944 -111.56549072 9.14212036 C-100.43072288 11.44882988 -89.38294885 13.52858735 -78 14 C-77.11231934 14.03706055 -76.22463867 14.07412109 -75.31005859 14.11230469 C-61.57983119 14.58568 -48.48301082 13.58888925 -35 11 C-33.34291016 10.70996094 -33.34291016 10.70996094 -31.65234375 10.4140625 C-22.73103625 8.56496243 -14.97671451 4.24536357 -7 0 C-4.29393021 -1.35303489 -2.8671629 -0.7884698 0 0 Z " fill="#603913" transform="translate(378,847)"/>
<path d="M0 0 C0.98613281 0.03480469 1.97226562 0.06960938 2.98828125 0.10546875 C3.98214844 0.13253906 4.97601562 0.15960937 6 0.1875 C7.13888672 0.23970703 7.13888672 0.23970703 8.30078125 0.29296875 C7.44492049 5.16409115 4.26563293 7.23427955 0.55078125 10.16796875 C-0.15731689 10.73241699 -0.86541504 11.29686523 -1.5949707 11.87841797 C-35.358758 38.32884153 -75.23654694 58.47021856 -119.17163086 53.41210938 C-126.68067483 52.36149567 -133.64124808 50.02038514 -140.69921875 47.29296875 C-140.33212015 44.72327857 -139.60148879 43.13924766 -138.19921875 40.93359375 C-135.31290662 39.03945142 -134.87583223 39.14864283 -131.63671875 39.77734375 C-129.98691644 40.18342036 -128.34122375 40.60643073 -126.69921875 41.04296875 C-119.39185722 42.75408853 -112.52257002 43.68234251 -105.01171875 43.60546875 C-103.81192383 43.59435059 -103.81192383 43.59435059 -102.58789062 43.58300781 C-92.49145152 43.35948598 -83.32101758 41.57612123 -73.61914062 38.82373047 C-71.81565071 38.32515632 -69.99980854 37.87189266 -68.18359375 37.421875 C-58.60070323 34.96051613 -50.35365921 30.95579501 -41.69921875 26.29296875 C-41.05758789 25.95668457 -40.41595703 25.62040039 -39.75488281 25.27392578 C-20.61242984 15.24660177 -20.61242984 15.24660177 -4.11132812 1.62133789 C-2.69921875 0.29296875 -2.69921875 0.29296875 0 0 Z " fill="#613A13" transform="translate(829.69921875,761.70703125)"/>
<path d="M0 0 C0.845625 0.28875 1.69125 0.5775 2.5625 0.875 C-2.68730388 16.13731642 -20.70394101 26.01934981 -34.4375 32.875 C-57.02417846 43.39890293 -82.7686868 48.05976854 -107.58984375 48.0078125 C-108.61179337 48.00876923 -109.63374298 48.00972595 -110.68666077 48.01071167 C-112.82699648 48.01138731 -114.96733432 48.00957639 -117.10766602 48.00537109 C-120.39018285 47.99997504 -123.67256527 48.00535682 -126.95507812 48.01171875 C-129.04166697 48.01105862 -131.12825573 48.0097788 -133.21484375 48.0078125 C-134.68666359 48.01084885 -134.68666359 48.01084885 -136.18821716 48.01394653 C-137.55092491 48.00921829 -137.55092491 48.00921829 -138.94116211 48.00439453 C-139.73928818 48.00359894 -140.53741425 48.00280334 -141.35972595 48.00198364 C-143.4375 47.875 -143.4375 47.875 -146.4375 46.875 C-144.62779873 42.46267155 -142.12448307 41.03487076 -138.00152588 38.88751221 C-133.75123699 37.20910895 -129.76393982 37.20570451 -125.2421875 37.2734375 C-124.29167511 37.26543121 -123.34116272 37.25742493 -122.36184692 37.24917603 C-119.34495597 37.22627514 -116.32942441 37.2354816 -113.3125 37.25 C-100.25306159 37.26693831 -88.17568203 37.03123844 -75.4375 33.875 C-73.87290484 33.55861625 -72.30671002 33.24992106 -70.73828125 32.953125 C-48.04882332 28.34108667 -25.46324454 20.29730098 -8.4921875 4.0078125 C-4.06832298 -0.14793902 -4.06832298 -0.14793902 0 0 Z " fill="#623B15" transform="translate(475.4375,860.125)"/>
<path d="M0 0 C7.48901902 -0.85169236 11.36954732 0.84944794 17.1875 5.4375 C18.68202318 6.55028954 20.17813767 7.66094485 21.67578125 8.76953125 C22.775271 9.59638428 22.775271 9.59638428 23.89697266 10.43994141 C44.60095992 25.79848316 69.38378135 38.05380961 95 42 C96.22396484 42.19335938 96.22396484 42.19335938 97.47265625 42.390625 C111.66083998 44.19079522 125.09243775 42.82840834 139 40 C140.99846731 39.65759743 142.99793603 39.32070387 145 39 C149 43.625 149 43.625 149 47 C119.34118633 58.46107549 88.46957647 54.4724632 59.67919922 42.19335938 C39.91350945 33.38939623 22.72462741 21.59140607 6 8 C5.14390137 7.34402832 5.14390137 7.34402832 4.27050781 6.67480469 C2.79222484 5.51657128 1.38902949 4.2638917 0 3 C0 2.01 0 1.02 0 0 Z " fill="#603913" transform="translate(139,762)"/>
<path d="M0 0 C1.75390625 1.34765625 1.75390625 1.34765625 3.5625 3.0625 C13.12815373 11.66281253 23.34076285 17.74449989 35 23 C36.18722656 23.53625 37.37445312 24.0725 38.59765625 24.625 C57.84443453 32.52955921 79.01743671 35.93616288 99.7265625 36.140625 C101.04605141 36.15527046 101.04605141 36.15527046 102.39219666 36.17021179 C107.90007809 36.22968506 107.90007809 36.22968506 113.40820312 36.25048828 C132.02565834 36.2735134 132.02565834 36.2735134 138.55224609 40.54199219 C140.21102373 42.21251833 141.07125926 43.84880927 142 46 C139.24059629 46.91980124 137.53267734 47.14029566 134.68164062 47.17700195 C133.80709732 47.18965591 132.93255402 47.20230988 132.0315094 47.21534729 C130.608256 47.2266996 130.608256 47.2266996 129.15625 47.23828125 C128.16741318 47.24798447 127.17857635 47.25768768 126.15977478 47.26768494 C122.93980908 47.29274763 119.72005371 47.30523253 116.5 47.3125 C114.86431564 47.31642761 114.86431564 47.31642761 113.19558716 47.32043457 C96.43298912 47.32476371 80.42151864 46.61612923 64 43 C63.26281738 42.84515137 62.52563477 42.69030273 61.76611328 42.53076172 C57.42016858 41.59303458 53.22162022 40.3888718 49 39 C48.26378418 38.75910645 47.52756836 38.51821289 46.76904297 38.27001953 C26.86492728 31.65152616 6.61411539 21.45156741 -6 4 C-6.734375 1.7109375 -6.734375 1.7109375 -7 0 C-3.81318622 -1.06227126 -3.033811 -1.12384937 0 0 Z " fill="#613A14" transform="translate(506,861)"/>
<path d="M0 0 C-17.67121528 35.19876215 -49.6281498 64.63113065 -87.0625 77.3125 C-99.68864189 81.38510121 -111.69137622 83.55367156 -125 83 C-124.52449439 81.51965236 -124.04448784 80.04074979 -123.5625 78.5625 C-123.29566406 77.73878906 -123.02882813 76.91507813 -122.75390625 76.06640625 C-122 74 -122 74 -121 73 C-118.83895881 72.7223959 -116.67714458 72.44991123 -114.51245117 72.20239258 C-77.46640842 67.81187174 -43.54860387 47.53430631 -20.32421875 18.49609375 C-14.46823029 11.02807103 -14.46823029 11.02807103 -9.29296875 3.08984375 C-6.92609175 -0.73577315 -4.11907121 -1.37302374 0 0 Z " fill="#613A13" transform="translate(895,655)"/>
<path d="M0 0 C4.88631051 0.44421005 6.76434225 1.37855229 10 5 C11.28125837 6.68501625 12.52966476 8.39535129 13.75 10.125 C35.94296628 40.87869001 63.28891357 61.06105029 100 71 C100.87914062 71.23847656 101.75828125 71.47695313 102.6640625 71.72265625 C107.90175607 73.00827194 113.00851593 73.27275285 118.3984375 73.36328125 C121 74 121 74 122.7890625 76.23046875 C123.93784356 78.85784221 124.59563333 81.16943334 125 84 C92.20731218 85.92583485 61.01859421 69.63528023 36.98828125 48.51171875 C29.61391496 41.87642542 22.96460516 34.94925017 17 27 C16.33508545 26.13157471 16.33508545 26.13157471 15.65673828 25.24560547 C0 4.78043071 0 4.78043071 0 0 Z " fill="#603913" transform="translate(82,654)"/>
<path d="M0 0 C0.74636719 0.22558594 1.49273437 0.45117188 2.26171875 0.68359375 C3.8662948 1.18227842 5.47046906 1.68225792 7.07421875 2.18359375 C8.52248047 2.58771484 8.52248047 2.58771484 10 3 C10.60634277 3.17644043 11.21268555 3.35288086 11.83740234 3.53466797 C18.93444813 5.38098691 25.95443472 5.30307712 33.25 5.25 C33.91095673 5.24723053 34.57191345 5.24446106 35.25289917 5.24160767 C52.4827891 5.15726573 69.25060139 3.24931096 86.265625 0.68359375 C87.05138916 0.57055908 87.83715332 0.45752441 88.64672852 0.34106445 C90.2431939 0.10968546 91.83748789 -0.13709856 93.42944336 -0.39770508 C98.10296489 -1.07886807 100.94296968 -1.24346418 105.0625 1.4375 C106.19365234 2.14712891 106.19365234 2.14712891 107.34765625 2.87109375 C107.89292969 3.24363281 108.43820312 3.61617187 109 4 C109 4.99 109 5.98 109 7 C93.06111154 10.21795196 77.15672823 13.12457158 61 15 C59.31197266 15.19916016 59.31197266 15.19916016 57.58984375 15.40234375 C36.86363903 17.39577319 12.10790927 18.61149627 -6.36328125 7.58984375 C-6.90339844 7.06519531 -7.44351562 6.54054687 -8 6 C-8 2 -8 2 -6.25 0.1875 C-3.47710977 -1.27596984 -2.91094437 -0.89811351 0 0 Z " fill="#603913" transform="translate(287,180)"/>
<path d="M0 0 C2.79081906 0.48499835 5.58199595 0.9654472 8.375 1.4375 C9.15125732 1.56874268 9.92751465 1.69998535 10.72729492 1.83520508 C24.97454164 4.19938334 38.98755842 5.18344721 53.4375 5.25 C55.30293457 5.26389771 55.30293457 5.26389771 57.20605469 5.27807617 C68.27432187 5.24047415 78.78304689 4.52512265 88.87890625 -0.29296875 C91.4029123 -1.1343041 92.54943383 -0.9761165 95 0 C97.25 2.0625 97.25 2.0625 99 4 C93.16588416 11.56274275 83.24866279 13.86516016 74.1875 15.3125 C44.59853434 18.45576091 14.95281776 13.87694092 -14 8 C-15.66658937 7.6662804 -17.33323216 7.33282706 -19 7 C-19 6.01 -19 5.02 -19 4 C-12.2181837 -0.73416645 -8.00699573 -1.56007272 0 0 Z " fill="#603913" transform="translate(600,180)"/>
<path d="M0 0 C-4.04957719 8.83687747 -12.48811844 15.67073973 -19.25 22.4375 C-20.12785156 23.32759766 -21.00570312 24.21769531 -21.91015625 25.13476562 C-27.95825692 31.1961491 -34.2936607 36.68220081 -41 42 C-42.19282819 42.97612955 -43.38446257 43.95372222 -44.57421875 44.93359375 C-62.81869669 59.607007 -84.58008497 74.48834697 -109 73 C-108.65612694 71.53401486 -108.27352093 70.07708201 -107.875 68.625 C-107.66617188 67.81289063 -107.45734375 67.00078125 -107.2421875 66.1640625 C-106 64 -106 64 -103.28125 62.78125 C-100.07158613 62.01704432 -96.87793136 61.42359413 -93.625 60.875 C-70.10709359 55.90955968 -48.66194582 38.24859254 -31.4453125 22.26171875 C-29.3346356 20.3095112 -27.18772443 18.42693722 -25 16.5625 C-20.60866031 12.78558644 -16.6754001 8.56989013 -12.7109375 4.35546875 C-8.61171089 0.7937488 -5.37164438 0 0 0 Z " fill="#603A13" transform="translate(271,247)"/>
<path d="M0 0 C0.7734375 0.00644531 1.546875 0.01289063 2.34375 0.01953125 C4.5 0.1875 4.5 0.1875 7.5 1.1875 C6.30475854 4.77322439 5.47575099 5.11654544 2.3359375 7.04296875 C1.4687207 7.57905762 0.60150391 8.11514648 -0.29199219 8.66748047 C-1.22688477 9.23096191 -2.16177734 9.79444336 -3.125 10.375 C-4.08051758 10.95652832 -5.03603516 11.53805664 -6.02050781 12.13720703 C-13.70830228 16.78110973 -21.42127101 21.25973225 -29.5 25.1875 C-30.08974609 25.48317871 -30.67949219 25.77885742 -31.28710938 26.08349609 C-51.83352563 36.19704558 -81.04564542 43.88441277 -103.5 37.1875 C-104.16 36.8575 -104.82 36.5275 -105.5 36.1875 C-104.95276317 32.81287285 -104.4451 31.10515 -102.5 28.1875 C-100.11181641 27.91040039 -100.11181641 27.91040039 -97.1015625 28.03515625 C-95.43843018 28.0818042 -95.43843018 28.0818042 -93.74169922 28.12939453 C-91.95143311 28.18909424 -91.95143311 28.18909424 -90.125 28.25 C-57.17684756 28.69612327 -28.30347272 -0.518897 0 0 Z " fill="#613A13" transform="translate(318.5,206.8125)"/>
<path d="M0 0 C7.6002286 0.13571837 10.77043044 2.70540915 16 8 C16.88042969 8.87914062 17.76085937 9.75828125 18.66796875 10.6640625 C20.09555974 12.09215004 21.52154981 13.52171743 22.94384766 14.95507812 C26.81269312 18.84654841 30.78396957 22.49121898 35 26 C35.82129395 26.69198486 35.82129395 26.69198486 36.65917969 27.39794922 C55.24784181 43.02157854 76.80915766 59.89167254 101.84765625 62.3828125 C105 63 105 63 106.55859375 64.77734375 C106.84863281 65.49019531 107.13867188 66.20304687 107.4375 66.9375 C107.74558594 67.64777344 108.05367187 68.35804688 108.37109375 69.08984375 C109 71 109 71 109 73 C80.54088557 74.69999135 54.72782296 54.23741641 34.53857422 36.359375 C33.22380435 35.19773764 31.89635616 34.05047656 30.56640625 32.90625 C24.50348223 27.61038569 18.82670079 21.9292342 13.125 16.25 C11.87456909 15.00657837 11.87456909 15.00657837 10.59887695 13.73803711 C9.80570068 12.94276611 9.01252441 12.14749512 8.1953125 11.328125 C7.48391113 10.6155957 6.77250977 9.90306641 6.03955078 9.16894531 C0 2.74622935 0 2.74622935 0 0 Z " fill="#603913" transform="translate(706,247)"/>
<path d="M0 0 C0.99 0.33 1.98 0.66 3 1 C-6.21185962 35.18873103 -21.85479479 64.09580314 -47 89 C-47.69738281 89.69480469 -48.39476562 90.38960937 -49.11328125 91.10546875 C-61.12207013 102.47435769 -79.9019034 115.70003339 -97 116 C-97 113.03 -97 110.06 -97 107 C-95.63875 106.46375 -94.2775 105.9275 -92.875 105.375 C-90.91588914 104.58525941 -88.95764254 103.79337333 -87 103 C-85.87980469 102.55269531 -84.75960937 102.10539063 -83.60546875 101.64453125 C-48.81042116 87.33521179 -25.14904008 57.52001707 -10 24 C-7.32431637 17.38725369 -4.97341844 10.66536706 -2.77099609 3.8815918 C-2 2 -2 2 0 0 Z " fill="#613B13" transform="translate(925,526)"/>
<path d="M0 0 C1.40050762 0.83122645 2.80290836 1.6592702 4.20703125 2.484375 C4.91682129 2.90525391 5.62661133 3.32613281 6.35791016 3.75976562 C20.5687952 11.98763159 35.59895521 17.9177811 51.5 22 C52.43223389 22.27904175 52.43223389 22.27904175 53.38330078 22.5637207 C61.43113789 24.73786612 69.69698205 24.05011607 77.95068359 23.73266602 C79.95342403 23.66030925 81.95726307 23.62067779 83.9609375 23.58203125 C85.14478027 23.54311768 86.32862305 23.5042041 87.54833984 23.46411133 C90.5 24 90.5 24 92.40869141 26.33862305 C93.5 29 93.5 29 93.5 32 C73.70549044 40.73287186 47.03676103 32.91011236 27.71484375 25.54296875 C13.57933579 19.72673415 0.39979481 12.1557159 -12.5 4 C-13.1285791 3.6169873 -13.7571582 3.23397461 -14.40478516 2.83935547 C-18.38422035 0.34733895 -18.38422035 0.34733895 -19.5 -3 C-11.92699421 -5.52433526 -6.43811771 -4.04172086 0 0 Z " fill="#603A14" transform="translate(670.5,211)"/>
<path d="M0 0 C1.875 0.22265625 1.875 0.22265625 4 1 C5.125 2.93359375 5.125 2.93359375 6 5.4375 C6.28875 6.24058594 6.5775 7.04367187 6.875 7.87109375 C7.24625 8.90363281 7.6175 9.93617188 8 11 C21.94760297 47.44399634 43.45780456 78.82326432 78 98 C78.74894531 98.43054688 79.49789062 98.86109375 80.26953125 99.3046875 C85.35043289 102.06441934 90.80069733 103.57172793 96.33984375 105.16796875 C99 106 99 106 100 107 C100.14177857 110.00003445 100.04228771 112.99757235 100 116 C93.12584989 115.55540323 87.97100912 114.09603414 81.8125 111.0625 C80.98951416 110.66353516 80.16652832 110.26457031 79.31860352 109.85351562 C67.52464569 103.96169091 57.5000293 96.11696361 48 87 C46.67742187 85.77216797 46.67742187 85.77216797 45.328125 84.51953125 C22.99882358 63.16792523 5.24697831 30.52787381 0 0 Z " fill="#613A13" transform="translate(49,526)"/>
<path d="M0 0 C-1.32709515 4.84425989 -3.45846702 8.37525375 -6.5625 12.25 C-7.00432617 12.81283691 -7.44615234 13.37567383 -7.90136719 13.95556641 C-11.4249873 18.39593137 -15.14434371 22.63787011 -18.9921875 26.80078125 C-20.70147402 28.67301532 -22.29143449 30.58530535 -23.875 32.5625 C-36.7671377 47.59747257 -57.3531838 59.98545169 -77 63 C-80.36143676 63.20910346 -83.69643471 63.19289581 -87.0625 63.125 C-87.92810547 63.11597656 -88.79371094 63.10695312 -89.68554688 63.09765625 C-91.79048779 63.07439723 -93.89528342 63.03854008 -96 63 C-95.69201674 61.51988629 -95.378482 60.04092675 -95.0625 58.5625 C-94.88847656 57.73878906 -94.71445312 56.91507813 -94.53515625 56.06640625 C-94 54 -94 54 -93 53 C-91.2621372 52.88583383 -89.52347586 52.77865368 -87.78320312 52.71044922 C-60.41726237 51.62695609 -38.87940952 36.8653052 -20.60375977 17.40869141 C-16.24599659 12.68959673 -12.15265263 7.81839171 -8.33984375 2.64453125 C-5.8826546 -0.37143561 -3.68817656 -0.09705728 0 0 Z " fill="#613B14" transform="translate(418,86)"/>
<path d="M0 0 C4.50797502 0.17295449 6.49585342 0.52840135 9.84375 3.66015625 C10.74746796 4.77974207 11.63233483 5.91474754 12.5 7.0625 C13.45537198 8.25679624 14.41110023 9.45080756 15.3671875 10.64453125 C15.82061523 11.22412598 16.27404297 11.8037207 16.74121094 12.40087891 C19.35579287 15.7223513 22.15466172 18.87596116 25 22 C25.63808594 22.70382813 26.27617188 23.40765625 26.93359375 24.1328125 C43.72277262 41.81536052 65.39408187 52.07974587 89.7734375 52.921875 C91.37058594 52.96054688 91.37058594 52.96054688 93 53 C95.03435531 56.72965139 96 58.66905042 96 63 C69.07902658 64.04322394 49.03109961 55.34804059 29.14453125 37.02734375 C26.71387076 34.72950623 24.33350921 32.39657703 22 30 C21.505 29.53851563 21.01 29.07703125 20.5 28.6015625 C12.46121845 20.97216334 5.45368039 11.63483535 0 2 C0 1.34 0 0.68 0 0 Z " fill="#613B14" transform="translate(559,86)"/>
<path d="M0 0 C-0.56140457 3.47307686 -1.39070612 6.07481301 -3.1953125 9.08984375 C-3.65639404 9.86328125 -4.11747559 10.63671875 -4.5925293 11.43359375 C-5.09824463 12.25988281 -5.60395996 13.08617187 -6.125 13.9375 C-6.65198486 14.80632812 -7.17896973 15.67515625 -7.72192383 16.5703125 C-21.5298071 39.07056221 -36.98500714 60.66758419 -55 80 C-55.75796875 80.82371094 -56.5159375 81.64742188 -57.296875 82.49609375 C-65.1451981 90.71631452 -74.52031092 98.39663375 -85 103 C-85.99 103 -86.98 103 -88 103 C-88.33 99.37 -88.66 95.74 -89 92 C-87.741875 91.649375 -86.48375 91.29875 -85.1875 90.9375 C-70.03249768 85.76780295 -57.78609121 73.07926375 -48.125 60.71875 C-45.91048152 57.885469 -43.59012862 55.16765005 -41.25 52.4375 C-30.97867819 40.09919392 -22.0824439 26.85331892 -13.65625 13.20703125 C-5.42159608 0 -5.42159608 0 0 0 Z " fill="#613A13" transform="translate(227,314)"/>
<path d="M0 0 C3.25434041 0.47624494 5.39252817 1.32010452 7.60546875 3.796875 C10.30820247 7.62307286 12.75536151 11.59906347 15.2109375 15.5859375 C23.98876277 29.83203488 33.45462668 43.42962457 44.4609375 56.0546875 C46.85421675 58.83089143 49.11488992 61.67777768 51.375 64.5625 C58.61156578 73.39290976 66.95348609 80.95943875 76.4375 87.3125 C77.287677 87.8995874 77.287677 87.8995874 78.1550293 88.49853516 C81.19098894 90.43046872 82.77860175 91.01749883 86.41015625 90.73046875 C87.69212891 90.36888672 87.69212891 90.36888672 89 90 C89.0272415 91.41655793 89.04650467 92.83327045 89.0625 94.25 C89.07410156 95.03890625 89.08570313 95.8278125 89.09765625 96.640625 C89.00385306 98.90691002 88.63241063 100.8288895 88 103 C83.51933988 102.43991748 80.22088448 100.6096983 76.5 98.1875 C75.89341553 97.7951416 75.28683105 97.4027832 74.66186523 96.99853516 C67.76788261 92.38825684 61.90442044 86.79040405 56 81 C55.32324219 80.36191406 54.64648438 79.72382813 53.94921875 79.06640625 C48.80398227 74.1340761 44.42603866 68.57298556 40 63 C38.92878906 61.68902344 38.92878906 61.68902344 37.8359375 60.3515625 C25.636558 45.04993529 15.00831982 28.22542573 4.875 11.5 C4.37242676 10.6762085 3.86985352 9.85241699 3.35205078 9.00366211 C2.9032959 8.24964111 2.45454102 7.49562012 1.9921875 6.71875 C1.60401855 6.06841797 1.21584961 5.41808594 0.81591797 4.74804688 C0 3 0 3 0 0 Z " fill="#613A13" transform="translate(750,314)"/>
<path d="M0 0 C-2.01062206 20.73970431 -16.78891646 43.28738425 -32.65527344 56.36425781 C-40.69021261 62.57837986 -49.43625416 69.03566136 -60 68 C-60.85319824 67.74585327 -60.85319824 67.74585327 -61.72363281 67.48657227 C-65.00882468 66.78436427 -68.26702319 66.87774151 -71.609375 66.90234375 C-72.33618469 66.9037587 -73.06299438 66.90517365 -73.81182861 66.90663147 C-76.12459494 66.91221208 -78.43726312 66.92476096 -80.75 66.9375 C-82.32161318 66.94251751 -83.89322789 66.94707998 -85.46484375 66.95117188 C-89.30993343 66.96217515 -93.1549501 66.97942639 -97 67 C-95.125 60.125 -95.125 60.125 -94 59 C-92.10443084 59.22925137 -90.20932927 59.46360246 -88.31787109 59.72460938 C-69.85696816 61.91798398 -51.46056004 58.8803441 -36.25048828 47.71582031 C-21.66666766 35.95397975 -12.54563749 20.39757954 -5.2265625 3.44921875 C-3.79671414 0.59407569 -3.18160644 0 0 0 Z " fill="#653F17" transform="translate(606,783)"/>
<path d="M0 0 C1.87011719 0.26049805 1.87011719 0.26049805 4 1 C5.15332031 2.66723633 5.15332031 2.66723633 6.078125 4.83203125 C6.60575439 6.02107056 6.60575439 6.02107056 7.14404297 7.23413086 C7.50900879 8.08499268 7.87397461 8.93585449 8.25 9.8125 C18.2303101 31.8508132 32.80298826 48.74745757 55.54296875 58.0390625 C67.44428915 61.98771764 81.74436225 60.5422825 94 59 C97 63.625 97 63.625 97 67 C95.72125 66.835 94.4425 66.67 93.125 66.5 C81.99106944 65.40407816 70.85809924 65.15197397 60 68 C49.43972182 68.75696471 40.19254338 62.47306419 32.3125 55.9375 C17.01511001 42.57529427 5.58271046 23.4974452 0 4 C0 2.68 0 1.36 0 0 Z " fill="#633C15" transform="translate(371,783)"/>
<path d="M0 0 C0.66 0 1.32 0 2 0 C2.58188951 30.68701523 -7.70103787 63.80102937 -28.0625 87 C-29.68885716 88.68567717 -31.33274885 90.35475876 -33 92 C-33.57492187 92.60585938 -34.14984375 93.21171875 -34.7421875 93.8359375 C-40.95365872 99.47492289 -49.82592065 100.61423285 -57.75634766 102.46386719 C-61.52661093 103.36479191 -65.24296635 104.45249511 -68.96875 105.51953125 C-71 106 -71 106 -74 106 C-75.26237731 103.47524538 -75.09856404 101.68799534 -75.0625 98.875 C-75.05347656 97.96492187 -75.04445313 97.05484375 -75.03515625 96.1171875 C-75.02355469 95.41851563 -75.01195312 94.71984375 -75 94 C-74.34 94.33 -73.68 94.66 -73 95 C-73 95.99 -73 96.98 -73 98 C-51.52660681 93.12216068 -33.86237136 85.51841344 -21.375 66.375 C-13.80460108 54.31493168 -8.83793535 41.66644875 -5 28 C-4.70222656 26.97261719 -4.40445313 25.94523438 -4.09765625 24.88671875 C-1.87060621 16.69870892 -0.90778494 8.41570036 0 0 Z " fill="#643E16" transform="translate(681,729)"/>
<path d="M0 0 C0.99 0.495 0.99 0.495 2 1 C2.50763979 3.52891287 2.90186253 6.01030721 3.25 8.5625 C4.42993917 16.33129597 6.05089854 23.93522294 7.9375 31.5625 C8.17823242 32.56031494 8.41896484 33.55812988 8.66699219 34.58618164 C10.21373626 40.72334578 12.21488281 46.32013652 15 52 C15.30462158 52.63591064 15.60924316 53.27182129 15.9230957 53.92700195 C20.28613314 62.86703233 25.27390545 70.60007084 32 78 C32.57363281 78.65484375 33.14726562 79.3096875 33.73828125 79.984375 C43.87566118 90.92016432 58.29648899 97.1685448 73.0859375 97.95703125 C73.71757812 97.97121094 74.34921875 97.98539063 75 98 C75.99 96.515 75.99 96.515 77 95 C77 98.63 77 102.26 77 106 C71.74320366 107.05135927 68.82782239 106.34554817 63.9375 104.75 C58.84454318 103.13917394 53.88245875 101.74223337 48.625 100.75 C35.3790189 97.47469593 25.54929087 84.07584545 18.76391602 72.93286133 C6.34732017 51.55885611 -0.88450812 24.76622748 0 0 Z " fill="#633D15" transform="translate(294,728)"/>
<path d="M0 0 C0.33 0 0.66 0 1 0 C2.27070074 35.48549462 -6.68787 73.21115365 -31.09765625 99.9453125 C-40.5930399 110.03705445 -51.4521092 118.32599572 -65 122 C-65.91657981 116.61509359 -66.11138159 111.45769811 -66 106 C-65.67 106 -65.34 106 -65 106 C-65 107.65 -65 109.3 -65 111 C-52.82249112 106.74711729 -43.16172431 100.01275318 -34 91 C-33.23816406 90.25105469 -32.47632813 89.50210938 -31.69140625 88.73046875 C-10.69817702 66.79127079 -2.69744761 35.70234483 -1.2019043 6.20043945 C-1.00392056 4.04272795 -0.58389624 2.08330611 0 0 Z " fill="#623B14" transform="translate(917,419)"/>
<path d="M0 0 C0.33 0 0.66 0 1 0 C1.10022461 0.79470703 1.20044922 1.58941406 1.30371094 2.40820312 C5.34075798 34.02716113 10.97021389 64.57166097 33 89 C33.75925781 89.85335937 34.51851562 90.70671875 35.30078125 91.5859375 C43.92203697 100.75748614 54.31402252 107.36590548 66 112 C66.495 110.02 66.495 110.02 67 108 C67.18451025 117.41002278 67.18451025 117.41002278 66 122 C45.38863293 116.66947403 29.49227192 99.51571488 18.83618164 81.93603516 C4.49077346 57.43286002 -1.10411955 28.17549506 0 0 Z " fill="#613A13" transform="translate(59,419)"/>
<path d="M0 0 C0.99 0.33 1.98 0.66 3 1 C3.73266602 3.02416992 3.73266602 3.02416992 4.25390625 5.73046875 C4.46313721 6.74608887 4.67236816 7.76170898 4.88793945 8.80810547 C5.11054443 9.92330566 5.33314941 11.03850586 5.5625 12.1875 C13.29760391 48.02773235 27.11433488 81.2025459 50 110 C50.44907715 110.57830566 50.8981543 111.15661133 51.36083984 111.75244141 C54.08048725 115.1721937 54.08048725 115.1721937 58 117 C58.10957031 116.39414062 58.21914063 115.78828125 58.33203125 115.1640625 C59.50441057 108.96856205 61.08338447 103.00539533 63 97 C63.33 97 63.66 97 64 97 C63.6993555 107.59771853 62.09241254 116.85976352 59 127 C55 127 55 127 51.9375 124.4375 C23.75805577 94.39146865 1.26927249 43.22462919 -0.1015625 1.94140625 C-0.06804688 1.30074219 -0.03453125 0.66007812 0 0 Z " fill="#633D14" transform="translate(783,395)"/>
<path d="M0 0 C0.66 0 1.32 0 2 0 C1.48233854 7.84991114 0.28547984 15.34219648 -1.5 23 C-1.75990723 24.11503906 -2.01981445 25.23007812 -2.28759766 26.37890625 C-6.92188263 45.54787242 -13.29468949 64.29165401 -22 82 C-22.33966797 82.70237793 -22.67933594 83.40475586 -23.02929688 84.12841797 C-41.404692 121.77744681 -41.404692 121.77744681 -56 128 C-60.72169509 117.91274231 -61.44831676 108.01914675 -62 97 C-59.64584664 100.53123004 -58.84510267 103.99884771 -57.875 108.0625 C-57.69324219 108.79533203 -57.51148438 109.52816406 -57.32421875 110.28320312 C-56 115.70453477 -56 115.70453477 -56 118 C-23.49373022 92.36191457 -8.99966252 41.50634321 -1.46142578 2.87573242 C-1 1 -1 1 0 0 Z " fill="#623B14" transform="translate(192,395)"/>
<path d="M0 0 C0.66 0 1.32 0 2 0 C-1.29683314 23.94541967 -8.5198271 57.59869651 -27.5 74.5625 C-29.41447661 76.00398827 -31.39238221 77.24185356 -33.43359375 78.5 C-34.25988281 79.015625 -35.08617187 79.53125 -35.9375 80.0625 C-36.70964844 80.50722656 -37.48179687 80.95195312 -38.27734375 81.41015625 C-38.84582031 81.93480469 -39.41429687 82.45945312 -40 83 C-39.96261719 83.80179687 -39.92523438 84.60359375 -39.88671875 85.4296875 C-39.92410156 86.27789062 -39.96148437 87.12609375 -40 88 C-42.4921875 90.09765625 -42.4921875 90.09765625 -45.875 92.0625 C-46.46345703 92.40539062 -47.05191406 92.74828125 -47.65820312 93.1015625 C-54.10706996 96.77664804 -60.41806156 100.3203636 -68 100 C-69.20568053 95.32798795 -69.09382426 90.78503708 -69 86 C-68.34 87.32 -67.68 88.64 -67 90 C-42.37282499 80.92683026 -25.92082405 66.09108447 -14.83984375 42.2265625 C-9.39227761 29.95872429 -5.33871027 17.33822636 -1.9453125 4.3671875 C-1 1 -1 1 0 0 Z " fill="#633D15" transform="translate(321,91)"/>
<path d="M0 0 C3.32458715 2.21639143 3.45821372 2.58749241 4.39453125 6.2265625 C4.73943604 7.51494019 4.73943604 7.51494019 5.09130859 8.8293457 C5.32930176 9.75191162 5.56729492 10.67447754 5.8125 11.625 C11.31717976 31.79682181 18.53202094 50.72232185 32 67 C32.68578125 67.87269531 33.3715625 68.74539062 34.078125 69.64453125 C43.38642224 80.8662007 55.26170767 86.84510612 69 91 C69.99 89.02 69.99 89.02 71 87 C71.18451025 96.41002278 71.18451025 96.41002278 70 101 C59.74312593 100.79486252 49.24885665 95.09462566 42 88 C42 86.68 42 85.36 42 84 C39.53464217 81.98289955 39.53464217 81.98289955 36.375 80.1875 C14.7368795 66.29354894 6.78978907 35.38304162 1.51611328 11.67041016 C0.76635701 7.79111305 0.35250349 3.93426308 0 0 Z " fill="#633D16" transform="translate(654,90)"/>
<path d="M0 0 C0.33 0 0.66 0 1 0 C0.65870561 23.44927843 -0.65699403 49.26525521 -13 70 C-13.6496875 71.09183594 -14.299375 72.18367188 -14.96875 73.30859375 C-21.46509502 83.9450596 -28.44347318 92.55165375 -40 98 C-42.80078125 98.66015625 -42.80078125 98.66015625 -45 99 C-45.81871381 96.31425618 -46.63008988 93.6266428 -47.4375 90.9375 C-47.66759766 90.18533203 -47.89769531 89.43316406 -48.13476562 88.65820312 C-49.97516067 82.49688058 -51.16196694 76.52785101 -51.0625 70.0625 C-51.04896484 68.90427734 -51.04896484 68.90427734 -51.03515625 67.72265625 C-51.02355469 67.15417969 -51.01195312 66.58570313 -51 66 C-48.19365568 68.80634432 -47.81571443 72.06255777 -46.9375 75.8125 C-46.67743164 76.88081055 -46.67743164 76.88081055 -46.41210938 77.97070312 C-45.52787492 81.63299218 -44.70542309 85.29834686 -44 89 C-42.28704215 88.1130414 -40.57985449 87.21493631 -38.875 86.3125 C-37.44800781 85.56419922 -37.44800781 85.56419922 -35.9921875 84.80078125 C-18.42391749 74.22771013 -10.2710891 53.97810329 -5.28515625 35.00390625 C-2.85516348 24.64241708 -2.1358216 13.93771409 -1.29370117 3.35058594 C-1 1 -1 1 0 0 Z " fill="#623C14" transform="translate(232,155)"/>
<path d="M0 0 C0.33 0 0.66 0 1 0 C1.08975098 0.76852295 1.17950195 1.5370459 1.27197266 2.32885742 C4.25369489 27.24647513 7.63173434 53.56617945 24.65234375 73.30078125 C26 75 26 75 27 78 C28.85494723 79.05279021 28.85494723 79.05279021 31 80 C32.31118797 80.95286737 33.60262286 81.93339515 34.875 82.9375 C38.09423775 85.40317086 41.28700721 87.32915324 45 89 C45.21064087 88.15066895 45.21064087 88.15066895 45.42553711 87.28417969 C45.99924894 85.00298638 46.59202455 82.7277017 47.19140625 80.453125 C47.41376953 79.60878906 47.63613281 78.76445312 47.86523438 77.89453125 C48.09533203 77.02183594 48.32542969 76.14914063 48.5625 75.25 C48.79646484 74.36183594 49.03042969 73.47367187 49.27148438 72.55859375 C49.84743371 70.37233709 50.42361322 68.18614136 51 66 C51.33 66 51.66 66 52 66 C52.59493043 77.10536809 50.4603565 88.80489942 46 99 C36.62110788 97.5506863 28.89542994 91.17149703 23 84 C21.3525203 81.57255407 19.86844703 79.11331476 18.43359375 76.5546875 C17.49662615 74.88499592 16.51068487 73.24162412 15.47265625 71.6328125 C2.20437818 51.0382842 -0.29384342 23.92375147 0 0 Z " fill="#623C15" transform="translate(744,155)"/>
<path d="M0 0 C0.33 0 0.66 0 1 0 C1.8010972 24.78950773 -1.57331162 53.36793386 -17.49609375 73.33203125 C-22.98943394 79.18530949 -30.42098021 85.75204356 -38.8125 86.125 C-39.534375 86.08375 -40.25625 86.0425 -41 86 C-46.03966136 75.69160176 -46.29752956 65.32265279 -46 54 C-45.67 54 -45.34 54 -45 54 C-44.52006844 56.54152435 -44.04103273 59.08321222 -43.5625 61.625 C-43.42779297 62.33785156 -43.29308594 63.05070312 -43.15429688 63.78515625 C-42.38981729 67.84995013 -41.66330363 71.91714075 -41 76 C-33.69048014 73.71577504 -27.69442409 71.18447566 -22 66 C-21.40574219 65.45988281 -20.81148437 64.91976562 -20.19921875 64.36328125 C-4.13004801 47.93780961 -2.78768351 21.40734773 0 0 Z " fill="#633C14" transform="translate(890,346)"/>
<path d="M0 0 C0.33 0 0.66 0 1 0 C1.13051758 0.825 1.26103516 1.65 1.39550781 2.5 C7.09809208 42.39661016 7.09809208 42.39661016 28 76 C28.53753906 76.57621094 29.07507813 77.15242187 29.62890625 77.74609375 C35.04057111 82.96787563 42.26936062 85.84472107 49 89 C49.66 85.04 50.32 81.08 51 77 C51.33 77 51.66 77 52 77 C52.30372936 85.00945568 52.50848663 91.69065285 49 99 C45.14036166 97.65662765 42.47830429 95.95394127 39.375 93.3125 C35.84820825 90.38400328 32.34604947 87.97085344 28.375 85.6875 C13.86489396 76.57270099 7.83773876 57.28543675 4.06640625 41.35546875 C1.18934054 27.87002668 -0.32886965 13.7875234 0 0 Z " fill="#633D15" transform="translate(231,689)"/>
<path d="M0 0 C0.33 0 0.66 0 1 0 C1.82886147 28.22733777 -2.21635455 63.14476864 -22 85 C-24.30330406 86.77558232 -26.72818117 88.32550648 -29.1875 89.875 C-34.48228003 93.28327427 -39.47819788 96.80783268 -44.265625 100.91796875 C-45.12414062 101.45357422 -45.12414062 101.45357422 -46 102 C-46.99 101.67 -47.98 101.34 -49 101 C-51.93718291 94.35269131 -51.17799683 87.12976199 -51 80 C-48.7655402 84.03292745 -48.45503257 87.44967434 -48 92 C-34.56313219 85.97857941 -24.85875921 78.77532286 -17 66 C-16.47664062 65.16984375 -15.95328125 64.3396875 -15.4140625 63.484375 C-4.34646804 44.72002703 -1.97601976 21.29421289 0 0 Z " fill="#643E16" transform="translate(745,686)"/>
<path d="M0 0 C2.05917322 3.08875982 2.28309 4.03684419 2.4921875 7.578125 C2.55510986 8.4844165 2.61803223 9.39070801 2.68286133 10.32446289 C2.74626709 11.28989014 2.80967285 12.25531738 2.875 13.25 C3.614073 22.60829305 5.02961219 31.05789504 8 40 C8.37125 41.12792969 8.7425 42.25585938 9.125 43.41796875 C14.04336859 57.21852271 21.5229715 68.84962104 35.078125 75.30859375 C37.35490563 76.12767947 39.62062454 76.57745574 42 77 C42.12117188 76.23816406 42.24234375 75.47632813 42.3671875 74.69140625 C43.38749792 68.40472436 44.55279729 62.20229732 46 56 C46.33 56 46.66 56 47 56 C47.69301031 66.89566214 45.64099862 76.49495637 43 87 C35.27176397 87.38136433 29.29216671 84.03966895 23.3125 79.3125 C5.90591182 63.29843888 1.55018027 37.5565802 0.1171875 15.05859375 C-0.0751897 10.03754873 -0.08146239 5.02351392 0 0 Z " fill="#623B13" transform="translate(86,345)"/>
<path d="M0 0 C0.33 0 0.66 0 1 0 C1.1915718 9.87765468 0.63842614 19.6108144 -0.25 29.4375 C-0.31624573 30.18023163 -0.38249146 30.92296326 -0.45074463 31.6882019 C-5.53705285 87.89605219 -5.53705285 87.89605219 -22.19140625 102.07421875 C-24.54551858 103.27923953 -26.39364503 103.16484638 -29 103 C-35.70862314 90.40984425 -40.24549132 78.65169551 -40.0625 64.125 C-40.05798828 63.43664062 -40.05347656 62.74828125 -40.04882812 62.0390625 C-40.03716336 60.35933665 -40.01923271 58.67965625 -40 57 C-37.53763573 60.6935464 -37.31469274 64.08386581 -36.75 68.375 C-35.65699302 75.88460087 -33.71700982 81.82999568 -30.20703125 88.59375 C-29 91 -29 91 -29 93 C-21.14070139 90.32783847 -17.23918262 85.79544078 -13.4375 78.5 C-9.79010087 70.04038717 -8.32083539 60.75505059 -6.54931641 51.75634766 C-6.19876303 49.99734872 -5.8327947 48.24130412 -5.44677734 46.48974609 C-4.02500091 39.93224536 -3.44951285 33.43791155 -3 26.75 C-2.34384735 17.75805752 -1.49603084 8.89660891 0 0 Z " fill="#633D14" transform="translate(185,517)"/>
<path d="M0 0 C2.38285369 2.38285369 2.2743277 2.98734814 2.421875 6.2421875 C2.47448486 7.12986816 2.52709473 8.01754883 2.58129883 8.93212891 C2.63697021 9.90327637 2.6926416 10.87442383 2.75 11.875 C3.4321354 21.28952145 4.84458391 30.39465463 6.8125 39.625 C7.0487207 40.76050293 7.28494141 41.89600586 7.52832031 43.06591797 C10.15487031 54.93037999 13.89619863 70.10640518 24 78 C26.64184541 78.79681318 26.64184541 78.79681318 29 79 C29.268125 78.13375 29.53625 77.2675 29.8125 76.375 C31 73 31 73 32.4375 70.4375 C35.93704469 62.73850169 37.24419381 54.23029815 37.69140625 45.828125 C37.79324219 45.22484375 37.89507813 44.6215625 38 44 C38.66 43.67 39.32 43.34 40 43 C40.72248143 58.09183435 39.30071081 76.97809072 29 89 C26.75 89.625 26.75 89.625 24 89 C12.80323766 81.95018667 9.01301459 67.64637441 6.12890625 55.42578125 C2.65881394 39.48850654 -0.22284092 22.72977364 -0.0625 6.375 C-0.05347656 5.16585937 -0.04445313 3.95671875 -0.03515625 2.7109375 C-0.02355469 1.81632813 -0.01195312 0.92171875 0 0 Z " fill="#633D14" transform="translate(792,531)"/>
<path d="M0 0 C0.33 0 0.66 0 1 0 C1.8873015 22.87266084 -4.20262127 49.41904625 -20 67 C-20.99 67 -21.98 67 -23 67 C-33.28113053 49.95437836 -39.71746111 33.24834679 -39 13 C-38.67 13 -38.34 13 -38 13 C-37.84442627 13.63389648 -37.68885254 14.26779297 -37.52856445 14.92089844 C-32.7227695 35.47345971 -32.7227695 35.47345971 -23 54 C-23 54.66 -23 55.32 -23 56 C-22.01 56 -21.02 56 -20 56 C-19.73703125 55.44828125 -19.4740625 54.8965625 -19.203125 54.328125 C-17.84964743 51.70905802 -16.30369911 49.25551477 -14.75 46.75 C-6.42692832 32.47446126 -2.14149298 16.30503069 0 0 Z " fill="#633C14" transform="translate(169,270)"/>
<path d="M0 0 C2.2738236 3.4107354 2.64955964 6.30671894 3.25 10.25 C5.8039553 25.09055105 12.51132869 41.16119338 22 53 C24.90241767 49.5710098 27.08229014 46.216567 29.0625 42.1875 C29.79146484 40.72376953 29.79146484 40.72376953 30.53515625 39.23046875 C33.61233706 32.44425933 35.66170773 25.79055608 37.1875 18.5 C37.36474609 17.67757813 37.54199219 16.85515625 37.72460938 16.0078125 C38.15515326 14.00636525 38.57835661 12.00334121 39 10 C39.33 10 39.66 10 40 10 C41.11481255 29.48857497 34.74275837 47.88586245 24 64 C23.01 64 22.02 64 21 64 C19.74487305 62.6015625 19.74487305 62.6015625 18.51171875 60.625 C18.05547119 59.89539063 17.59922363 59.16578125 17.12915039 58.4140625 C16.65340576 57.61742187 16.17766113 56.82078125 15.6875 56 C15.19693115 55.18273437 14.7063623 54.36546875 14.20092773 53.5234375 C4.92072388 37.63998211 -1.30925972 18.54784598 0 0 Z " fill="#643D14" transform="translate(807,273)"/>
<path d="M0 0 C0.33 0 0.66 0 1 0 C1.88008291 20.56786362 -1.94736923 40.54696832 -16.05078125 56.2890625 C-19.3643976 59.72124516 -22.58592403 63.03818846 -27 65 C-28.32 65 -29.64 65 -31 65 C-31.65058529 62.16768453 -32.29556713 59.33427799 -32.9375 56.5 C-33.11990234 55.70851563 -33.30230469 54.91703125 -33.49023438 54.1015625 C-35.27035126 46.20431667 -36.16001555 38.60129144 -36.0625 30.5 C-36.05798828 29.77296875 -36.05347656 29.0459375 -36.04882812 28.296875 C-36.03721193 26.53121319 -36.01928441 24.7655947 -36 23 C-35.67 23 -35.34 23 -35 23 C-34.82609741 24.13429443 -34.82609741 24.13429443 -34.64868164 25.29150391 C-34.12035382 28.736064 -33.59143254 32.18053272 -33.0625 35.625 C-32.88009766 36.81480469 -32.69769531 38.00460937 -32.50976562 39.23046875 C-32.33251953 40.38417969 -32.15527344 41.53789063 -31.97265625 42.7265625 C-31.81031494 43.78439941 -31.64797363 44.84223633 -31.48071289 45.93212891 C-31.00654757 48.95821396 -30.50868751 51.97954418 -30 55 C-15.76793118 47.44829001 -8.85430761 36.25894488 -4 21 C-2.10681337 14.06620398 -0.70125326 7.15278321 0 0 Z " fill="#633C14" transform="translate(796,649)"/>
<path d="M0 0 C0.33 0 0.66 0 1 0 C1.20753906 1.1859375 1.41507813 2.371875 1.62890625 3.59375 C5.04445986 21.97168126 10.56164941 38.03956738 25.984375 49.6875 C28.06135467 51.16082531 28.06135467 51.16082531 31 52 C31.65111597 48.52180095 32.29490749 45.04228298 32.9375 41.5625 C33.11990234 40.58861328 33.30230469 39.61472656 33.49023438 38.61132812 C34.56860782 32.74889793 35.41717076 26.93258813 36 21 C36.33 21 36.66 21 37 21 C37.51716037 35.05910051 36.07937075 48.50260375 32 62 C23.92037095 61.26015025 19.38656344 55.80529255 14.19921875 49.9765625 C4.37958963 37.54344036 -0.25684998 20.80484809 -0.0625 5.0625 C-0.05347656 4.10472656 -0.04445312 3.14695312 -0.03515625 2.16015625 C-0.02355469 1.44730469 -0.01195312 0.73445312 0 0 Z " fill="#613B13" transform="translate(180,652)"/>
<path d="M0 0 C0.33 0 0.66 0 1 0 C1.50579714 3.04080421 2.00480759 6.08246646 2.5 9.125 C2.64308594 9.9809375 2.78617188 10.836875 2.93359375 11.71875 C3.65695734 16.19671505 4.17918816 20.44563435 4 25 C3.01 24.67 2.02 24.34 1 24 C-0.32915021 16.02509872 -0.08801359 8.05813281 0 0 Z " fill="#6D481A" transform="translate(760,672)"/>
<path d="M0 0 C0.66 0 1.32 0 2 0 C2.07291684 4.59376103 2.08129756 9.16576635 1.75 13.75 C1.70359375 14.44609375 1.6571875 15.1421875 1.609375 15.859375 C0.76187582 18.8364875 -0.98533919 20.69522803 -3 23 C-2.688288 20.47906702 -2.37565098 17.9582543 -2.0625 15.4375 C-1.97548828 14.73302734 -1.88847656 14.02855469 -1.79882812 13.30273438 C-1.24615509 8.86088073 -0.64605404 4.42925336 0 0 Z " fill="#6D481C" transform="translate(681,729)"/>
<path d="M0 0 C0.33 0 0.66 0 1 0 C1.50421729 3.74944556 2.00264031 7.49963913 2.5 11.25 C2.64308594 12.31347656 2.78617188 13.37695312 2.93359375 14.47265625 C3.06894531 15.49746094 3.20429687 16.52226562 3.34375 17.578125 C3.53227539 18.99206543 3.53227539 18.99206543 3.72460938 20.43457031 C4 23 4 23 4 27 C3.01 26.67 2.02 26.34 1 26 C-0.16711095 17.33003296 -0.09744014 8.72630608 0 0 Z " fill="#694316" transform="translate(59,419)"/>
<path d="M0 0 C0.33 0 0.66 0 1 0 C1 5.28 1 10.56 1 16 C0.34 16.33 -0.32 16.66 -1 17 C-2.13350534 19.01669827 -2.13350534 19.01669827 -3 21 C-4.42077358 18.15845283 -3.34534358 16.3059547 -2.54296875 13.37109375 C-1.75761271 9.94151736 -1.50815782 6.50700766 -1.24609375 3.00390625 C-1 1 -1 1 0 0 Z " fill="#77521A" transform="translate(831,574)"/>
<path d="M0 0 C0.33 0 0.66 0 1 0 C1.41732107 8.79851917 1.71248522 16.23702211 -3 24 C-4.37652616 20.22831833 -3.60432755 17.51047129 -2.625 13.6875 C-1.49781456 9.11699463 -0.54335818 4.67288032 0 0 Z " fill="#6C4617" transform="translate(169,270)"/>
<path d="M0 0 C2.26954631 3.40431947 2.36549949 5.16524202 2.625 9.1875 C2.69976562 10.27417969 2.77453125 11.36085938 2.8515625 12.48046875 C2.92503906 13.72763672 2.92503906 13.72763672 3 15 C2.01 15 1.02 15 0 15 C0 10.05 0 5.1 0 0 Z " fill="#704B18" transform="translate(145,574)"/>
<path d="M0 0 C0.33 0 0.66 0 1 0 C1 5.94 1 11.88 1 18 C0.01 18 -0.98 18 -2 18 C-1.34 12.06 -0.68 6.12 0 0 Z " fill="#7B5929" transform="translate(756,506)"/>
<path d="M0 0 C1.88646445 2.77421243 1.99303187 4.13239454 1.8125 7.5625 C0.99059502 11.03979031 0.52809111 11.75810788 -2 14 C-1.85795259 12.41632253 -1.71119847 10.83306682 -1.5625 9.25 C-1.48128906 8.36828125 -1.40007812 7.4865625 -1.31640625 6.578125 C-1.03761535 4.30649548 -0.61209423 2.20148177 0 0 Z " fill="#704A18" transform="translate(181,556)"/>
<path d="M0 0 C0.33 0 0.66 0 1 0 C1.66 6.27 2.32 12.54 3 19 C2.01 19 1.02 19 0 19 C0 12.73 0 6.46 0 0 Z " fill="#866631" transform="translate(219,498)"/>
<path d="M0 0 C0.33 0 0.66 0 1 0 C1.02689216 1.47906892 1.04634621 2.95827483 1.0625 4.4375 C1.07410156 5.26121094 1.08570313 6.08492187 1.09765625 6.93359375 C1 9 1 9 0 10 C-0.36760731 12.32817964 -0.70241581 14.6618385 -1 17 C-1.33 17 -1.66 17 -2 17 C-2.11116338 11.55299453 -2.00581962 6.36437132 -1 1 C-0.67 0.67 -0.34 0.34 0 0 Z " fill="#765A1F" transform="translate(232,155)"/>
<path d="M0 0 C0.66 0 1.32 0 2 0 C2.41176754 3.60296594 2.1535853 4.78402067 0 7.8125 C-0.66 8.534375 -1.32 9.25625 -2 10 C-1.85950482 8.52031676 -1.71245174 7.04125484 -1.5625 5.5625 C-1.48128906 4.73878906 -1.40007812 3.91507812 -1.31640625 3.06640625 C-1 1 -1 1 0 0 Z " fill="#6A4416" transform="translate(192,395)"/>
</svg>
