<?xml version="1.0" encoding="UTF-8"?>
<svg version="1.1" xmlns="http://www.w3.org/2000/svg" width="512" height="512">
<path d="M0 0 C6.00573332 4.77287092 11.41036187 10.25701303 16.83105469 15.66992188 C17.67435837 16.50826065 18.51766205 17.34659943 19.38652039 18.21034241 C21.6754365 20.48725087 23.96210136 22.76638514 26.24725628 25.04706764 C27.67876255 26.47562335 29.11084563 27.90359843 30.54309845 29.33140564 C35.0357608 33.81044063 39.5264518 38.29143803 44.01424575 42.77535105 C49.17478518 47.93140109 54.34181828 53.08082555 59.51454425 58.22464895 C63.52939612 62.21785119 67.53843242 66.21683192 71.5431416 70.22020578 C73.92835814 72.60437799 76.31590516 74.9860949 78.70955658 77.36180115 C81.37568243 80.01085865 84.03216796 82.66923391 86.68652344 85.33007812 C87.47308823 86.10742813 88.25965302 86.88477814 89.0700531 87.6856842 C94.86568983 93.52578123 99.56099042 98.73370641 99.625 107.375 C99.41944837 113.98310433 97.53032027 118.22335026 93 123 C87.79495539 126.96574827 82.45491716 127.6442761 76 127 C66.74984288 124.19191659 60.23013868 116.38134058 53.57421875 109.68774414 C52.88054703 108.99421844 52.18687531 108.30069275 51.47218323 107.58615112 C49.20824012 105.32151826 46.94784741 103.05337751 44.6875 100.78515625 C43.1073156 99.20310434 41.52690847 97.62127488 39.94628906 96.03965759 C35.80789763 91.89746722 31.67251946 87.75228143 27.53778076 83.60644531 C23.30956981 79.36796357 19.07848948 75.13234829 14.84765625 70.89648438 C6.56230775 62.60044488 -1.71985738 54.30123518 -10 46 C-12.95078995 47.32939602 -15.01974926 48.77408824 -17.29466248 51.06761169 C-17.92399689 51.6970871 -18.5533313 52.3265625 -19.20173645 52.97511292 C-19.88080551 53.66451462 -20.55987457 54.35391632 -21.25952148 55.06420898 C-21.98359192 55.79119995 -22.70766235 56.51819092 -23.45367432 57.26721191 C-25.0246038 58.84574976 -26.5932185 60.42659381 -28.15978813 62.00945854 C-30.63934325 64.51453106 -33.12508447 67.01331107 -35.61256409 69.51051331 C-41.78972248 75.7144226 -47.95600888 81.92910278 -54.12268066 88.14343262 C-59.33315264 93.39335446 -64.54768681 98.63917649 -69.76771736 103.8795948 C-72.21632631 106.3411687 -74.65883156 108.80869166 -77.10118103 111.276474 C-78.60418491 112.7867439 -80.10747084 114.29673317 -81.61108398 115.80639648 C-82.28812881 116.49377396 -82.96517365 117.18115143 -83.66273499 117.88935852 C-89.30891027 123.53679309 -93.7288807 126.7199266 -101.8125 127.25 C-107.42512088 127.15610857 -111.50517912 125.29098167 -115.75 121.625 C-119.68671006 117.0321716 -121.44125735 113.81876429 -121.5 107.6875 C-121.5309375 106.61886719 -121.561875 105.55023438 -121.59375 104.44921875 C-120.0934878 95.73387977 -113.10404779 89.67642637 -107.06640625 83.6940918 C-106.17637909 82.80041397 -105.28635193 81.90673615 -104.36935425 80.98597717 C-101.94649477 78.55377891 -99.51442096 76.13099905 -97.08021164 73.71016669 C-94.52595333 71.16729146 -91.97948164 68.61663864 -89.43188477 66.0670929 C-85.15672172 61.79104944 -80.8756442 57.52100013 -76.59082031 53.25463867 C-71.64305351 48.32806947 -66.70420808 43.39269522 -61.77014637 38.45240277 C-57.01161489 33.68817112 -52.24742486 28.9296388 -47.48043823 24.17386818 C-45.45649002 22.15455383 -43.43442562 20.13338071 -41.41384888 18.11069298 C-38.59294408 15.28754973 -35.76373296 12.47282284 -32.93359375 9.65893555 C-31.68193924 8.40356491 -31.68193924 8.40356491 -30.40499878 7.12283325 C-29.63124908 6.35616837 -28.85749939 5.58950348 -28.06030273 4.79960632 C-27.39296616 4.13432261 -26.72562958 3.46903891 -26.03807068 2.78359509 C-18.51150395 -3.80319681 -8.74332023 -5.43740413 0 0 Z " fill="#000000" transform="translate(267,194)"/>
</svg>
