<?xml version="1.0" encoding="UTF-8"?>
<svg version="1.1" xmlns="http://www.w3.org/2000/svg" width="512" height="512">
<path d="M0 0 C0.65677734 -0.03287109 1.31355469 -0.06574219 1.99023438 -0.09960938 C11.31573188 -0.19872094 18.16624106 4.88816506 24.60220337 11.12593079 C27.00683837 13.49737095 29.37848751 15.89997462 31.74853516 18.3059082 C33.06911536 19.62790076 34.39080148 20.94878937 35.71350098 22.2686615 C39.28192611 25.83565842 42.83477782 29.41780419 46.38493776 33.00296807 C50.10482891 36.75422175 53.838987 40.49121936 57.57162476 44.2297821 C64.62915247 51.30281915 71.6738429 58.3884989 78.71395814 65.47886294 C86.73313167 73.55402038 94.7665925 81.61490005 102.80125737 89.67463934 C119.32089895 106.24647318 135.82260755 122.8360676 152.3125 139.4375 C156.24037177 137.84783395 158.86647038 135.14428482 161.78215027 132.17471313 C162.32233034 131.63271408 162.86251041 131.09071503 163.41905957 130.53229177 C165.22840962 128.71452664 167.03049855 126.88972922 168.83276367 125.06494141 C170.12861168 123.76034378 171.42493916 122.45622225 172.72171021 121.15254211 C175.51430995 118.34344712 178.303919 115.53142678 181.09139061 112.71724319 C185.50227954 108.26499845 189.92238818 103.82198595 194.34431458 99.38070679 C206.91770369 86.74973525 219.48113045 74.10891351 232.02954102 61.453125 C238.95941161 54.46411439 245.89825549 47.48414148 252.84700185 40.51389635 C257.24188732 36.10439375 261.62547506 31.6840543 266.00101602 27.25535989 C268.7314397 24.49712395 271.47235492 21.74950224 274.21631241 19.00473595 C275.48282437 17.73366926 276.74505911 16.4583234 278.00255394 15.17833519 C292.01751222 0.9230058 292.01751222 0.9230058 302.33984375 -0.12890625 C324.47272278 -0.10679548 336.80408262 16.76666097 351.4921875 31.4140625 C352.19081028 32.1098579 352.88943306 32.80565331 353.60922623 33.52253342 C357.29521444 37.19366882 360.97842734 40.86756058 364.65917969 44.54394531 C368.43812502 48.31737736 372.22628889 52.08141322 376.01661491 55.84340858 C378.95574789 58.76386178 381.88809694 61.69105612 384.81866837 64.62009811 C386.21231248 66.01073529 387.60843362 67.39889504 389.00716782 68.78441238 C409.63075822 89.22670829 409.63075822 89.22670829 409.75 103.125 C409.78287109 103.78177734 409.81574219 104.43855469 409.84960938 105.11523438 C409.94872094 114.44073188 404.86183494 121.29124106 398.62406921 127.72720337 C396.25262905 130.13183837 393.85002538 132.50348751 391.4440918 134.87353516 C390.12209924 136.19411536 388.80121063 137.51580148 387.4813385 138.83850098 C383.91434158 142.40692611 380.33219581 145.95977782 376.74703193 149.50993776 C372.99577825 153.22982891 369.25878064 156.963987 365.5202179 160.69662476 C358.44718085 167.75415247 351.3615011 174.7988429 344.27113706 181.83895814 C336.19597962 189.85813167 328.13509995 197.8915925 320.07536066 205.92625737 C303.50352682 222.44589895 286.9139324 238.94760755 270.3125 255.4375 C271.90216605 259.36537177 274.60571518 261.99147038 277.57528687 264.90715027 C278.11728592 265.44733034 278.65928497 265.98751041 279.21770823 266.54405957 C281.03547336 268.35340962 282.86027078 270.15549855 284.68505859 271.95776367 C285.98965622 273.25361168 287.29377775 274.54993916 288.59745789 275.84671021 C291.40655288 278.63930995 294.21857322 281.428919 297.03275681 284.21639061 C301.48500155 288.62727954 305.92801405 293.04738818 310.36929321 297.46931458 C323.00026475 310.04270369 335.64108649 322.60613045 348.296875 335.15454102 C355.28588561 342.08441161 362.26585852 349.02325549 369.23610365 355.97200185 C373.64560625 360.36688732 378.0659457 364.75047506 382.49464011 369.12601602 C385.25287605 371.8564397 388.00049776 374.59735492 390.74526405 377.34131241 C392.01633074 378.60782437 393.2916766 379.87005911 394.57166481 381.12755394 C408.8269942 395.14251222 408.8269942 395.14251222 409.87890625 405.46484375 C409.87761719 406.75519531 409.87632812 408.04554688 409.875 409.375 C409.89691406 410.66277344 409.91882813 411.95054687 409.94140625 413.27734375 C409.10258144 422.6109351 402.83699879 429.6490716 396.45214844 435.94482422 C395.67583572 436.72989853 394.89952301 437.51497284 394.09968567 438.32383728 C391.55277096 440.89259962 388.9881935 443.44282152 386.421875 445.9921875 C384.63381098 447.78362344 382.84648943 449.57580074 381.05987549 451.36868286 C377.32224959 455.11366008 373.5759861 458.84977503 369.82275391 462.57910156 C365.49903121 466.87559999 361.19364184 471.18984053 356.89729095 475.51369655 C352.74239544 479.69411152 348.57342034 483.86026502 344.39844513 488.0206337 C342.63260552 489.78314831 340.87044377 491.54935599 339.11211395 493.31936264 C336.65014704 495.79408565 334.17261491 498.25212143 331.69042969 500.70654297 C330.97323257 501.43386124 330.25603546 502.1611795 329.5171051 502.91053772 C322.69671466 509.59089243 315.96993221 513.00958535 306.375 513 C305.08722656 513.02191406 303.79945313 513.04382813 302.47265625 513.06640625 C290.58327561 511.89435004 282.74972543 502.56156488 274.87646484 494.5690918 C273.55588464 493.24709924 272.23419852 491.92621063 270.91149902 490.6063385 C267.34307389 487.03934158 263.79022218 483.45719581 260.24006224 479.87203193 C256.52017109 476.12077825 252.786013 472.38378064 249.05337524 468.6452179 C241.99584753 461.57218085 234.9511571 454.4865011 227.91104186 447.39613706 C219.89186833 439.32097962 211.8584075 431.26009995 203.82374263 423.20036066 C187.30410105 406.62852682 170.80239245 390.0389324 154.3125 373.4375 C150.38462823 375.02716605 147.75852962 377.73071518 144.84284973 380.70028687 C144.30266966 381.24228592 143.76248959 381.78428497 143.20594043 382.34270823 C141.39659038 384.16047336 139.59450145 385.98527078 137.79223633 387.81005859 C136.49638832 389.11465622 135.20006084 390.41877775 133.90328979 391.72245789 C131.11069005 394.53155288 128.321081 397.34357322 125.53360939 400.15775681 C121.12272046 404.61000155 116.70261182 409.05301405 112.28068542 413.49429321 C99.70729631 426.12526475 87.14386955 438.76608649 74.59545898 451.421875 C67.66558839 458.41088561 60.72674451 465.39085852 53.77799815 472.36110365 C49.38311268 476.77060625 44.99952494 481.1909457 40.62398398 485.61964011 C37.8935603 488.37787605 35.15264508 491.12549776 32.40868759 493.87026405 C31.14217563 495.14133074 29.87994089 496.4166766 28.62244606 497.69666481 C14.60748778 511.9519942 14.60748778 511.9519942 4.28515625 513.00390625 C2.99480469 513.00261719 1.70445313 513.00132812 0.375 513 C-0.91277344 513.02191406 -2.20054688 513.04382813 -3.52734375 513.06640625 C-14.7955889 511.97203276 -22.11646195 503.63821062 -29.5 495.9375 C-30.51898471 494.89336118 -31.53916132 493.85038416 -32.56054688 492.80859375 C-34.43700884 490.8917117 -36.30461648 488.96757015 -38.16723633 487.03710938 C-40.64885764 484.47735894 -43.16231142 481.95424156 -45.6875 479.4375 C-46.81404713 478.30663945 -47.94006324 477.17524978 -49.06567383 476.04345703 C-52.47371307 472.61751588 -55.88488478 469.19471177 -59.29711914 465.77294922 C-60.76123997 464.30379816 -62.22446221 462.83375103 -63.68676758 461.36279297 C-65.81610989 459.22121444 -67.94876016 457.08297668 -70.08203125 454.9453125 C-70.72501663 454.29716583 -71.36800201 453.64901917 -72.0304718 452.98123169 C-75.87568224 449.13555575 -79.83552044 445.48144486 -83.95692444 441.93292236 C-92.4961841 434.55399009 -101.85712735 425.57515197 -103.05859375 413.80078125 C-103.09152156 412.45074091 -103.11341418 411.10039214 -103.125 409.75 C-103.15787109 409.09322266 -103.19074219 408.43644531 -103.22460938 407.75976562 C-103.32372094 398.43426812 -98.23683494 391.58375894 -91.99906921 385.14779663 C-89.62762905 382.74316163 -87.22502538 380.37151249 -84.8190918 378.00146484 C-83.49709924 376.68088464 -82.17621063 375.35919852 -80.8563385 374.03649902 C-77.28934158 370.46807389 -73.70719581 366.91522218 -70.12203193 363.36506224 C-66.37077825 359.64517109 -62.63378064 355.911013 -58.8952179 352.17837524 C-51.82218085 345.12084753 -44.7365011 338.0761571 -37.64613706 331.03604186 C-29.57097962 323.01686833 -21.51009995 314.9834075 -13.45036066 306.94874263 C3.12147318 290.42910105 19.7110676 273.92739245 36.3125 257.4375 C34.72283395 253.50962823 32.01928482 250.88352962 29.04971313 247.96784973 C28.50771408 247.42766966 27.96571503 246.88748959 27.40729177 246.33094043 C25.58952664 244.52159038 23.76472922 242.71950145 21.93994141 240.91723633 C20.63534378 239.62138832 19.33122225 238.32506084 18.02754211 237.02828979 C15.21844712 234.23569005 12.40642678 231.446081 9.59224319 228.65860939 C5.13999845 224.24772046 0.69698595 219.82761182 -3.74429321 215.40568542 C-16.37526475 202.83229631 -29.01608649 190.26886955 -41.671875 177.72045898 C-48.66088561 170.79058839 -55.64085852 163.85174451 -62.61110365 156.90299815 C-67.02060625 152.50811268 -71.4409457 148.12452494 -75.86964011 143.74898398 C-78.62787605 141.0185603 -81.37549776 138.27764508 -84.12026405 135.53368759 C-85.39133074 134.26717563 -86.6666766 133.00494089 -87.94666481 131.74744606 C-102.2019942 117.73248778 -102.2019942 117.73248778 -103.25390625 107.41015625 C-103.23179548 85.27727722 -86.35833903 72.94591738 -71.7109375 58.2578125 C-71.0151421 57.55918972 -70.31934669 56.86056694 -69.60246658 56.14077377 C-65.93133118 52.45478556 -62.25743942 48.77157266 -58.58105469 45.09082031 C-54.80762264 41.31187498 -51.04358678 37.52371111 -47.28159142 33.73338509 C-44.36113822 30.79425211 -41.43394388 27.86190306 -38.50490189 24.93133163 C-37.11426471 23.53768752 -35.72610496 22.14156638 -34.34058762 20.74283218 C-13.89829171 0.11924178 -13.89829171 0.11924178 0 0 Z " fill="#F64253" transform="translate(102.6875,-0.4375)"/>
<path d="M0 0 C0.65677734 -0.03287109 1.31355469 -0.06574219 1.99023438 -0.09960938 C11.31573188 -0.19872094 18.16624106 4.88816506 24.60220337 11.12593079 C27.00683837 13.49737095 29.37848751 15.89997462 31.74853516 18.3059082 C33.06911536 19.62790076 34.39080148 20.94878937 35.71350098 22.2686615 C39.28192611 25.83565842 42.83477782 29.41780419 46.38493776 33.00296807 C50.10482891 36.75422175 53.838987 40.49121936 57.57162476 44.2297821 C64.62915247 51.30281915 71.6738429 58.3884989 78.71395814 65.47886294 C86.73313167 73.55402038 94.7665925 81.61490005 102.80125737 89.67463934 C119.32089895 106.24647318 135.82260755 122.8360676 152.3125 139.4375 C156.24037177 137.84783395 158.86647038 135.14428482 161.78215027 132.17471313 C162.32233034 131.63271408 162.86251041 131.09071503 163.41905957 130.53229177 C165.22840962 128.71452664 167.03049855 126.88972922 168.83276367 125.06494141 C170.12861168 123.76034378 171.42493916 122.45622225 172.72171021 121.15254211 C175.51430995 118.34344712 178.303919 115.53142678 181.09139061 112.71724319 C185.50227954 108.26499845 189.92238818 103.82198595 194.34431458 99.38070679 C206.91770369 86.74973525 219.48113045 74.10891351 232.02954102 61.453125 C238.95941161 54.46411439 245.89825549 47.48414148 252.84700185 40.51389635 C257.24188732 36.10439375 261.62547506 31.6840543 266.00101602 27.25535989 C268.7314397 24.49712395 271.47235492 21.74950224 274.21631241 19.00473595 C275.48282437 17.73366926 276.74505911 16.4583234 278.00255394 15.17833519 C292.01751222 0.9230058 292.01751222 0.9230058 302.33984375 -0.12890625 C324.47272278 -0.10679548 336.80408262 16.76666097 351.4921875 31.4140625 C352.19081028 32.1098579 352.88943306 32.80565331 353.60922623 33.52253342 C357.29521444 37.19366882 360.97842734 40.86756058 364.65917969 44.54394531 C368.43812502 48.31737736 372.22628889 52.08141322 376.01661491 55.84340858 C378.95574789 58.76386178 381.88809694 61.69105612 384.81866837 64.62009811 C386.21231248 66.01073529 387.60843362 67.39889504 389.00716782 68.78441238 C409.63075822 89.22670829 409.63075822 89.22670829 409.75 103.125 C409.78287109 103.78177734 409.81574219 104.43855469 409.84960938 105.11523438 C409.94872094 114.44073188 404.86183494 121.29124106 398.62406921 127.72720337 C396.25262905 130.13183837 393.85002538 132.50348751 391.4440918 134.87353516 C390.12209924 136.19411536 388.80121063 137.51580148 387.4813385 138.83850098 C383.91434158 142.40692611 380.33219581 145.95977782 376.74703193 149.50993776 C372.99577825 153.22982891 369.25878064 156.963987 365.5202179 160.69662476 C358.44718085 167.75415247 351.3615011 174.7988429 344.27113706 181.83895814 C336.19597962 189.85813167 328.13509995 197.8915925 320.07536066 205.92625737 C303.50352682 222.44589895 286.9139324 238.94760755 270.3125 255.4375 C271.90216605 259.36537177 274.60571518 261.99147038 277.57528687 264.90715027 C278.11728592 265.44733034 278.65928497 265.98751041 279.21770823 266.54405957 C281.03547336 268.35340962 282.86027078 270.15549855 284.68505859 271.95776367 C285.98965622 273.25361168 287.29377775 274.54993916 288.59745789 275.84671021 C291.40655288 278.63930995 294.21857322 281.428919 297.03275681 284.21639061 C301.48500155 288.62727954 305.92801405 293.04738818 310.36929321 297.46931458 C323.00026475 310.04270369 335.64108649 322.60613045 348.296875 335.15454102 C355.28588561 342.08441161 362.26585852 349.02325549 369.23610365 355.97200185 C373.64560625 360.36688732 378.0659457 364.75047506 382.49464011 369.12601602 C385.25287605 371.8564397 388.00049776 374.59735492 390.74526405 377.34131241 C392.01633074 378.60782437 393.2916766 379.87005911 394.57166481 381.12755394 C408.8269942 395.14251222 408.8269942 395.14251222 409.87890625 405.46484375 C409.87761719 406.75519531 409.87632812 408.04554688 409.875 409.375 C409.89691406 410.66277344 409.91882813 411.95054687 409.94140625 413.27734375 C409.10258144 422.6109351 402.83699879 429.6490716 396.45214844 435.94482422 C395.67583572 436.72989853 394.89952301 437.51497284 394.09968567 438.32383728 C391.55277096 440.89259962 388.9881935 443.44282152 386.421875 445.9921875 C384.63381098 447.78362344 382.84648943 449.57580074 381.05987549 451.36868286 C377.32224959 455.11366008 373.5759861 458.84977503 369.82275391 462.57910156 C365.49903121 466.87559999 361.19364184 471.18984053 356.89729095 475.51369655 C352.74239544 479.69411152 348.57342034 483.86026502 344.39844513 488.0206337 C342.63260552 489.78314831 340.87044377 491.54935599 339.11211395 493.31936264 C336.65014704 495.79408565 334.17261491 498.25212143 331.69042969 500.70654297 C330.97323257 501.43386124 330.25603546 502.1611795 329.5171051 502.91053772 C322.69671466 509.59089243 315.96993221 513.00958535 306.375 513 C305.08722656 513.02191406 303.79945313 513.04382813 302.47265625 513.06640625 C290.58327561 511.89435004 282.74972543 502.56156488 274.87646484 494.5690918 C273.55588464 493.24709924 272.23419852 491.92621063 270.91149902 490.6063385 C267.34307389 487.03934158 263.79022218 483.45719581 260.24006224 479.87203193 C256.52017109 476.12077825 252.786013 472.38378064 249.05337524 468.6452179 C241.99584753 461.57218085 234.9511571 454.4865011 227.91104186 447.39613706 C219.89186833 439.32097962 211.8584075 431.26009995 203.82374263 423.20036066 C187.30410105 406.62852682 170.80239245 390.0389324 154.3125 373.4375 C150.38462823 375.02716605 147.75852962 377.73071518 144.84284973 380.70028687 C144.30266966 381.24228592 143.76248959 381.78428497 143.20594043 382.34270823 C141.39659038 384.16047336 139.59450145 385.98527078 137.79223633 387.81005859 C136.49638832 389.11465622 135.20006084 390.41877775 133.90328979 391.72245789 C131.11069005 394.53155288 128.321081 397.34357322 125.53360939 400.15775681 C121.12272046 404.61000155 116.70261182 409.05301405 112.28068542 413.49429321 C99.70729631 426.12526475 87.14386955 438.76608649 74.59545898 451.421875 C67.66558839 458.41088561 60.72674451 465.39085852 53.77799815 472.36110365 C49.38311268 476.77060625 44.99952494 481.1909457 40.62398398 485.61964011 C37.8935603 488.37787605 35.15264508 491.12549776 32.40868759 493.87026405 C31.14217563 495.14133074 29.87994089 496.4166766 28.62244606 497.69666481 C14.60748778 511.9519942 14.60748778 511.9519942 4.28515625 513.00390625 C2.99480469 513.00261719 1.70445313 513.00132812 0.375 513 C-0.91277344 513.02191406 -2.20054688 513.04382813 -3.52734375 513.06640625 C-14.7955889 511.97203276 -22.11646195 503.63821062 -29.5 495.9375 C-30.51898471 494.89336118 -31.53916132 493.85038416 -32.56054688 492.80859375 C-34.43700884 490.8917117 -36.30461648 488.96757015 -38.16723633 487.03710938 C-40.64885764 484.47735894 -43.16231142 481.95424156 -45.6875 479.4375 C-46.81404713 478.30663945 -47.94006324 477.17524978 -49.06567383 476.04345703 C-52.47371307 472.61751588 -55.88488478 469.19471177 -59.29711914 465.77294922 C-60.76123997 464.30379816 -62.22446221 462.83375103 -63.68676758 461.36279297 C-65.81610989 459.22121444 -67.94876016 457.08297668 -70.08203125 454.9453125 C-70.72501663 454.29716583 -71.36800201 453.64901917 -72.0304718 452.98123169 C-75.87568224 449.13555575 -79.83552044 445.48144486 -83.95692444 441.93292236 C-92.4961841 434.55399009 -101.85712735 425.57515197 -103.05859375 413.80078125 C-103.09152156 412.45074091 -103.11341418 411.10039214 -103.125 409.75 C-103.15787109 409.09322266 -103.19074219 408.43644531 -103.22460938 407.75976562 C-103.32372094 398.43426812 -98.23683494 391.58375894 -91.99906921 385.14779663 C-89.62762905 382.74316163 -87.22502538 380.37151249 -84.8190918 378.00146484 C-83.49709924 376.68088464 -82.17621063 375.35919852 -80.8563385 374.03649902 C-77.28934158 370.46807389 -73.70719581 366.91522218 -70.12203193 363.36506224 C-66.37077825 359.64517109 -62.63378064 355.911013 -58.8952179 352.17837524 C-51.82218085 345.12084753 -44.7365011 338.0761571 -37.64613706 331.03604186 C-29.57097962 323.01686833 -21.51009995 314.9834075 -13.45036066 306.94874263 C3.12147318 290.42910105 19.7110676 273.92739245 36.3125 257.4375 C34.72283395 253.50962823 32.01928482 250.88352962 29.04971313 247.96784973 C28.50771408 247.42766966 27.96571503 246.88748959 27.40729177 246.33094043 C25.58952664 244.52159038 23.76472922 242.71950145 21.93994141 240.91723633 C20.63534378 239.62138832 19.33122225 238.32506084 18.02754211 237.02828979 C15.21844712 234.23569005 12.40642678 231.446081 9.59224319 228.65860939 C5.13999845 224.24772046 0.69698595 219.82761182 -3.74429321 215.40568542 C-16.37526475 202.83229631 -29.01608649 190.26886955 -41.671875 177.72045898 C-48.66088561 170.79058839 -55.64085852 163.85174451 -62.61110365 156.90299815 C-67.02060625 152.50811268 -71.4409457 148.12452494 -75.86964011 143.74898398 C-78.62787605 141.0185603 -81.37549776 138.27764508 -84.12026405 135.53368759 C-85.39133074 134.26717563 -86.6666766 133.00494089 -87.94666481 131.74744606 C-102.2019942 117.73248778 -102.2019942 117.73248778 -103.25390625 107.41015625 C-103.23179548 85.27727722 -86.35833903 72.94591738 -71.7109375 58.2578125 C-71.0151421 57.55918972 -70.31934669 56.86056694 -69.60246658 56.14077377 C-65.93133118 52.45478556 -62.25743942 48.77157266 -58.58105469 45.09082031 C-54.80762264 41.31187498 -51.04358678 37.52371111 -47.28159142 33.73338509 C-44.36113822 30.79425211 -41.43394388 27.86190306 -38.50490189 24.93133163 C-37.11426471 23.53768752 -35.72610496 22.14156638 -34.34058762 20.74283218 C-13.89829171 0.11924178 -13.89829171 0.11924178 0 0 Z M-3.69937134 32.19540405 C-4.31635391 32.80674698 -4.93333649 33.4180899 -5.5690155 34.04795837 C-6.24442886 34.7274202 -6.91984222 35.40688202 -7.61572266 36.10693359 C-8.32802536 36.81573166 -9.04032806 37.52452972 -9.7742157 38.25480652 C-12.13840468 40.61015914 -14.49516362 42.97279313 -16.8515625 45.3359375 C-18.48508889 46.96811779 -20.11891216 48.60000099 -21.75302124 50.2315979 C-25.18106221 53.65668501 -28.60544589 57.08537738 -32.02734375 60.51660156 C-36.42371882 64.92437121 -40.82900924 69.32310357 -45.23707008 73.71918297 C-48.61372997 77.08863134 -51.98563074 80.4628097 -55.35609055 83.83845901 C-56.97900741 85.46271434 -58.60342305 87.08547349 -60.22932816 88.70673752 C-62.49710379 90.96945962 -64.75841144 93.23844956 -67.01806641 95.50927734 C-67.69752823 96.1846907 -68.37699005 96.86010406 -69.07704163 97.5559845 C-69.68838455 98.17296707 -70.29972748 98.78994965 -70.92959595 99.42562866 C-71.46532541 99.96211218 -72.00105488 100.4985957 -72.55301857 101.05133629 C-73.898618 102.39691606 -73.898618 102.39691606 -73.6875 104.4375 C-72.34356047 105.80255184 -72.34356047 105.80255184 -70.50909424 107.25097656 C-64.19026643 112.63157963 -58.40860752 118.56011129 -52.54199219 124.421875 C-51.2273112 125.73192005 -49.91243566 127.04176989 -48.59738159 128.35144043 C-45.04559377 131.89018564 -41.49707738 135.43219286 -37.94957638 138.97523499 C-35.73077949 141.19109074 -33.51140118 143.40636255 -31.29184723 145.62145996 C-24.33986578 152.55979415 -17.38986948 159.50010765 -10.44277263 166.44333267 C-2.43589846 174.44571879 5.57748623 182.44150931 13.59656262 190.43166733 C19.80670853 196.62019641 26.0110774 202.81447857 32.21109271 209.01315689 C35.90974818 212.71076527 39.61078441 216.40591262 43.31784821 220.09509277 C46.80139234 223.56215412 50.27770089 227.0363104 53.74862289 230.51600647 C55.02146878 231.78962234 56.29687204 233.06068844 57.57503891 234.32896423 C59.32312612 236.06431633 61.06164658 237.80873795 62.79815674 239.55566406 C63.55457486 240.29999758 63.55457486 240.29999758 64.32627416 241.05936813 C68.57741128 245.37013488 71.92584202 249.7792264 72.8125 255.875 C71.76830889 263.31486169 67.77758627 268.56841787 62.52999878 273.70774841 C61.95629488 274.28557558 61.38259098 274.86340274 60.79150212 275.45873982 C58.88321486 277.375896 56.96107489 279.27850196 55.03857422 281.18139648 C53.66108436 282.55939554 52.28446895 283.9382692 50.90866089 285.31794739 C47.1823495 289.04966478 43.44377986 292.76887428 39.70271444 296.48579288 C35.78900197 300.37817989 31.88626414 304.28154092 27.98220825 308.18360901 C21.4301354 314.72924111 14.87071636 321.2674334 8.30615234 327.80053711 C-0.12796165 336.19428496 -8.5505289 344.59951871 -16.96928596 353.00866604 C-24.2033123 360.234402 -31.44180482 367.45565883 -38.68143606 374.67577863 C-41.01155798 376.99982947 -43.34121457 379.32434614 -45.67087173 381.64886284 C-49.32410523 385.29333197 -52.98008668 388.93502283 -56.63825607 392.57453728 C-57.98315095 393.91329698 -59.32720202 395.25290495 -60.67036438 396.59340286 C-62.49758443 398.41665724 -64.32783828 400.23680859 -66.15896606 402.05613708 C-66.69514466 402.59250005 -67.23132326 403.12886301 -67.7837497 403.68147939 C-71.45902389 407.32326195 -71.45902389 407.32326195 -73.6875 408.4375 C-72.39037865 411.28831378 -71.01770149 413.36134772 -68.81643677 415.5827179 C-68.23047729 416.1786525 -67.64451782 416.7745871 -67.040802 417.38858032 C-66.39972504 418.03032196 -65.75864807 418.6720636 -65.09814453 419.33325195 C-64.42152771 420.01819229 -63.74491089 420.70313263 -63.04779053 421.40882874 C-60.81074768 423.66995848 -58.56612464 425.92336316 -56.3203125 428.17578125 C-54.76325799 429.7417995 -53.20628274 431.30789655 -51.64938354 432.87406921 C-48.38635327 436.15358598 -45.11895716 439.42868575 -41.84912109 442.70141602 C-37.65155435 446.9043815 -33.47039912 451.12328105 -29.29300117 455.3462801 C-26.08445311 458.58449666 -22.86478346 461.81147491 -19.64187241 465.03539085 C-18.09476162 466.58672035 -16.55179136 468.14219022 -15.0130043 469.7017765 C-12.86546238 471.87603309 -10.70284504 474.03408363 -8.53564453 476.1887207 C-7.58010178 477.16651489 -7.58010178 477.16651489 -6.60525513 478.1640625 C-6.01365601 478.74589798 -5.42205688 479.32773346 -4.81253052 479.92720032 C-4.30261126 480.43913091 -3.79269199 480.9510615 -3.26732063 481.47850513 C-1.73393597 482.59714057 -1.73393597 482.59714057 0.14851093 482.43241119 C3.380687 480.94639253 5.60541667 478.53529519 8.06135559 476.02922058 C8.63153166 475.45949109 9.20170773 474.8897616 9.78916186 474.30276757 C11.70233512 472.38750709 13.60456563 470.46173311 15.50708008 468.53588867 C16.87493843 467.16227407 18.24348048 465.78934002 19.61265564 464.41703796 C22.56238425 461.45781639 25.50738473 458.49399482 28.44889259 455.52660179 C33.10142531 450.83354917 37.76533626 446.15191766 42.43107605 441.47200012 C53.17982984 430.68708162 63.91356535 419.88725576 74.64714813 409.08724213 C84.47591024 399.19793452 94.30781515 389.31180751 104.15194815 379.43779737 C108.78816343 374.78664289 113.41696538 370.12827177 118.0402199 365.46423566 C120.92132991 362.5607179 123.80866832 359.66345545 126.69771767 356.76783943 C128.03426156 355.42568773 129.36821363 354.08094917 130.69933701 352.73342133 C132.52021162 350.89082186 134.35021777 349.0577825 136.18269348 347.22673035 C136.70430787 346.69433107 137.22592227 346.16193179 137.76334316 345.61339921 C142.10123312 341.31134111 146.54767229 337.83965676 152.75 336.9375 C160.22075938 337.98602763 165.46136468 341.9908733 170.6005249 347.27815247 C171.18031892 347.85805661 171.76011294 348.43796076 172.35747647 349.03543776 C174.28150905 350.96455548 176.19087062 352.90754628 178.10058594 354.85083008 C179.48351865 356.24308417 180.86737824 357.63441811 182.25209045 359.02490234 C185.22337026 362.01217372 188.18837227 365.00549049 191.14870453 368.00361061 C195.82689935 372.74075915 200.52093195 377.46199822 205.21759033 382.18083191 C216.87441755 393.89765513 228.50998904 405.63552825 240.14190674 417.3770752 C249.19440718 426.51438995 258.25251373 435.64599384 267.32786202 444.76062316 C272.00085028 449.4551462 276.66175358 454.16125518 281.31398058 458.87634909 C284.20275828 461.79912496 287.10178696 464.71156113 290.00381279 467.62117767 C291.35144077 468.97659814 292.69472874 470.33634898 294.03341103 471.70060539 C295.85514441 473.55595705 297.69148005 475.39548974 299.53240967 477.23176575 C300.06392505 477.78057382 300.59544044 478.32938189 301.14306235 478.89482051 C303.83866714 481.68657202 303.83866714 481.68657202 307.47522736 482.43799782 C309.47382443 481.34964981 310.8790619 480.24567933 312.48895264 478.63526917 C313.39330803 477.74143524 313.39330803 477.74143524 314.31593323 476.82954407 C314.96545456 476.172379 315.61497589 475.51521393 316.28417969 474.83813477 C316.9772673 474.14869781 317.67035492 473.45926086 318.38444519 472.74893188 C320.67522253 470.46626613 322.95495733 468.17291138 325.234375 465.87890625 C326.81998461 464.2927782 328.40611215 462.70716774 329.99273682 461.12205505 C333.31614926 457.79855286 336.63432787 454.46993807 339.94873047 451.13745117 C344.20656825 446.85689867 348.47541914 442.58753605 352.74799728 438.321702 C356.02363857 435.04939456 359.29428639 431.77213428 362.5633316 428.49323845 C364.13614237 426.91656738 365.7103173 425.34125595 367.28585052 423.76730537 C369.48167815 421.57184673 371.67092035 419.37003344 373.85839844 417.16625977 C374.51601669 416.51111893 375.17363495 415.85597809 375.85118103 415.1809845 C379.15189369 412.33452647 379.15189369 412.33452647 380.3125 408.4375 C378.96861495 407.07186801 378.96861495 407.07186801 377.13409424 405.62303162 C370.81834368 400.24508665 365.03456916 394.32418373 359.16699219 388.46899414 C357.8523026 387.16058001 356.53742731 385.85235246 355.22238159 384.54429626 C350.93116249 380.27397263 346.64514818 375.9984443 342.359375 371.72265625 C340.87856496 370.24589772 339.39772219 368.76917199 337.91684723 367.29247856 C330.96458623 360.35922891 324.0147108 353.4235989 317.06777263 346.48501593 C309.06248526 338.48951801 301.04897087 330.50238482 293.02843738 322.52218157 C286.81655865 316.34046577 280.61237874 310.15109067 274.41390729 303.9559316 C270.71652707 300.26089944 267.01592922 296.56923272 263.30715179 292.88563728 C259.82141803 289.42319539 256.34534411 285.9513388 252.87637711 282.47210121 C251.60440779 281.19963689 250.32902994 279.93056896 249.04996109 278.66524124 C247.29947638 276.93251134 245.56188762 275.18776225 243.82684326 273.43959045 C243.32256451 272.94628095 242.81828577 272.45297145 242.29872584 271.94471318 C237.79040725 267.35405117 234.83725946 262.32367705 233.6875 256 C235.57159453 245.26066117 246.22546037 237.11258044 253.62988281 229.76367188 C254.9877483 228.40501448 256.34495947 227.04570288 257.7015686 225.68579102 C261.36800212 222.0142477 265.04364961 218.35205988 268.72121525 214.69167137 C272.57174227 210.85622884 276.41411556 207.01263405 280.25750732 203.17004395 C286.70507136 196.72616506 293.15823356 190.28793784 299.61523438 183.85351562 C307.91075765 175.58694031 316.1969272 167.31105412 324.48021317 159.03221893 C331.60093299 151.91547327 338.72590925 144.80299341 345.85157681 137.69120216 C348.14393424 135.40294668 350.4357025 133.11410235 352.7273941 130.82518005 C356.32001951 127.23743736 359.91528343 123.65235935 363.51264572 120.06936646 C364.83497133 118.75157301 366.15644845 117.43292755 367.47703171 116.11338806 C369.27349814 114.31866053 371.07299441 112.52702889 372.87335205 110.73620605 C373.40038451 110.20830711 373.92741698 109.68040816 374.47042012 109.13651228 C378.08408153 105.55170924 378.08408153 105.55170924 380.3125 104.4375 C379.00726513 101.56069198 377.61859036 99.4928601 375.39001465 97.26104736 C374.49411873 96.35669197 374.49411873 96.35669197 373.5801239 95.43406677 C372.92655411 94.78454544 372.27298431 94.13502411 371.59960938 93.46582031 C370.9100264 92.7727327 370.22044342 92.07964508 369.50996399 91.36555481 C367.23039749 89.07718891 364.94359686 86.7962121 362.65625 84.515625 C361.07176906 82.92979721 359.48758514 81.34367259 357.90368652 79.75726318 C354.58470606 76.43533414 351.26213437 73.11705013 347.93701172 69.80126953 C343.66605214 65.54172282 339.4041574 61.27323686 335.14488983 57.00200272 C331.8766692 53.72657223 328.60372123 50.4558991 325.32929993 47.1866684 C323.75528442 45.61399084 322.18276366 44.03981585 320.61174011 42.46414948 C318.42107992 40.26843645 316.22415684 38.07919308 314.02539062 35.89160156 C313.37182083 35.23398331 312.71825104 34.57636505 312.0448761 33.89881897 C309.20519286 30.59736107 309.20519286 30.59736107 305.3125 29.4375 C303.94686801 30.78138505 303.94686801 30.78138505 302.49803162 32.61590576 C297.12008665 38.93165632 291.19918373 44.71543084 285.34399414 50.58300781 C284.03558001 51.8976974 282.72735246 53.21257269 281.41929626 54.52761841 C277.14897263 58.81883751 272.8734443 63.10485182 268.59765625 67.390625 C267.12089772 68.87143504 265.64417199 70.35227781 264.16747856 71.83315277 C257.23422891 78.78541377 250.2985989 85.7352892 243.36001593 92.68222737 C235.36451801 100.68751474 227.37738482 108.70102913 219.39718157 116.72156262 C213.21546577 122.93344135 207.02609067 129.13762126 200.8309316 135.33609271 C197.13589944 139.03347293 193.44423272 142.73407078 189.76063728 146.44284821 C186.29819539 149.92858197 182.8263388 153.40465589 179.34710121 156.87362289 C178.07463689 158.14559221 176.80556896 159.42097006 175.54024124 160.70003891 C173.80751134 162.45052362 172.06276225 164.18811238 170.31459045 165.92315674 C169.82128095 166.42743549 169.32797145 166.93171423 168.81971318 167.45127416 C164.22905117 171.95959275 159.19867705 174.91274054 152.875 176.0625 C142.13566117 174.17840547 133.98758044 163.52453963 126.63867188 156.12011719 C125.28001448 154.7622517 123.92070288 153.40504053 122.56079102 152.0484314 C118.8892477 148.38199788 115.22705988 144.70635039 111.56667137 141.02878475 C107.73122884 137.17825773 103.88763405 133.33588444 100.04504395 129.49249268 C93.60116506 123.04492864 87.16293784 116.59176644 80.72851562 110.13476562 C72.46194031 101.83924235 64.18605412 93.5530728 55.90721893 85.26978683 C48.79047327 78.14906701 41.67799341 71.02409075 34.56620216 63.89842319 C32.27794668 61.60606576 29.98910235 59.3142975 27.70018005 57.0226059 C24.11243736 53.42998049 20.52735935 49.83471657 16.94436646 46.23735428 C15.62657301 44.91502867 14.30792755 43.59355155 12.98838806 42.27296829 C11.19366053 40.47650186 9.40202889 38.67700559 7.61120605 36.87664795 C7.08330711 36.34961549 6.55540816 35.82258302 6.01151228 35.27957988 C2.42670924 31.66591847 2.42670924 31.66591847 1.3125 29.4375 C-1.3734497 29.4375 -1.81998049 30.31865477 -3.69937134 32.19540405 Z " fill="#1B1F21" transform="translate(102.6875,-0.4375)"/>
</svg>
