<?xml version="1.0" encoding="UTF-8"?>
<svg version="1.1" xmlns="http://www.w3.org/2000/svg" width="600" height="600">
<path d="M0 0 C198 0 396 0 600 0 C600 198 600 396 600 600 C402 600 204 600 0 600 C0 402 0 204 0 0 Z " fill="#FEFEFE" transform="translate(0,0)"/>
<path d="M0 0 C1.44632812 -0.01160156 1.44632812 -0.01160156 2.921875 -0.0234375 C29.99524963 0.04914527 51.79766489 14.73186534 70.51953125 33.046875 C98.11488966 61.62919186 112.79314627 101.67321155 112.8125 141 C112.82474609 142.29421875 112.83699219 143.5884375 112.84960938 144.921875 C112.87999755 165.01858822 107.59510206 184.26898135 93.65234375 199.37109375 C86.08972635 206.3799935 77.512901 209.8069706 67.625 212.25 C67.01164795 212.42805176 66.3982959 212.60610352 65.76635742 212.78955078 C58.99439922 214.58552605 52.21008129 214.55379824 45.25073242 214.51074219 C43.19484849 214.50003826 41.13984156 214.51067887 39.08398438 214.5234375 C31.72133959 214.53009721 24.77127604 214.11766792 17.625 212.25 C17.625 211.92 17.625 211.59 17.625 211.25 C18.47320312 211.24742187 19.32140625 211.24484375 20.1953125 211.2421875 C33.18897513 210.813825 44.00430033 206.98184984 53.4453125 197.7265625 C57.12706143 193.54335673 59.99145224 189.15245044 62.625 184.25 C63.08648437 183.41726563 63.54796875 182.58453125 64.0234375 181.7265625 C77.5083179 153.85780967 73.62596296 116.54542955 63.8125 88.25 C56.96231704 69.7676409 47.75991305 53.03794632 34.625 38.25 C33.86703125 37.39664063 33.1090625 36.54328125 32.328125 35.6640625 C22.94866007 25.70221249 11.55619629 18.68461775 -1.375 14.25 C-2.08398438 14.00507813 -2.79296875 13.76015625 -3.5234375 13.5078125 C-18.94727613 9.1938653 -33.67410932 12.87259732 -47.375 20.25 C-47.375 19.59 -47.375 18.93 -47.375 18.25 C-45.34868985 16.56090189 -43.33658751 15.01970988 -41.1875 13.5 C-40.55690674 13.05333984 -39.92631348 12.60667969 -39.27661133 12.14648438 C-26.81246892 3.54773494 -15.00968678 -0.11944048 0 0 Z " fill="#2E3033" transform="translate(256.375,215.75)"/>
<path d="M0 0 C0 3.92124644 -1.7232676 4.99163572 -4.22265625 7.80859375 C-21.58126554 29.21118675 -26.09530866 59.85004421 -23.78173828 86.515625 C-20.46505209 114.68122727 -8.38702672 143.00360545 13.1875 161.9375 C18.42812411 165.78062435 22.38820984 167.91197106 29 167 C35.36979467 164.37428311 39.3397683 160.29556612 42 154 C49.20598993 133.18532088 47.08732364 111.16854948 37.6875 91.3125 C31.57899436 80.190534 24.27114804 71.27572815 12 67 C6.02082519 65.98021255 1.72049157 67.03027088 -3.2109375 70.5078125 C-7.39438311 73.9970619 -10.29993216 77.74524487 -12 83 C-13.84063231 78.15683622 -11.5641966 74.58310165 -9.57421875 70.1015625 C-4.86238612 60.81819995 2.15860743 53.76410626 11.91015625 49.82421875 C23.68537704 46.68316744 34.53258687 49.74813947 44.98046875 55.17578125 C49.94292527 58.17379832 53.94140392 61.88791336 58 66 C59.15822266 67.14275391 59.15822266 67.14275391 60.33984375 68.30859375 C81.49466495 90.33130505 87.69732531 121.73163142 87.34375 151.1796875 C86.91521286 164.117938 83.23112144 177.52689221 74.015625 187.05078125 C65.73766383 194.56629863 57.73666886 197.54006307 46.53125 197.24609375 C26.28370316 195.27758225 8.92952681 178.19908579 -3.46728516 163.22802734 C-25.89261289 134.51237512 -35.59740325 99.88821806 -31.46484375 63.62109375 C-28.49748415 41.80328212 -19.29955328 15.48121451 -1.625 1.0625 C-1.08875 0.711875 -0.5525 0.36125 0 0 Z " fill="#2E3033" transform="translate(200,218)"/>
<path d="M0 0 C24.4454785 21.21141615 42.01311702 48.72894103 51.4765625 79.70654297 C51.73050781 80.50721191 51.98445312 81.30788086 52.24609375 82.1328125 C55.95263113 94.21945073 56.94556131 106.07173346 56.9765625 118.64404297 C56.98114471 119.33201965 56.98572693 120.01999634 56.990448 120.7288208 C57.02378621 133.33593784 56.03214908 146.51752554 49.9765625 157.83154297 C49.4659729 158.81682983 49.4659729 158.81682983 48.94506836 159.82202148 C45.07704023 166.9462495 39.99615155 172.82004482 34.4765625 178.70654297 C33.77015625 179.49287109 33.06375 180.27919922 32.3359375 181.08935547 C25.56452012 188.30013962 17.45472116 193.9211543 9.4765625 199.70654297 C8.8165625 199.37654297 8.1565625 199.04654297 7.4765625 198.70654297 C8.82234375 197.66820312 8.82234375 197.66820312 10.1953125 196.60888672 C13.43013155 193.90466152 15.75999313 190.83786538 17.9765625 187.26904297 C18.35965576 186.65561035 18.74274902 186.04217773 19.13745117 185.41015625 C35.01391542 159.33477131 36.31243135 126.05504599 29.734375 96.73388672 C29.32406074 95.05588998 28.9047992 93.38005549 28.4765625 91.70654297 C28.15510254 90.44028076 28.15510254 90.44028076 27.82714844 89.1484375 C21.13348284 63.57707599 9.89667329 38.74776406 -7.5234375 18.70654297 C-8.18811035 17.92657959 -8.18811035 17.92657959 -8.86621094 17.13085938 C-32.7056568 -10.70504581 -61.48699765 -22.059735 -97.5234375 -25.29345703 C-75.68535521 -47.13153933 -17.65728795 -14.9917166 0 0 Z " fill="#2F3033" transform="translate(361.5234375,210.29345703125)"/>
<path d="M0 0 C4.47218052 3.12194103 7.2166638 7.16107707 8.23828125 12.5625 C8.92817611 20.48302365 7.71946348 25.45900632 3.61328125 32.25 C-1.16420027 36.90175832 -6.64985301 38.78874793 -13.26171875 39.1875 C-19.35396696 38.92299062 -23.41307843 36.77170496 -27.76171875 32.5625 C-32.40399871 27.05047204 -33.57232835 21.5524762 -33.24609375 14.4296875 C-32.25251648 8.54835108 -29.12739915 4.58946824 -24.76171875 0.6875 C-16.47167904 -5.18461146 -8.78610691 -4.8098128 0 0 Z " fill="#FAFAFB" transform="translate(264.76171875,458.4375)"/>
<path d="M0 0 C5.44123938 2.68256906 8.63400413 6.61457512 11.6875 11.75 C13.24028077 18.42695732 13.08902208 24.59006415 9.6484375 30.6171875 C6.14055607 35.39693237 1.93831406 38.57626511 -3.6875 40.4375 C-10.35511189 41.38432082 -15.52827688 40.85376275 -21.03515625 36.8671875 C-25.39250855 33.09699615 -28.35030743 29.04101569 -29.09375 23.30078125 C-29.28098132 16.20939504 -29.10093445 10.96209124 -24.5859375 5.28125 C-17.30883601 -1.78622305 -9.4693561 -3.64816064 0 0 Z " fill="#F8F8F9" transform="translate(166.6875,456.5625)"/>
<path d="M0 0 C4.9190625 -0.12375 4.9190625 -0.12375 9.9375 -0.25 C10.95191162 -0.28641602 11.96632324 -0.32283203 13.01147461 -0.36035156 C19.91705392 -0.44344635 26.31774152 0.6446763 31.58935547 5.44824219 C36.32294162 10.89675243 37.46339271 15.10659168 37.3125 22.1796875 C36.6811407 27.87770517 34.32708057 32.08426172 30.0625 35.875 C25.59039424 38.9780938 22.1444301 40.25899918 16.69921875 40.1953125 C15.37796997 40.18781982 15.37796997 40.18781982 14.0300293 40.18017578 C12.37547729 40.15286377 12.37547729 40.15286377 10.6875 40.125 C7.160625 40.08375 3.63375 40.0425 0 40 C0 26.8 0 13.6 0 0 Z " fill="#14102D" transform="translate(457,456)"/>
<path d="M0 0 C3.67125 -0.061875 7.3425 -0.12375 11.125 -0.1875 C12.84420654 -0.22846802 12.84420654 -0.22846802 14.59814453 -0.27026367 C20.17243373 -0.31571422 24.19068408 -0.16402363 29 3 C29.61875 3.391875 30.2375 3.78375 30.875 4.1875 C32.77064934 7.24160171 32.54180383 10.56162953 32 14 C30.5 16.375 30.5 16.375 29 18 C29 18.66 29 19.32 29 20 C29.825 20.495 30.65 20.99 31.5 21.5 C34.34467062 24.34467062 34.45259305 25.06983733 34.625 28.9375 C34.4362007 32.81646743 34.120013 33.84106387 31.6875 37.0625 C27.6836679 39.94898361 24.83356226 40.12113933 20.01953125 40.09765625 C18.97128174 40.09515869 17.92303223 40.09266113 16.84301758 40.09008789 C15.51294678 40.08098389 14.18287598 40.07187988 12.8125 40.0625 C8.584375 40.041875 4.35625 40.02125 0 40 C0 26.8 0 13.6 0 0 Z " fill="#15112D" transform="translate(282,456)"/>
<path d="M0 0 C20.37481352 2.14119551 40.17589211 16.76135819 55 30 C55.79921875 30.65484375 56.5984375 31.3096875 57.421875 31.984375 C79.55691713 50.35175039 95.77176429 81.94300873 98.79272461 110.29467773 C99.2108784 115.75234812 99.1911615 121.21649399 99.1875 126.6875 C99.18669434 127.92741699 99.18588867 129.16733398 99.18505859 130.44482422 C99.03410914 152.96589086 99.03410914 152.96589086 95 157 C95.00112793 156.16154541 95.00225586 155.32309082 95.00341797 154.45922852 C94.85224595 106.26493151 78.46955103 63.83283589 44.29296875 29.26171875 C31.56455115 17.27874289 16.43232787 7.15011101 0 1 C0 0.67 0 0.34 0 0 Z " fill="#313234" transform="translate(333,171)"/>
<path d="M0 0 C5.754375 -0.12375 5.754375 -0.12375 11.625 -0.25 C12.82334473 -0.28641602 14.02168945 -0.32283203 15.25634766 -0.36035156 C21.52621344 -0.42562976 25.27157015 -0.25405663 30 4 C30.91265625 4.68642578 30.91265625 4.68642578 31.84375 5.38671875 C34.54096917 9.15006848 33.63379677 14.6383259 33 19 C31.62055667 21.68225092 30.28680118 22.93098941 28 25 C27.34 25.66 26.68 26.32 26 27 C26.5775 27.85464844 27.155 28.70929688 27.75 29.58984375 C28.50012058 30.70564811 29.25011404 31.82153795 30 32.9375 C30.3815625 33.50146484 30.763125 34.06542969 31.15625 34.64648438 C34 38.88671875 34 38.88671875 34 40 C30.45887094 40.71838479 27.51370045 40.93497609 24 40 C21.5831181 37.34701064 19.80429921 34.54947226 17.89453125 31.515625 C16.24923308 28.92013837 16.24923308 28.92013837 13.94921875 28.046875 C11.82917968 27.73228245 11.82917968 27.73228245 9 28 C9 32.29 9 36.58 9 41 C6.03 41 3.06 41 0 41 C0 27.47 0 13.94 0 0 Z " fill="#15102D" transform="translate(324,456)"/>
<path d="M0 0 C9 0 9 0 11.47460938 1.91186523 C12.09142578 2.78528564 12.70824219 3.65870605 13.34375 4.55859375 C14.03210938 5.50154297 14.72046875 6.44449219 15.4296875 7.41601562 C16.11289062 8.41310547 16.79609375 9.41019531 17.5 10.4375 C18.21414063 11.43072266 18.92828125 12.42394531 19.6640625 13.44726562 C20.97639539 15.27480144 22.27653985 17.11119301 23.56054688 18.95874023 C24.84147213 20.89826206 24.84147213 20.89826206 26 22 C26.33 14.74 26.66 7.48 27 0 C29.97 0 32.94 0 36 0 C36 13.2 36 26.4 36 40 C28 40 28 40 26.08544922 38.75 C25.66279785 38.1725 25.24014648 37.595 24.8046875 37 C24.31613281 36.35933594 23.82757813 35.71867187 23.32421875 35.05859375 C22.84597656 34.37925781 22.36773437 33.69992187 21.875 33 C21.38902344 32.35160156 20.90304687 31.70320313 20.40234375 31.03515625 C19.47545001 29.79356118 18.55840215 28.54449361 17.65576172 27.28515625 C15.14809715 23.82426856 12.56433326 20.41911101 10 17 C9.67 24.92 9.34 32.84 9 41 C6.03 41 3.06 41 0 41 C0 27.47 0 13.94 0 0 Z " fill="#16122F" transform="translate(411,456)"/>
<path d="M0 0 C2.97 0 5.94 0 9 0 C13.26335456 8.80087983 17.20843732 17.70908314 20.9375 26.75 C21.3389624 27.71437988 21.7404248 28.67875977 22.15405273 29.67236328 C22.52473877 30.57970215 22.8954248 31.48704102 23.27734375 32.421875 C23.60984131 33.23237305 23.94233887 34.04287109 24.28491211 34.87792969 C25 37 25 37 25 40 C22.03 40 19.06 40 16 40 C14.515 35.545 14.515 35.545 13 31 C4.585 31.495 4.585 31.495 -4 32 C-4.99 34.64 -5.98 37.28 -7 40 C-9.97 40 -12.94 40 -16 40 C-15.42925113 35.72076784 -14.40187116 32.19570424 -12.63671875 28.26171875 C-12.16169922 27.19373047 -11.68667969 26.12574219 -11.19726562 25.02539062 C-10.69904297 23.92388672 -10.20082031 22.82238281 -9.6875 21.6875 C-9.20087891 20.59759766 -8.71425781 19.50769531 -8.21289062 18.38476562 C-7.25991271 16.25178813 -6.30410876 14.12007057 -5.34521484 11.98974609 C-3.54971032 7.99922915 -1.77446029 3.99991168 0 0 Z " fill="#140F2C" transform="translate(379,456)"/>
<path d="M0 0 C4.47218052 3.12194103 7.2166638 7.16107707 8.23828125 12.5625 C8.92817611 20.48302365 7.71946348 25.45900632 3.61328125 32.25 C-1.16420027 36.90175832 -6.64985301 38.78874793 -13.26171875 39.1875 C-19.35396696 38.92299062 -23.41307843 36.77170496 -27.76171875 32.5625 C-32.40399871 27.05047204 -33.57232835 21.5524762 -33.24609375 14.4296875 C-32.25251648 8.54835108 -29.12739915 4.58946824 -24.76171875 0.6875 C-16.47167904 -5.18461146 -8.78610691 -4.8098128 0 0 Z M-26.13671875 8.125 C-28.90619984 13.98351769 -28.66919195 19.84008039 -26.63671875 25.9375 C-23.97745425 29.6604703 -20.9008476 32.49293557 -16.76171875 34.5625 C-10.49227572 35.10296923 -5.89797694 34.36924003 -0.76171875 30.5625 C3.49493888 25.45451084 3.86717197 20.94138213 3.62109375 14.37109375 C2.90718531 9.1333369 0.42151157 6.65915249 -3.32421875 3.1875 C-12.20701195 -1.0116386 -19.63890193 1.11419765 -26.13671875 8.125 Z " fill="#1C192F" transform="translate(264.76171875,458.4375)"/>
<path d="M0 0 C5.44123938 2.68256906 8.63400413 6.61457512 11.6875 11.75 C13.24028077 18.42695732 13.08902208 24.59006415 9.6484375 30.6171875 C6.14055607 35.39693237 1.93831406 38.57626511 -3.6875 40.4375 C-10.35511189 41.38432082 -15.52827688 40.85376275 -21.03515625 36.8671875 C-25.39250855 33.09699615 -28.35030743 29.04101569 -29.09375 23.30078125 C-29.28098132 16.20939504 -29.10093445 10.96209124 -24.5859375 5.28125 C-17.30883601 -1.78622305 -9.4693561 -3.64816064 0 0 Z M-22.6875 10.4375 C-25.1019953 15.2664906 -25.64665599 20.25650166 -24.0703125 25.484375 C-22.03090189 30.28511147 -19.40293723 33.08105126 -14.8359375 35.59375 C-10.13921278 37.43828189 -6.2667224 36.99487261 -1.5 35.3125 C2.73301121 32.49049253 5.67159664 29.36021008 7.3125 24.4375 C8.0410368 17.6059746 7.58171249 12.91084935 3.3125 7.4375 C-1.54414179 3.5720096 -5.76177604 2.62492142 -11.9609375 2.85546875 C-16.76717879 3.88144289 -19.69512919 6.65685759 -22.6875 10.4375 Z " fill="#16132B" transform="translate(166.6875,456.5625)"/>
<path d="M0 0 C2.53589054 1.39732744 4.26027854 2.46122643 6.0625 4.6875 C5.4025 5.6775 4.7425 6.6675 4.0625 7.6875 C-0.6875 5.8125 -0.6875 5.8125 -2.9375 4.6875 C-7.82352864 4.10176971 -12.80425549 3.54880867 -17.25 5.921875 C-20.18450989 8.39175416 -21.70907563 10.00222689 -22.9375 13.6875 C-23.68639514 23.21509906 -23.68639514 23.21509906 -19.9375 31.6875 C-16.24631209 35.19412851 -13.32541207 35.9717571 -8.375 36.125 C-5.29325116 35.97825006 -2.79359064 35.64720538 0.1875 34.8125 C3.33043147 31.250511 2.8813609 27.33673682 3.0625 22.6875 C-0.8975 22.6875 -4.8575 22.6875 -8.9375 22.6875 C-8.9375 21.3675 -8.9375 20.0475 -8.9375 18.6875 C-3.6575 18.6875 1.6225 18.6875 7.0625 18.6875 C7.0625 24.2975 7.0625 29.9075 7.0625 35.6875 C-0.77731356 40.16739346 -5.13035109 41.40895115 -13.9375 40.6875 C-19.97228553 38.9776441 -23.54496322 35.83407282 -26.9375 30.6875 C-29.63763444 25.14946915 -29.46285711 19.72910672 -28.9375 13.6875 C-26.70294588 7.21905387 -21.97030722 2.636864 -15.95703125 -0.5859375 C-10.75019174 -2.45919117 -5.09538207 -2.02522585 0 0 Z " fill="#1A162F" transform="translate(215.9375,456.3125)"/>
<path d="M0 0 C3.13180809 1.62390049 5.24339744 3.00266026 7.375 5.8125 C8.59875016 10.09562557 8.59895652 13.68229565 6.75 17.75 C4.39942086 20.77217318 2.43149713 22.72068349 -1.40234375 23.46875 C-8.28614193 23.55360421 -8.28614193 23.55360421 -12.0625 20.625 C-14.98721729 16.66247981 -15.39062682 14.17215743 -15.359375 9.328125 C-14.75455722 5.40995764 -12.83123243 3.69641184 -10 1 C-6.78501861 -0.6074907 -3.48701742 -0.47314549 0 0 Z " fill="#F6F5F8" transform="translate(199,509)"/>
<path d="M0 0 C11.46491228 0 11.46491228 0 16.57421875 4.3359375 C19.18379758 7.38163772 19.10619508 11.11724227 19 15 C17.82959847 18.5112046 16.68187516 20.36074204 14 22.875 C11 24 11 24 0 24 C0 16.08 0 8.16 0 0 Z " fill="#FAF9FB" transform="translate(466,464)"/>
<path d="M0 0 C2.72926866 1.59207339 4.19438738 2.48671212 6 5 C6.98458222 9.78895432 7.22863148 14.71584319 4.86328125 19.11328125 C3.5 20.75 3.5 20.75 1 23 C0.01 22.67 -0.98 22.34 -2 22 C-3 19 -3 19 -2 16 C-2.69480469 16.32742188 -3.38960938 16.65484375 -4.10546875 16.9921875 C-7.36368828 18.12662831 -9.87449502 18.20056055 -13.3125 18.125 C-15.189375 18.08375 -17.06625 18.0425 -19 18 C-19 13.71 -19 9.42 -19 5 C-15.80989583 4.8046875 -12.61979167 4.609375 -9.4296875 4.4140625 C-6.04606384 4.00556124 -3.18387559 3.19032431 0 2 C0 1.34 0 0.68 0 0 Z " fill="#201C37" transform="translate(351,458)"/>
<path d="M0 0 C2.97 0 5.94 0 9 0 C10.20474943 2.38846832 11.38864958 4.78390152 12.5625 7.1875 C13.07586914 8.19780273 13.07586914 8.19780273 13.59960938 9.22851562 C15.11724624 12.37109702 16.04313952 14.33852737 15.8125 17.875 C14.91769783 20.21525184 13.9193639 21.41443852 12 23 C11.67 22.67 11.34 22.34 11 22 C10.67 22.66 10.34 23.32 10 24 C6.37 24 2.74 24 -1 24 C-0.525625 22.618125 -0.05125 21.23625 0.4375 19.8125 C1.52510108 16.55995715 2.45256044 13.39412527 3 10 C1.02 10.33 -0.96 10.66 -3 11 C-3.33 12.32 -3.66 13.64 -4 15 C-4.66 15 -5.32 15 -6 15 C-4.36041242 9.76727367 -2.61047965 4.84803364 0 0 Z " fill="#1B1732" transform="translate(379,456)"/>
<path d="M0 0 C1.65 0 3.3 0 5 0 C5 11.88 5 23.76 5 36 C12.26 36 19.52 36 27 36 C27 37.32 27 38.64 27 40 C18.09 40 9.18 40 0 40 C0 26.8 0 13.6 0 0 Z " fill="#201C34" transform="translate(106,456)"/>
<path d="M0 0 C12.21678151 -0.49360733 12.21678151 -0.49360733 15.89453125 1.82421875 C18 4 18 4 18.5 7.0625 C18 10 18 10 16.6875 11.875 C15 13 15 13 12 13 C12.433125 13.55429687 12.86625 14.10859375 13.3125 14.6796875 C14.1478125 15.76636719 14.1478125 15.76636719 15 16.875 C15.556875 17.59429688 16.11375 18.31359375 16.6875 19.0546875 C18 21 18 21 18 23 C15.51692525 22.62282409 14.3251826 22.406977 12.7265625 20.40625 C12.36304688 19.7771875 11.99953125 19.148125 11.625 18.5 C9.65474861 15.498589 9.34472317 15.09756316 5.6875 14.0625 C4.800625 14.041875 3.91375 14.02125 3 14 C3 16.97 3 19.94 3 23 C2.01 23 1.02 23 0 23 C0 15.41 0 7.82 0 0 Z " fill="#343145" transform="translate(428,509)"/>
<path d="M0 0 C4.76745759 3.06479417 8.78135654 7.75983311 10.078125 13.3359375 C10.2224871 16.67688902 10.19490995 19.99459025 10.078125 23.3359375 C9.748125 23.3359375 9.418125 23.3359375 9.078125 23.3359375 C9.078125 21.6859375 9.078125 20.0359375 9.078125 18.3359375 C8.418125 18.3359375 7.758125 18.3359375 7.078125 18.3359375 C7.078125 19.6559375 7.078125 20.9759375 7.078125 22.3359375 C6.418125 22.3359375 5.758125 22.3359375 5.078125 22.3359375 C4.99175781 21.52769531 4.90539062 20.71945312 4.81640625 19.88671875 C3.9824053 13.08574511 3.9824053 13.08574511 0.703125 7.2109375 C-5.08236752 3.07844284 -9.8603693 2.45961789 -16.921875 3.3359375 C-19.38512685 4.41507641 -20.8643404 5.55644811 -22.921875 7.3359375 C-24.241875 6.3459375 -25.561875 5.3559375 -26.921875 4.3359375 C-25.65486777 3.351825 -24.3831131 2.37382253 -23.109375 1.3984375 C-22.40167969 0.85316406 -21.69398438 0.30789063 -20.96484375 -0.25390625 C-14.54537767 -4.6849335 -6.60977541 -3.2586655 0 0 Z " fill="#16122B" transform="translate(168.921875,457.6640625)"/>
<path d="M0 0 C0.99 0 1.98 0 3 0 C4.5091441 3.26669046 6.00571701 6.53898816 7.5 9.8125 C7.92925781 10.74126953 8.35851562 11.67003906 8.80078125 12.62695312 C9.40986328 13.9659668 9.40986328 13.9659668 10.03125 15.33203125 C10.40830078 16.15421143 10.78535156 16.9763916 11.17382812 17.82348633 C12 20 12 20 12 23 C9 22 9 22 7.8125 19.9375 C7.544375 19.298125 7.27625 18.65875 7 18 C5.06440687 17.86495862 3.126128 17.76798871 1.1875 17.6875 C0.10855469 17.62949219 -0.97039062 17.57148437 -2.08203125 17.51171875 C-3.04496094 17.67285156 -4.00789063 17.83398438 -5 18 C-6.79763674 20.43976266 -6.79763674 20.43976266 -8 23 C-8.66 23 -9.32 23 -10 23 C-7.60292686 14.82175048 -3.91141228 7.53348722 0 0 Z " fill="#272537" transform="translate(270,509)"/>
<path d="M0 0 C5.28 0 10.56 0 16 0 C16 5.61 16 11.22 16 17 C9.30986189 20.82293606 6.94003202 22.15710568 -0.25 22.0625 C-1.14203125 22.05347656 -2.0340625 22.04445313 -2.953125 22.03515625 C-3.62859375 22.02355469 -4.3040625 22.01195312 -5 22 C-5.33 21.01 -5.66 20.02 -6 19 C-6.66 19 -7.32 19 -8 19 C-8 18.34 -8 17.68 -8 17 C-7.04738281 17.03480469 -6.09476563 17.06960938 -5.11328125 17.10546875 C-3.23189453 17.14607422 -3.23189453 17.14607422 -1.3125 17.1875 C-0.07113281 17.22230469 1.17023438 17.25710938 2.44921875 17.29296875 C6.26674763 16.97799112 8.11108513 16.50085168 11 14 C11.81406498 11.51486417 11.81406498 11.51486417 11.8125 8.8125 C11.9053125 6.4303125 11.9053125 6.4303125 12 4 C8.04 4 4.08 4 0 4 C0 2.68 0 1.36 0 0 Z " fill="#16132B" transform="translate(207,475)"/>
<path d="M0 0 C0 3.92124644 -1.7232676 4.99163572 -4.22265625 7.80859375 C-13.9150294 19.75897032 -19.13472106 35.09552271 -22 50 C-23.65 48.68 -25.3 47.36 -27 46 C-24.75504551 30.28531857 -13.88697406 11.06568937 -1.625 1.0625 C-1.08875 0.711875 -0.5525 0.36125 0 0 Z " fill="#373737" transform="translate(200,218)"/>
<path d="M0 0 C5.61 0 11.22 0 17 0 C17 0.99 17 1.98 17 3 C12.38 3 7.76 3 3 3 C3 5.31 3 7.62 3 10 C7.29 10 11.58 10 16 10 C16 10.99 16 11.98 16 13 C11.71 13 7.42 13 3 13 C3 15.64 3 18.28 3 21 C7.62 21 12.24 21 17 21 C17 21.66 17 22.32 17 23 C11.39 23 5.78 23 0 23 C0 15.41 0 7.82 0 0 Z " fill="#353346" transform="translate(394,509)"/>
<path d="M0 0 C5.61 0 11.22 0 17 0 C17 0.99 17 1.98 17 3 C12.38 3 7.76 3 3 3 C3 5.31 3 7.62 3 10 C6.96 10 10.92 10 15 10 C15 10.99 15 11.98 15 13 C11.04 13 7.08 13 3 13 C3 15.64 3 18.28 3 21 C7.62 21 12.24 21 17 21 C17 21.66 17 22.32 17 23 C11.39 23 5.78 23 0 23 C0 15.41 0 7.82 0 0 Z " fill="#3E3C4C" transform="translate(463,509)"/>
<path d="M0 0 C0.99 0 1.98 0 3 0 C3 3.3 3 6.6 3 10 C6.96 10 10.92 10 15 10 C15 6.7 15 3.4 15 0 C15.99 0 16.98 0 18 0 C18 7.59 18 15.18 18 23 C17.01 23 16.02 23 15 23 C15 19.7 15 16.4 15 13 C11.04 13 7.08 13 3 13 C3 16.3 3 19.6 3 23 C2.01 23 1.02 23 0 23 C0 15.41 0 7.82 0 0 Z " fill="#514F5F" transform="translate(358,509)"/>
<path d="M0 0 C0.99 0 1.98 0 3 0 C4.79806947 2.04648697 6.40269813 4.0560589 8 6.25 C8.43828125 6.83652344 8.8765625 7.42304687 9.328125 8.02734375 C10.15270122 9.13257393 10.97346258 10.24066836 11.7890625 11.35253906 C13.17978445 13.24459385 14.59108823 15.12145097 16 17 C16.33 11.39 16.66 5.78 17 0 C17.66 0 18.32 0 19 0 C19 7.59 19 15.18 19 23 C15.43818751 21.21909375 14.43309154 20.66238178 12.203125 17.7421875 C11.47802734 16.80439453 11.47802734 16.80439453 10.73828125 15.84765625 C10.00158203 14.87119141 10.00158203 14.87119141 9.25 13.875 C8.49009766 12.88693359 8.49009766 12.88693359 7.71484375 11.87890625 C6.46969142 10.25785888 5.23391431 8.62961787 4 7 C3.67 12.28 3.34 17.56 3 23 C2.01 23 1.02 23 0 23 C0 15.41 0 7.82 0 0 Z " fill="#312E43" transform="translate(299,509)"/>
<path d="M0 0 C3.13180809 1.62390049 5.24339744 3.00266026 7.375 5.8125 C8.59875016 10.09562557 8.59895652 13.68229565 6.75 17.75 C4.39942086 20.77217318 2.43149713 22.72068349 -1.40234375 23.46875 C-8.28614193 23.55360421 -8.28614193 23.55360421 -12.0625 20.625 C-14.98721729 16.66247981 -15.39062682 14.17215743 -15.359375 9.328125 C-14.75455722 5.40995764 -12.83123243 3.69641184 -10 1 C-6.78501861 -0.6074907 -3.48701742 -0.47314549 0 0 Z M-9.875 3.9375 C-12.35976044 7.51847828 -12.74450361 9.5653334 -12.48046875 13.83984375 C-11.66581629 17.50246824 -10.07504636 18.97177793 -7 21 C-2.5882483 21.7878128 -0.77807226 21.52975133 2.9375 19 C5.2472973 15.64029484 5.68169593 13.91074695 5.43359375 9.93359375 C4.75194607 6.89381354 3.19767713 5.13303956 1 3 C-3.12632997 0.93683501 -6.1129867 1.40223017 -9.875 3.9375 Z " fill="#262337" transform="translate(199,509)"/>
<path d="M0 0 C5.76998557 0.60636958 10.66522219 2.72031489 15.9375 5 C17.32279907 5.59687622 17.32279907 5.59687622 18.73608398 6.20581055 C28.33668992 10.44105403 38.79712423 15.16313028 46 23 C44.68 24.32 43.36 25.64 42 27 C40.87321838 26.16907724 39.74873979 25.33503194 38.625 24.5 C37.88121094 23.94828125 37.13742187 23.3965625 36.37109375 22.828125 C34.84848732 21.65418792 33.35724102 20.43773607 31.91015625 19.171875 C22.79701423 11.29197013 11.3077738 5.17447228 0 1 C0 0.67 0 0.34 0 0 Z " fill="#363636" transform="translate(333,171)"/>
<path d="M0 0 C1.93719378 -0.05406122 3.87481921 -0.09282025 5.8125 -0.125 C6.89144531 -0.14820313 7.97039062 -0.17140625 9.08203125 -0.1953125 C12 0 12 0 15 2 C15.3125 5.5 15.3125 5.5 15 9 C13 11 13 11 9.9609375 11.1953125 C8.77757812 11.17210937 7.59421875 11.14890625 6.375 11.125 C5.18648438 11.10695313 3.99796875 11.08890625 2.7734375 11.0703125 C1.85820312 11.04710937 0.94296875 11.02390625 0 11 C0 7.37 0 3.74 0 0 Z " fill="#F9F8FA" transform="translate(333,464)"/>
<path d="M0 0 C0.86625 -0.00515625 1.7325 -0.0103125 2.625 -0.015625 C5 0.25 5 0.25 8 2.25 C7.67 3.24 7.34 4.23 7 5.25 C6.46375 4.92 5.9275 4.59 5.375 4.25 C2.27953927 2.94664811 0.33425359 2.77367806 -3 3.25 C-6.02033737 5.18692369 -6.02033737 5.18692369 -8 8.25 C-8.51605446 12.45215772 -8.45273312 15.70716327 -6 19.25 C-3.01002175 20.74498913 -0.29957225 20.36577446 3 20.25 C3.99 19.92 4.98 19.59 6 19.25 C6.33 17.27 6.66 15.29 7 13.25 C4.69 13.25 2.38 13.25 0 13.25 C0 12.59 0 11.93 0 11.25 C2.97 11.25 5.94 11.25 9 11.25 C9.390625 17.98828125 9.390625 17.98828125 9 20.25 C6.86759148 22.48679215 5.41371363 23.1704634 2.37890625 23.75390625 C-5.07500865 23.90898076 -5.07500865 23.90898076 -7.79296875 21.97265625 C-11.59194091 17.4161178 -12.48731015 14.09772185 -12 8.25 C-8.9548686 2.68475986 -6.4602719 -0.038454 0 0 Z " fill="#2A2738" transform="translate(235,508.75)"/>
<path d="M0 0 C2.27057377 -0.05398987 4.54151288 -0.09278742 6.8125 -0.125 C8.07707031 -0.14820313 9.34164063 -0.17140625 10.64453125 -0.1953125 C14 0 14 0 17 2 C16.25 6.75 16.25 6.75 14 9 C10.7421875 9.1953125 10.7421875 9.1953125 6.875 9.125 C4.95300781 9.09792969 4.95300781 9.09792969 2.9921875 9.0703125 C1.51105469 9.03550781 1.51105469 9.03550781 0 9 C0 6.03 0 3.06 0 0 Z " fill="#EDECF1" transform="translate(291,480)"/>
<path d="M0 0 C2.4375 1 2.4375 1 4 2 C4 2.66 4 3.32 4 4 C0.7 3.67 -2.6 3.34 -6 3 C-6.33 4.65 -6.66 6.3 -7 8 C-6.30132812 8.26554688 -5.60265625 8.53109375 -4.8828125 8.8046875 C-3.51769531 9.33449219 -3.51769531 9.33449219 -2.125 9.875 C-0.76761719 10.39707031 -0.76761719 10.39707031 0.6171875 10.9296875 C3 12 3 12 5 14 C5.55655296 19.23159785 5.55655296 19.23159785 3.7890625 21.671875 C1.43352152 23.42052988 -0.02840365 23.36936955 -2.9375 23.3125 C-3.79214844 23.30863281 -4.64679688 23.30476562 -5.52734375 23.30078125 C-8.10028192 22.98780141 -9.77505475 22.29573378 -12 21 C-11.505 19.515 -11.505 19.515 -11 18 C-10.43796875 18.32742188 -9.8759375 18.65484375 -9.296875 18.9921875 C-6.73140036 20.11785494 -5.03157723 20.2068111 -2.25 20.125 C-1.05117187 20.09792969 -1.05117187 20.09792969 0.171875 20.0703125 C0.77515625 20.04710937 1.3784375 20.02390625 2 20 C1.88734703 17.55636992 1.88734703 17.55636992 1 15 C-1.22125838 13.59964505 -1.22125838 13.59964505 -3.9375 12.8125 C-8.84782609 11.15217391 -8.84782609 11.15217391 -11 9 C-11.375 6.0625 -11.375 6.0625 -11 3 C-7.9229225 -0.692493 -4.55425718 -0.4066301 0 0 Z " fill="#2E2B3D" transform="translate(132,509)"/>
<path d="M0 0 C0.66 0 1.32 0 2 0 C2.44877633 33.20254429 2.44877633 33.20254429 0 42 C-0.66 42.66 -1.32 43.32 -2 44 C-2.33 30.8 -2.66 17.6 -3 4 C-2.01 4.495 -2.01 4.495 -1 5 C-0.67 3.35 -0.34 1.7 0 0 Z " fill="#4F5051" transform="translate(430,284)"/>
<path d="M0 0 C1.95825873 -0.02694851 3.91662226 -0.04637218 5.875 -0.0625 C6.96554687 -0.07410156 8.05609375 -0.08570313 9.1796875 -0.09765625 C12 0 12 0 14 1 C14.125 3.375 14.125 3.375 14 6 C12 8 12 8 9.1796875 8.1953125 C8.08914063 8.17210937 6.99859375 8.14890625 5.875 8.125 C4.77929688 8.10695313 3.68359375 8.08890625 2.5546875 8.0703125 C1.71164062 8.04710937 0.86859375 8.02390625 0 8 C0 5.36 0 2.72 0 0 Z " fill="#FAF9FB" transform="translate(291,464)"/>
<path d="M0 0 C0.7734375 -0.00257813 1.546875 -0.00515625 2.34375 -0.0078125 C4.5 0.125 4.5 0.125 7.5 1.125 C8.1875 3.1875 8.1875 3.1875 8.5 5.125 C5.35785861 6.17238046 3.45835581 6.10488819 0.1875 5.9375 C-5.08902065 5.86052158 -7.54115611 6.70113501 -11.5 10.125 C-12.82 9.135 -14.14 8.145 -15.5 7.125 C-14.23299277 6.1408875 -12.9612381 5.16288503 -11.6875 4.1875 C-10.97980469 3.64222656 -10.27210938 3.09695313 -9.54296875 2.53515625 C-6.36861618 0.34406394 -3.75604546 -0.01252015 0 0 Z " fill="#2A2640" transform="translate(157.5,454.875)"/>
<path d="M0 0 C7.50285652 -0.60506907 12.77385021 0.63952576 19 5 C21.46984317 7.58059847 24 10.26115614 24 14 C22.68 13.67 21.36 13.34 20 13 C19.67 13.66 19.34 14.32 19 15 C18.443125 14.071875 17.88625 13.14375 17.3125 12.1875 C14.50303516 8.31499441 12.46286199 6.42291569 7.6796875 5.6015625 C5.45314487 5.34331147 3.23673761 5.14131893 1 5 C1 4.67 1 4.34 1 4 C3.64 4 6.28 4 9 4 C9 3.34 9 2.68 9 2 C6.03 2 3.06 2 0 2 C0 1.34 0 0.68 0 0 Z " fill="#272439" transform="translate(248,455)"/>
<path d="M0 0 C1.62490954 -0.02698189 3.24994633 -0.04638757 4.875 -0.0625 C5.77992188 -0.07410156 6.68484375 -0.08570313 7.6171875 -0.09765625 C10 0 10 0 12 1 C12.1875 3.875 12.1875 3.875 12 7 C7.7975546 9.80163026 4.99895065 9.14489712 0 9 C0 6.03 0 3.06 0 0 Z " fill="#F8F7FA" transform="translate(431,512)"/>
<path d="M0 0 C0.99 0 1.98 0 3 0 C3 6.93 3 13.86 3 21 C6.96 21 10.92 21 15 21 C15 21.66 15 22.32 15 23 C10.05 23 5.1 23 0 23 C0 15.41 0 7.82 0 0 Z " fill="#262338" transform="translate(154,509)"/>
<path d="M0 0 C1.09570312 0.10183594 2.19140625 0.20367187 3.3203125 0.30859375 C4.16335937 0.39238281 5.00640625 0.47617187 5.875 0.5625 C5.875 1.2225 5.875 1.8825 5.875 2.5625 C4.89660156 2.70945312 4.89660156 2.70945312 3.8984375 2.859375 C-1.61926688 3.80340702 -5.81314207 4.76395849 -10.125 8.5625 C-11.69008292 10.83676112 -12.88435311 13.08120623 -14.125 15.5625 C-16.125 12.5625 -16.125 12.5625 -15.625 9.1875 C-12.61863619 1.9221208 -7.6449132 -0.73195977 0 0 Z " fill="#141127" transform="translate(251.125,456.4375)"/>
<path d="M0 0 C0.87462891 0.00451172 1.74925781 0.00902344 2.65039062 0.01367188 C4.78779047 0.02535166 6.92515463 0.04328311 9.0625 0.0625 C8.0725 0.743125 8.0725 0.743125 7.0625 1.4375 C6.0725 2.241875 6.0725 2.241875 5.0625 3.0625 C5.0625 3.7225 5.0625 4.3825 5.0625 5.0625 C-2.95220585 4.51971733 -10.95053902 3.92744739 -18.9375 3.0625 C-14.49095891 -1.38404109 -5.92789933 -0.05860281 0 0 Z " fill="#3D3D3E" transform="translate(282.9375,181.9375)"/>
<path d="M0 0 C7.29745286 -0.3964411 13.16823543 -0.33734334 18.9375 4.6875 C19.4634375 5.3371875 19.4634375 5.3371875 20 6 C19.01 7.485 19.01 7.485 18 9 C13.25 7.125 13.25 7.125 11 6 C9.46331135 5.77532169 7.92031946 5.59203195 6.375 5.4375 C5.55773437 5.35371094 4.74046875 5.26992188 3.8984375 5.18359375 C3.27195313 5.12300781 2.64546875 5.06242187 2 5 C2 4.34 2 3.68 2 3 C1.34 2.67 0.68 2.34 0 2 C0 1.34 0 0.68 0 0 Z " fill="#302D44" transform="translate(202,455)"/>
<path d="M0 0 C0.33 0 0.66 0 1 0 C1 2.64 1 5.28 1 8 C5.62 7.67 10.24 7.34 15 7 C14.67 7.66 14.34 8.32 14 9 C13.01 9 12.02 9 11 9 C11.433125 9.55429687 11.86625 10.10859375 12.3125 10.6796875 C13.1478125 11.76636719 13.1478125 11.76636719 14 12.875 C14.556875 13.59429688 15.11375 14.31359375 15.6875 15.0546875 C17 17 17 17 17 19 C14.51692525 18.62282409 13.3251826 18.406977 11.7265625 16.40625 C11.36304688 15.7771875 10.99953125 15.148125 10.625 14.5 C8.65474861 11.498589 8.34472317 11.09756316 4.6875 10.0625 C3.800625 10.041875 2.91375 10.02125 2 10 C2 12.97 2 15.94 2 19 C1.34 19 0.68 19 0 19 C0 12.73 0 6.46 0 0 Z " fill="#201D32" transform="translate(429,513)"/>
<path d="M0 0 C2.97 0 5.94 0 9 0 C9.390625 6.73828125 9.390625 6.73828125 9 9 C6.84522631 11.27560212 5.43875002 11.92838051 2.34375 12.43359375 C-5.36334141 12.44418041 -5.36334141 12.44418041 -8.6875 10.125 C-10 8 -10 8 -10 6 C-9.01 6 -8.02 6 -7 6 C-6.5875 6.495 -6.175 6.99 -5.75 7.5 C-3.00310571 9.85448082 -0.48505054 9.24893218 3 9 C3.99 8.67 4.98 8.34 6 8 C6.33 6.02 6.66 4.04 7 2 C4.69 2 2.38 2 0 2 C0 1.34 0 0.68 0 0 Z " fill="#1B192B" transform="translate(235,520)"/>
<path d="M0 0 C0.66 0 1.32 0 2 0 C2 7.59 2 15.18 2 23 C-1.7596052 21.1201974 -2.91513369 20.25700548 -5.3125 17.0625 C-5.84488281 16.37285156 -6.37726563 15.68320312 -6.92578125 14.97265625 C-7.28027344 14.32167969 -7.63476562 13.67070313 -8 13 C-7.67 12.01 -7.34 11.02 -7 10 C-4.03 13.465 -4.03 13.465 -1 17 C-0.67 11.39 -0.34 5.78 0 0 Z " fill="#0C091D" transform="translate(316,509)"/>
<path d="M0 0 C2.31 0.33 4.62 0.66 7 1 C7 4.01490557 6.48047265 5.86864114 5.5 8.6875 C5.2215625 9.49574219 4.943125 10.30398438 4.65625 11.13671875 C4.4396875 11.75160156 4.223125 12.36648438 4 13 C2 10 2 10 2 8 C-1.00778521 6.99740493 -3.53820647 6.69685358 -6.6875 6.4375 C-7.68136719 6.35371094 -8.67523438 6.26992188 -9.69921875 6.18359375 C-10.83810547 6.09271484 -10.83810547 6.09271484 -12 6 C-12 5.67 -12 5.34 -12 5 C-11.38511719 4.97421875 -10.77023437 4.9484375 -10.13671875 4.921875 C-5.00745409 4.7185352 -5.00745409 4.7185352 -0.9375 1.9375 C-0.628125 1.298125 -0.31875 0.65875 0 0 Z " fill="#0F0B28" transform="translate(303,457)"/>
<path d="M0 0 C2.99220268 1.36370299 5.29026529 2.94908083 7.75 5.125 C8.67039062 5.93324219 8.67039062 5.93324219 9.609375 6.7578125 C10.06828125 7.16773438 10.5271875 7.57765625 11 8 C10.01 8.495 10.01 8.495 9 9 C8.67 9.66 8.34 10.32 8 11 C4.47899095 11 3.89968686 10.41671132 1.3125 8.1875 C0.68988281 7.66542969 0.06726563 7.14335937 -0.57421875 6.60546875 C-2 5 -2 5 -2 2 C-1.34 2 -0.68 2 0 2 C0 1.34 0 0.68 0 0 Z " fill="#2C2B2D" transform="translate(378,194)"/>
<path d="M0 0 C3.05936637 3.75467691 5 7.08113061 5 12 C2.03 12 -0.94 12 -4 12 C-3.45660208 7.43545749 -2.20536179 4.0271824 0 0 Z " fill="#F5F4F8" transform="translate(383,467)"/>
<path d="M0 0 C0.66 0 1.32 0 2 0 C2.67119549 1.4562545 3.33681807 2.91507867 4 4.375 C4.556875 5.59316406 4.556875 5.59316406 5.125 6.8359375 C6 9 6 9 6 11 C2.7 11 -0.6 11 -4 11 C-2.7874262 7.27566618 -1.49140021 3.62197194 0 0 Z " fill="#E2E1E6" transform="translate(270,513)"/>
<path d="M0 0 C0.66 0 1.32 0 2 0 C2 7.59 2 15.18 2 23 C1.34 23 0.68 23 0 23 C0 19.37 0 15.74 0 12 C-4.29 12 -8.58 12 -13 12 C-13 11.67 -13 11.34 -13 11 C-8.71 11 -4.42 11 0 11 C0 7.37 0 3.74 0 0 Z " fill="#08051C" transform="translate(374,509)"/>
<path d="M0 0 C0.66 0 1.32 0 2 0 C3.50650776 4.51952327 3.74563919 8.35959378 1.75 12.75 C-0.07187528 15.09241108 -1.38944951 16.58284402 -4 18 C-7.25 18.1875 -7.25 18.1875 -10 18 C-7 16 -7 16 -4.9375 15.0625 C-2.67738896 14.01748702 -2.67738896 14.01748702 -1 11 C-0.54227937 8.26127045 -0.54227937 8.26127045 -0.375 5.3125 C-0.30023438 4.31863281 -0.22546875 3.32476563 -0.1484375 2.30078125 C-0.09945312 1.54152344 -0.05046875 0.78226563 0 0 Z " fill="#29253C" transform="translate(204,514)"/>
<path d="M0 0 C0 3.92860214 -1.73689758 5.01674375 -4.265625 7.81640625 C-7.45727118 11.83471754 -9.67602256 16.44269672 -12 21 C-12.99 20.34 -13.98 19.68 -15 19 C-13.56674738 14.76188742 -11.47186275 11.80825972 -8.625 8.375 C-7.85414063 7.43398437 -7.08328125 6.49296875 -6.2890625 5.5234375 C-4.30412967 3.33526923 -2.43175155 1.65447937 0 0 Z " fill="#434343" transform="translate(200,218)"/>
<path d="M0 0 C5.28 0 10.56 0 16 0 C15.67 1.32 15.34 2.64 15 4 C12.47524538 5.26237731 10.68799534 5.09856404 7.875 5.0625 C6.96492187 5.05347656 6.05484375 5.04445313 5.1171875 5.03515625 C4.41851562 5.02355469 3.71984375 5.01195312 3 5 C2.67 4.01 2.34 3.02 2 2 C1.34 2 0.68 2 0 2 C0 1.34 0 0.68 0 0 Z " fill="#141128" transform="translate(199,492)"/>
<path d="M0 0 C-0.17578125 1.87109375 -0.17578125 1.87109375 -1 4 C-3.29296875 5.16015625 -3.29296875 5.16015625 -6.1875 6.0625 C-10.35802738 7.43638467 -14.14284182 8.91504963 -18 11 C-18 10.34 -18 9.68 -18 9 C-15.78644691 7.16819604 -13.58175699 5.48035396 -11.25 3.8125 C-10.61578125 3.33619141 -9.9815625 2.85988281 -9.328125 2.36914062 C-8.709375 1.92376953 -8.090625 1.47839844 -7.453125 1.01953125 C-6.88754883 0.60807861 -6.32197266 0.19662598 -5.73925781 -0.22729492 C-3.47442724 -1.23349772 -2.28942025 -0.80355268 0 0 Z " fill="#464646" transform="translate(227,225)"/>
<path d="M0 0 C2.64 1.98 5.28 3.96 8 6 C7.34 7.32 6.68 8.64 6 10 C0.98886765 8.5682479 -0.94469549 6.01554307 -4 2 C-2.68 1.34 -1.36 0.68 0 0 Z " fill="#1E1A33" transform="translate(144,485)"/>
<path d="M0 0 C1.65 0.33 3.3 0.66 5 1 C4.33333333 5 3.66666667 9 3 13 C1.35 11.68 -0.3 10.36 -2 9 C-1.34 6.03 -0.68 3.06 0 0 Z " fill="#3D3D3D" transform="translate(175,255)"/>
<path d="M0 0 C5.7693614 0.59585208 10.61661536 2.76987597 15.875 5.0625 C16.75414062 5.43955078 17.63328125 5.81660156 18.5390625 6.20507812 C20.69531564 7.13086072 22.84876979 8.06261911 25 9 C24.01 9.99 23.02 10.98 22 12 C21.51120361 11.73783691 21.02240723 11.47567383 20.51879883 11.20556641 C18.284802 10.0093398 16.04867933 8.81714139 13.8125 7.625 C13.04357422 7.2125 12.27464844 6.8 11.48242188 6.375 C7.7172599 4.37122281 4.01638925 2.46489548 0 1 C0 0.67 0 0.34 0 0 Z " fill="#4D4D4D" transform="translate(333,171)"/>
<path d="M0 0 C0.66 0 1.32 0 2 0 C2 0.99 2 1.98 2 3 C5.3 3 8.6 3 12 3 C12 3.66 12 4.32 12 5 C11.24074219 5.01417969 10.48148437 5.02835938 9.69921875 5.04296875 C6.7208174 5.18590111 3.91989218 5.38664987 1 6 C-1.1386077 8.38987933 -1.1386077 8.38987933 -2 11 C-2.66 11 -3.32 11 -4 11 C-3.52269162 9.5410574 -3.04308958 8.08286504 -2.5625 6.625 C-2.29566406 5.81289063 -2.02882813 5.00078125 -1.75390625 4.1640625 C-1 2 -1 2 0 0 Z " fill="#0E0A20" transform="translate(264,521)"/>
<path d="M0 0 C0.33 0 0.66 0 1 0 C1 2.64 1 5.28 1 8 C5.62 8 10.24 8 15 8 C15 8.66 15 9.32 15 10 C9.72 10 4.44 10 -1 10 C-1.09765625 3.06640625 -1.09765625 3.06640625 -1 1 C-0.67 0.67 -0.34 0.34 0 0 Z " fill="#131027" transform="translate(465,522)"/>
<path d="M0 0 C1.32 0.33 2.64 0.66 4 1 C5.26237731 3.52475462 5.09856404 5.31200466 5.0625 8.125 C5.05347656 9.03507812 5.04445313 9.94515625 5.03515625 10.8828125 C5.02355469 11.58148438 5.01195312 12.28015625 5 13 C3.68 12.67 2.36 12.34 1 12 C0.67 8.04 0.34 4.08 0 0 Z " fill="#0A0623" transform="translate(268,468)"/>
<path d="M0 0 C0.33 0.66 0.66 1.32 1 2 C1.66 2 2.32 2 3 2 C1.125 5.875 1.125 5.875 0 7 C-1.60048202 7.12535652 -3.20715928 7.17574787 -4.8125 7.1875 C-5.68519531 7.20167969 -6.55789062 7.21585938 -7.45703125 7.23046875 C-10.10919085 6.99010406 -11.72464999 6.34187309 -14 5 C-13.67 4.01 -13.34 3.02 -13 2 C-12.43796875 2.32742188 -11.8759375 2.65484375 -11.296875 2.9921875 C-8.73140036 4.11785494 -7.03157723 4.2068111 -4.25 4.125 C-3.05117187 4.09792969 -3.05117187 4.09792969 -1.828125 4.0703125 C-0.92320312 4.03550781 -0.92320312 4.03550781 0 4 C0 2.68 0 1.36 0 0 Z " fill="#2E2C3D" transform="translate(134,525)"/>
<path d="M0 0 C-0.125 2.25 -0.125 2.25 -1 5 C-4.0625 7.3125 -4.0625 7.3125 -7 9 C-8.32 8.01 -9.64 7.02 -11 6 C-9.73608512 4.99126984 -8.46359117 3.99328178 -7.1875 3 C-6.47980469 2.443125 -5.77210938 1.88625 -5.04296875 1.3125 C-3 0 -3 0 0 0 Z " fill="#232036" transform="translate(153,456)"/>
<path d="M0 0 C1.07765625 0.11085938 2.1553125 0.22171875 3.265625 0.3359375 C4.08546875 0.43132812 4.9053125 0.52671875 5.75 0.625 C5.75 1.285 5.75 1.945 5.75 2.625 C5.06292969 2.75777344 4.37585938 2.89054687 3.66796875 3.02734375 C2.31638672 3.29224609 2.31638672 3.29224609 0.9375 3.5625 C-0.40248047 3.82353516 -0.40248047 3.82353516 -1.76953125 4.08984375 C-4.36397171 4.60241153 -4.36397171 4.60241153 -7.25 5.625 C-7.25 4.635 -7.25 3.645 -7.25 2.625 C-8.24 2.295 -9.23 1.965 -10.25 1.625 C-6.69181064 -0.63773207 -4.12452049 -0.44831744 0 0 Z " fill="#1A162D" transform="translate(251.25,456.375)"/>
<path d="M0 0 C0.33 0 0.66 0 1 0 C1.12375 1.134375 1.2475 2.26875 1.375 3.4375 C1.684375 5.2009375 1.684375 5.2009375 2 7 C2.66 7.33 3.32 7.66 4 8 C4 9.65 4 11.3 4 13 C3.21625 13.268125 2.4325 13.53625 1.625 13.8125 C-1.28114923 14.84814432 -1.28114923 14.84814432 -3 18 C-3.99 17.67 -4.98 17.34 -6 17 C-5.34 17 -4.68 17 -4 17 C-1.94862685 13.51783717 -1.43181408 10.22724343 -0.875 6.25 C-0.62363281 4.49429687 -0.62363281 4.49429687 -0.3671875 2.703125 C-0.24601562 1.81109375 -0.12484375 0.9190625 0 0 Z " fill="#2B273E" transform="translate(268,472)"/>
<path d="M0 0 C0.66 0.66 1.32 1.32 2 2 C2.99 2.33 3.98 2.66 5 3 C4.27683594 3.77923828 4.27683594 3.77923828 3.5390625 4.57421875 C-1.1876792 9.69507421 -1.1876792 9.69507421 -4 16 C-5.16161779 13.13421241 -4.9946154 11.98369837 -4.00390625 8.984375 C-3.52824219 7.91703125 -3.05257812 6.8496875 -2.5625 5.75 C-2.08941406 4.67234375 -1.61632812 3.5946875 -1.12890625 2.484375 C-0.75636719 1.66453125 -0.38382813 0.8446875 0 0 Z " fill="#4B4B4B" transform="translate(192,285)"/>
<path d="M0 0 C0.33 0 0.66 0 1 0 C1.16435547 0.93972656 1.16435547 0.93972656 1.33203125 1.8984375 C1.49058594 2.71570313 1.64914063 3.53296875 1.8125 4.375 C1.96332031 5.18710937 2.11414063 5.99921875 2.26953125 6.8359375 C2.87544942 9.35820641 2.87544942 9.35820641 6 11 C7.65549531 11.38499891 9.3222433 11.72793135 11 12 C8 14 8 14 5.5625 13.875 C2.25481728 12.74554736 0.92236769 11.95748876 -1 9 C-1.03181247 5.92479481 -0.59217226 3.01235453 0 0 Z " fill="#322F43" transform="translate(186,518)"/>
<path d="M0 0 C0.66 0 1.32 0 2 0 C3.00496852 3.01490557 3.10335303 5.04181692 3.0625 8.1875 C3.05347656 9.08855469 3.04445312 9.98960937 3.03515625 10.91796875 C3.02355469 11.60503906 3.01195312 12.29210937 3 13 C2.67 13 2.34 13 2 13 C2 11.35 2 9.7 2 8 C1.34 8 0.68 8 0 8 C0 9.32 0 10.64 0 12 C-0.66 12 -1.32 12 -2 12 C-2 10.02 -2 8.04 -2 6 C-1.34 5.67 -0.68 5.34 0 5 C0 3.35 0 1.7 0 0 Z " fill="#2B273F" transform="translate(176,468)"/>
<path d="M0 0 C1.485 0.99 1.485 0.99 3 2 C3.29296875 4.6015625 3.29296875 4.6015625 3.1875 7.625 C3.16042969 8.62789063 3.13335937 9.63078125 3.10546875 10.6640625 C3.07066406 11.43492187 3.03585938 12.20578125 3 13 C2.01 13.33 1.02 13.66 0 14 C0 9.38 0 4.76 0 0 Z " fill="#1D1932" transform="translate(138,469)"/>
<path d="M0 0 C0.33 0.66 0.66 1.32 1 2 C1.66 2 2.32 2 3 2 C3 2.66 3 3.32 3 4 C1.217871 5.44074715 -0.62660276 6.80510649 -2.5 8.125 C-4.03140625 9.21167969 -4.03140625 9.21167969 -5.59375 10.3203125 C-6.3878125 10.87460937 -7.181875 11.42890625 -8 12 C-8.66 11.67 -9.32 11.34 -10 11 C-9.0925 10.29875 -8.185 9.5975 -7.25 8.875 C-4.08030474 6.25361695 -2.12079889 3.50747509 0 0 Z " fill="#404040" transform="translate(379,398)"/>
<path d="M0 0 C2.475 0.99 2.475 0.99 5 2 C5.33 1.34 5.66 0.68 6 0 C6.99 0.99 7.98 1.98 9 3 C8.67 3.66 8.34 4.32 8 5 C8.66 5 9.32 5 10 5 C10 5.66 10 6.32 10 7 C5.61308455 6.49381745 3.15608721 3.86917019 0 1 C0 0.67 0 0.34 0 0 Z " fill="#1E1A32" transform="translate(191,489)"/>
<path d="M0 0 C3.29014997 -0.22432841 5.42277246 -0.30380397 8.375 1.25 C10 3 10 3 10 7 C9.34 7 8.68 7 8 7 C7.34 6.01 6.68 5.02 6 4 C4.03247172 2.93753473 2.03412421 1.92862192 0 1 C0 0.67 0 0.34 0 0 Z " fill="#211D33" transform="translate(127,520)"/>
<path d="M0 0 C3.36720387 1.39332574 4.9859524 2.9789286 7 6 C6.01 6.99 5.02 7.98 4 9 C1.47740939 7.02579865 1.0070192 6.03254358 0.3125 2.8125 C0.209375 1.884375 0.10625 0.95625 0 0 Z " fill="#3C3C3E" transform="translate(390,204)"/>
<path d="M0 0 C0.66 0 1.32 0 2 0 C1.34 4.29 0.68 8.58 0 13 C-0.66 12.67 -1.32 12.34 -2 12 C-2.05422947 10.5629191 -2.09289723 9.12524538 -2.125 7.6875 C-2.14820313 6.88699219 -2.17140625 6.08648438 -2.1953125 5.26171875 C-2 3 -2 3 0 0 Z " fill="#1B182D" transform="translate(186,513)"/>
<path d="M0 0 C1.98 0.99 3.96 1.98 6 3 C5.34 4.32 4.68 5.64 4 7 C1.525 6.01 1.525 6.01 -1 5 C-0.67 3.35 -0.34 1.7 0 0 Z " fill="#232035" transform="translate(216,457)"/>
<path d="M0 0 C-4.83592913 3.22395275 -9.95716249 2.28671404 -15.5625 1.5 C-16.7690625 1.2525 -16.7690625 1.2525 -18 1 C-18 0.67 -18 0.34 -18 0 C-15.75067773 -0.1954625 -13.50049858 -0.38108226 -11.25 -0.5625 C-9.99703125 -0.66691406 -8.7440625 -0.77132813 -7.453125 -0.87890625 C-4.60547636 -0.97876723 -2.65713933 -0.90584295 0 0 Z " fill="#3F3F3F" transform="translate(292,427)"/>
<path d="M0 0 C3.14947449 2.3833861 5.9972676 4.55084975 8 8 C7.67 8.99 7.34 9.98 7 11 C4.35247996 8.42215154 2.05567935 6.08351902 0 3 C0 2.01 0 1.02 0 0 Z " fill="#1E1B2E" transform="translate(308,519)"/>
<path d="M0 0 C2.1385485 2.1385485 2.42655063 3.13275314 3 6 C1.02 6.66 -0.96 7.32 -3 8 C-2.67 6.68 -2.34 5.36 -2 4 C-2.66 3.67 -3.32 3.34 -4 3 C-3.01 2.67 -2.02 2.34 -1 2 C-0.67 1.34 -0.34 0.68 0 0 Z " fill="#292A2C" transform="translate(396,210)"/>
<path d="M0 0 C7.42857143 -0.28571429 7.42857143 -0.28571429 11 2 C11 2.66 11 3.32 11 4 C7.37 3.34 3.74 2.68 0 2 C0 1.34 0 0.68 0 0 Z " fill="#222032" transform="translate(125,509)"/>
<path d="M0 0 C2.35333796 4.70667591 2.17102038 6.8693886 2 12 C1.01 12 0.02 12 -1 12 C-0.67 8.04 -0.34 4.08 0 0 Z " fill="#2E3032" transform="translate(429,292)"/>
<path d="M0 0 C0.33 0 0.66 0 1 0 C1.3227506 4.62609198 0.84450614 7.28026121 -2 11 C-2.66 11 -3.32 11 -4 11 C-3.52269162 9.5410574 -3.04308958 8.08286504 -2.5625 6.625 C-2.29566406 5.81289063 -2.02882813 5.00078125 -1.75390625 4.1640625 C-1 2 -1 2 0 0 Z " fill="#252234" transform="translate(264,521)"/>
<path d="M0 0 C1.32 0.66 2.64 1.32 4 2 C2.68 3.32 1.36 4.64 0 6 C-0.99 4.68 -1.98 3.36 -3 2 C-2.01 1.34 -1.02 0.68 0 0 Z " fill="#242038" transform="translate(239,487)"/>
<path d="M0 0 C0.33 0 0.66 0 1 0 C1 3.3 1 6.6 1 10 C0.01 9.34 -0.98 8.68 -2 8 C-2.1875 4.875 -2.1875 4.875 -2 2 C-1.34 2 -0.68 2 0 2 C0 1.34 0 0.68 0 0 Z " fill="#16112C" transform="translate(272,471)"/>
<path d="M0 0 C2.475 0.495 2.475 0.495 5 1 C5 2.32 5 3.64 5 5 C4.01 5.33 3.02 5.66 2 6 C0 3 0 3 0 0 Z " fill="#1D1931" transform="translate(165,457)"/>
<path d="M0 0 C0.598125 0.20625 1.19625 0.4125 1.8125 0.625 C1.4825 1.945 1.1525 3.265 0.8125 4.625 C-0.8375 4.955 -2.4875 5.285 -4.1875 5.625 C-4.5175 4.305 -4.8475 2.985 -5.1875 1.625 C-2.1875 -0.375 -2.1875 -0.375 0 0 Z " fill="#3F3F40" transform="translate(225.1875,224.375)"/>
<path d="M0 0 C3 3.75 3 3.75 3 6 C1.02 6.66 -0.96 7.32 -3 8 C-1.125 1.125 -1.125 1.125 0 0 Z " fill="#DBD9E2" transform="translate(383,467)"/>
<path d="M0 0 C0.99 0 1.98 0 3 0 C3 0.66 3 1.32 3 2 C3.99 2.33 4.98 2.66 6 3 C5.01 3.99 4.02 4.98 3 6 C1.5 4.6875 1.5 4.6875 0 3 C0 2.01 0 1.02 0 0 Z " fill="#110E25" transform="translate(234,483)"/>
<path d="M0 0 C0.33 0 0.66 0 1 0 C1.05395478 1.62463842 1.09277195 3.24978541 1.125 4.875 C1.14820313 5.77992188 1.17140625 6.68484375 1.1953125 7.6171875 C1 10 1 10 -1 12 C-1.66 11.34 -2.32 10.68 -3 10 C-3 9.01 -3 8.02 -3 7 C-2.34 7 -1.68 7 -1 7 C-0.67 4.69 -0.34 2.38 0 0 Z " fill="#3B384E" transform="translate(191,472)"/>
<path d="M0 0 C-1.75 3.875 -1.75 3.875 -4 5 C-5.99960012 5.039992 -8.00047242 5.04346799 -10 5 C-2.5 0 -2.5 0 0 0 Z " fill="#120F24" transform="translate(204,527)"/>
<path d="M0 0 C0.66 0 1.32 0 2 0 C2 1.98 2 3.96 2 6 C1.34 6 0.68 6 0 6 C0 6.66 0 7.32 0 8 C-0.66 8 -1.32 8 -2 8 C-2 6.68 -2 5.36 -2 4 C-1.34 4 -0.68 4 0 4 C0 2.68 0 1.36 0 0 Z " fill="#0E0A27" transform="translate(176,476)"/>
<path d="M0 0 C0.33 0 0.66 0 1 0 C1.12375 1.134375 1.2475 2.26875 1.375 3.4375 C1.58125 4.613125 1.7875 5.78875 2 7 C2.66 7.33 3.32 7.66 4 8 C3.67 8.99 3.34 9.98 3 11 C2.34 10.67 1.68 10.34 1 10 C0.67 10.66 0.34 11.32 0 12 C0 8.04 0 4.08 0 0 Z " fill="#332E4B" transform="translate(268,472)"/>
<path d="M0 0 C1.70884005 1.62339805 3.37446717 3.29319053 5 5 C5 5.66 5 6.32 5 7 C3.125 6.75 3.125 6.75 1 6 C-0.3125 4.0625 -0.3125 4.0625 -1 2 C-0.67 1.34 -0.34 0.68 0 0 Z " fill="#252335" transform="translate(441,525)"/>
<path d="M0 0 C2 2 2 2 2 5 C0.02 5 -1.96 5 -4 5 C-4.33 4.01 -4.66 3.02 -5 2 C-3.35 1.34 -1.7 0.68 0 0 Z " fill="#242039" transform="translate(261,490)"/>
<path d="M0 0 C0.66 0 1.32 0 2 0 C1.44271087 3.34373475 0.64826111 6.03312999 -1 9 C-1.66 9 -2.32 9 -3 9 C-2.01 6.03 -1.02 3.06 0 0 Z " fill="#211E36" transform="translate(376,462)"/>
<path d="M0 0 C3.63 0.33 7.26 0.66 11 1 C11 1.33 11 1.66 11 2 C9.02 2 7.04 2 5 2 C5 2.66 5 3.32 5 4 C3.02 3.34 1.04 2.68 -1 2 C-0.67 1.34 -0.34 0.68 0 0 Z " fill="#211D38" transform="translate(199,456)"/>
<path d="M0 0 C0.66 1.32 1.32 2.64 2 4 C0.824375 4.4640625 0.824375 4.4640625 -0.375 4.9375 C-2.92330128 5.92875038 -2.92330128 5.92875038 -5 7 C-5 6.01 -5 5.02 -5 4 C-2.5 1.8125 -2.5 1.8125 0 0 Z " fill="#38383A" transform="translate(308,415)"/>
<path d="M0 0 C-0.33 2.64 -0.66 5.28 -1 8 C-1.99 7.67 -2.98 7.34 -4 7 C-3.625 4.0625 -3.625 4.0625 -3 1 C-1 0 -1 0 0 0 Z " fill="#383B3B" transform="translate(430,284)"/>
<path d="M0 0 C1.32 0.33 2.64 0.66 4 1 C2.68 1.33 1.36 1.66 0 2 C0.33 3.65 0.66 5.3 1 7 C0.01 6.34 -0.98 5.68 -2 5 C-1.34 3.35 -0.68 1.7 0 0 Z " fill="#141122" transform="translate(440,520)"/>
<path d="M0 0 C0.99 0 1.98 0 3 0 C2.67 3.63 2.34 7.26 2 11 C1.67 11 1.34 11 1 11 C0.67 7.37 0.34 3.74 0 0 Z " fill="#0B0720" transform="translate(189,469)"/>
<path d="M0 0 C0.33 0.66 0.66 1.32 1 2 C0.06694014 4.71435596 -0.62673377 5.78043163 -3.125 7.25 C-3.74375 7.4975 -4.3625 7.745 -5 8 C-3.8141763 4.62496331 -2.72426311 2.35277269 0 0 Z " fill="#E5E4E9" transform="translate(243,462)"/>
<path d="M0 0 C0.66 0 1.32 0 2 0 C2 1.65 2 3.3 2 5 C0.68 5.33 -0.64 5.66 -2 6 C-1.34 4.02 -0.68 2.04 0 0 Z " fill="#0D0926" transform="translate(192,462)"/>
<path d="M0 0 C2.2477975 2.05233685 3.0022242 3.00667261 4 6 C2.68 6.33 1.36 6.66 0 7 C-1.125 2.25 -1.125 2.25 0 0 Z " fill="#353738" transform="translate(344,273)"/>
</svg>
