<svg width="48" height="48" viewBox="0 0 48 48" fill="none" xmlns="http://www.w3.org/2000/svg">
<g clip-path="url(#clip0_53_69)">
<path d="M1.0243 23.7126C1.02318 27.7455 2.08518 31.6834 4.10455 35.1543L0.831177 47.0132L13.0622 43.8311C16.4451 45.6585 20.2354 46.616 24.0872 46.6162H24.0973C36.8126 46.6162 47.1632 36.3496 47.1686 23.7306C47.1711 17.6158 44.7733 11.8659 40.4169 7.53994C36.0613 3.21436 30.2685 0.830916 24.0964 0.828125C11.3796 0.828125 1.02974 11.0942 1.02449 23.7126" fill="url(#paint0_linear_53_69)"/>
<path d="M0.200625 23.7053C0.199313 27.8834 1.29937 31.962 3.39075 35.5572L0 47.8413L12.6696 44.5451C16.1604 46.4337 20.0908 47.4294 24.0902 47.4309H24.1005C37.272 47.4309 47.9944 36.795 48 23.7243C48.0023 17.3898 45.5182 11.4331 41.0062 6.95219C36.4937 2.47181 30.4937 0.00260465 24.1005 0C10.9267 0 0.205875 10.6344 0.200625 23.7053ZM7.74563 34.938L7.27256 34.1929C5.28394 31.0554 4.23431 27.4298 4.23581 23.7068C4.24012 12.8426 13.1509 4.00372 24.108 4.00372C29.4143 4.00595 34.401 6.05842 38.1517 9.78233C41.9023 13.5066 43.9661 18.4573 43.9648 23.7228C43.9599 34.587 35.049 43.427 24.1005 43.427H24.0926C20.5277 43.4251 17.0314 42.4752 13.9823 40.68L13.2566 40.253L5.73825 42.2089L7.74563 34.9379V34.938Z" fill="url(#paint1_linear_53_69)"/>
<path d="M18.1271 13.7949C17.6797 12.8083 17.2089 12.7884 16.7835 12.7711C16.4351 12.7562 16.0369 12.7573 15.639 12.7573C15.2407 12.7573 14.5937 12.906 14.0467 13.4986C13.4992 14.0917 11.9565 15.525 11.9565 18.4401C11.9565 21.3555 14.0964 24.1728 14.3947 24.5685C14.6934 24.9635 18.5259 31.1372 24.5957 33.5123C29.6402 35.4861 30.6667 35.0935 31.7615 34.9946C32.8565 34.8959 35.2948 33.5616 35.7922 32.178C36.29 30.7946 36.29 29.6087 36.1408 29.3609C35.9915 29.114 35.5933 28.9657 34.9961 28.6695C34.3987 28.3732 31.4629 26.9397 30.9155 26.7419C30.368 26.5443 29.97 26.4457 29.5717 27.039C29.1735 27.6314 28.0299 28.9657 27.6814 29.3609C27.3332 29.757 26.9846 29.8063 26.3876 29.5099C25.79 29.2126 23.8669 28.5877 21.5852 26.5692C19.8099 24.9986 18.6114 23.0591 18.263 22.4658C17.9147 21.8734 18.2257 21.5523 18.5252 21.2571C18.7935 20.9916 19.1225 20.5652 19.4214 20.2193C19.7192 19.8733 19.8185 19.6264 20.0177 19.2312C20.217 18.8357 20.1172 18.4896 19.9682 18.1933C19.8185 17.8969 18.6581 14.9665 18.1271 13.7949Z" fill="white"/>
</g>
<defs>
<linearGradient id="paint0_linear_53_69" x1="2317.7" y1="4619.34" x2="2317.7" y2="0.828125" gradientUnits="userSpaceOnUse">
<stop stop-color="#1FAF38"/>
<stop offset="1" stop-color="#60D669"/>
</linearGradient>
<linearGradient id="paint1_linear_53_69" x1="2400" y1="4784.13" x2="2400" y2="0" gradientUnits="userSpaceOnUse">
<stop stop-color="#F9F9F9"/>
<stop offset="1" stop-color="white"/>
</linearGradient>
<clipPath id="clip0_53_69">
<rect width="48" height="48" fill="white"/>
</clipPath>
</defs>
</svg>
